<?xml version="1.0" encoding="UTF-8" standalone="no"?>
<!-- Created with Inkscape (http://www.inkscape.org/) -->

<svg
   xmlns:dc="http://purl.org/dc/elements/1.1/"
   xmlns:cc="http://creativecommons.org/ns#"
   xmlns:rdf="http://www.w3.org/1999/02/22-rdf-syntax-ns#"
   xmlns:svg="http://www.w3.org/2000/svg"
   xmlns="http://www.w3.org/2000/svg"
   xmlns:sodipodi="http://sodipodi.sourceforge.net/DTD/sodipodi-0.dtd"
   xmlns:inkscape="http://www.inkscape.org/namespaces/inkscape"
   width="512"
   height="512"
   viewBox="0 0 512 512"
   version="1.1"
   id="svg8"
   inkscape:version="0.92.4 (5da689c313, 2019-01-14)"
   sodipodi:docname="U+4F0F-3.svg">
  <defs
     id="defs2">
    <inkscape:path-effect
       effect="bspline"
       id="path-effect39"
       is_visible="true"
       weight="33.333333"
       steps="2"
       helper_size="0"
       apply_no_weight="true"
       apply_with_weight="true"
       only_selected="false" />
    <inkscape:path-effect
       effect="bspline"
       id="path-effect35"
       is_visible="true"
       weight="33.333333"
       steps="2"
       helper_size="0"
       apply_no_weight="true"
       apply_with_weight="true"
       only_selected="false" />
    <inkscape:path-effect
       effect="bspline"
       id="path-effect31"
       is_visible="true"
       weight="33.333333"
       steps="2"
       helper_size="0"
       apply_no_weight="true"
       apply_with_weight="true"
       only_selected="false" />
    <inkscape:path-effect
       effect="bspline"
       id="path-effect27"
       is_visible="true"
       weight="33.333333"
       steps="2"
       helper_size="0"
       apply_no_weight="true"
       apply_with_weight="true"
       only_selected="false" />
    <inkscape:path-effect
       effect="bspline"
       id="path-effect23"
       is_visible="true"
       weight="33.333333"
       steps="2"
       helper_size="0"
       apply_no_weight="true"
       apply_with_weight="true"
       only_selected="false" />
  </defs>
  <sodipodi:namedview
     id="base"
     pagecolor="#ffffff"
     bordercolor="#666666"
     borderopacity="1.0"
     inkscape:pageopacity="0.0"
     inkscape:pageshadow="2"
     inkscape:zoom="1"
     inkscape:cx="400"
     inkscape:cy="240"
     inkscape:document-units="px"
     inkscape:current-layer="svg8"
     showgrid="false"
     units="px"
     inkscape:window-width="1600"
     inkscape:window-height="821"
     inkscape:window-x="-9"
     inkscape:window-y="-9"
     inkscape:window-maximized="1" />
  <metadata
     id="metadata5">
    <rdf:RDF>
      <cc:Work
         rdf:about="">
        <dc:format>image/svg+xml</dc:format>
        <dc:type
           rdf:resource="http://purl.org/dc/dcmitype/StillImage" />
        <dc:title />
      </cc:Work>
    </rdf:RDF>
  </metadata>
  <g
     inkscape:label="圖層 1"
     inkscape:groupmode="layer"
     id="layer1"
     transform="translate(0,-161.53331)" />
  <path
     style="fill:none;stroke:#000000;stroke-width:1px;stroke-linecap:butt;stroke-linejoin:miter;stroke-opacity:1"
     d="M 606,256.999 C 606,256.999 606,258.999 606,258.9985 606,258.998 606,256.999 606,256.999 Z"
     id="path37"
     inkscape:connector-curvature="0"
     inkscape:path-effect="#path-effect39"
     inkscape:original-d="M 606,255 C 606.001,256.999 606.001,258.999 606,261 606.001,258.998 606.001,256.999 606,255 Z" />
  <path
     style="opacity:1;fill:#000000"
     d="M 2.069099,376.65 C 3.4050467,367.53498 6.0425315,363.55319 19.456729,350.4 46.208038,324.16921 77.703152,280.37209 102.15481,235.4 120.20509,202.20149 120.92384,200.5538 120.41626,193.5366 119.91463,186.60155 117.25149,182.36969 111.86969,179.95566 103.44075,176.17481 103.47418,176.20137 104.97802,174.48028 105.73746,173.61112 107.0957,171.44512 107.99634,169.66693 112.99308,159.80148 128.35415,161.78562 139.24632,173.70339 146.64454,181.79823 149.00385,187.18027 149.43393,196.94328 149.85084,206.4072 147.11855,215.97129 140.44733,228.4 128.96012,249.80107 90.783465,296.42551 61.431972,324.9 50.769857,335.24354 48.187209,338.40589 42.722337,347.80921 35.590459,360.08093 29.911583,366.67118 21.868344,372.00998 14.650149,376.80115 5.5693491,381.37147 3.2364562,381.38733 1.5812861,381.39858 1.4507571,380.86888 2.069099,376.65 Z"
     id="path41"
     inkscape:connector-curvature="0" />
  <path
     style="opacity:1;fill:#000000"
     d="M 109.88885,454.15 C 107.90733,451.98549 102.6,438.11487 102.6,435.10072 102.6,434.29588 104.22843,432.39531 106.21873,430.87724 113.0666,425.65411 118.79062,408.48635 124.04893,377.4 127.85143,354.92016 128.43711,339.1043 125.84491,328.9 123.39262,319.24643 117.82846,307.23575 112.56072,300.22505 110.42992,297.38922 108.91862,294.69347 109.20229,294.2345 109.48595,293.77552 111.62812,293.4 113.96267,293.4 119.53481,293.4 127.22066,297.28667 134.12272,303.59476 141.8005,310.61182 142.44347,313.51821 139.60701,328.38537 134.43545,355.49196 133.52265,363.24572 132.6008,387.9 131.64187,413.54563 130.09974,426.0536 126.50654,437.32926 123.29669,447.40198 119.92644,453.10054 115.91574,455.23666 112.89923,456.84326 112.24671,456.72561 109.88885,454.15 Z"
     id="path43"
     inkscape:connector-curvature="0" />
  <path
     style="opacity:1;fill:#000000"
     d="M 449.1,432.23677 C 447.45,431.63802 442.95,429.03437 439.1,426.45087 435.25,423.86737 423.1,415.69834 412.1,408.29748 401.1,400.89662 382.2,389.04738 370.1,381.96583 342.72506,365.9446 326.27649,355.11737 312.1,343.78748 295.56279,330.57089 290.72332,327.4 287.0892,327.4 282.62784,327.4 281.10704,329.51045 275.56067,343.39836 269.53588,358.48423 267.35357,362.21718 257.96338,373.49939 232.10799,404.56437 201.84411,426.4 184.64389,426.4 180.47204,426.4 174.6,424.64345 174.6,423.39549 174.6,422.95062 178.0875,421.13907 182.35,419.36982 186.6125,417.60057 193.07664,414.65857 196.71475,412.83204 218.05282,402.11917 244.11085,374.08355 255.05854,350.06043 263.33772,331.89296 269.04675,309.87068 266.7717,304.87751 265.18441,301.39377 262.31438,301.68505 251.54894,306.42247 232.40682,314.84611 225.57153,315.21897 216.37357,308.34124 210.12001,303.66518 202.39012,294.62812 199.42822,288.53034 197.72751,285.02901 197.48401,283.45436 198.20287,280.60629 199.44714,275.67653 201.03928,275.59558 204.15496,280.30369 207.21596,284.92918 208.80381,285.6283 216.05156,285.54173 222.43923,285.46543 227.1427,284.45363 244.83569,279.34976 263.54706,273.95211 268.90819,271.48438 270.55371,267.51176 272.73019,262.25727 271.46202,250.99897 267.89401,243.9 263.49641,235.15045 261.47289,228.24173 261.27489,221.30093 261.14392,216.70995 261.47673,214.99024 262.6,214.45368 263.425,214.05959 267.31427,212.0863 271.24283,210.06858 279.96153,205.59062 284.56872,205.27348 287.46231,208.95208 288.56641,210.35573 290.92441,215.86823 292.7023,221.20208 295.28402,228.9475 296.07316,233.29726 296.62194,242.80704 297.19312,252.70518 297.61891,254.94066 299.14565,256.05704 301.52956,257.8002 300.60279,257.92882 314.51817,253.92355 328.04466,250.03022 340.98444,248.46501 344.42445,250.30605 349.73789,253.14972 344.14015,268.59928 335.48191,274.98712 333.63386,276.35057 325.14191,279.68684 316.61091,282.40105 299.60811,287.81064 291.18608,292.18813 288.3339,297.09849 285.87422,301.33313 285.81342,307.87336 288.20914,310.52059 290.41089,312.95351 302.27993,320.33909 320.1,330.36489 327.25,334.38757 337.92417,341.0906 343.82039,345.26052 349.8524,349.52649 363.19103,357.25952 374.32039,362.9428 385.19917,368.49813 401.975,377.13006 411.6,382.12486 432.85637,393.15565 443.99362,397.29576 475.64662,405.93325 489.05824,409.59302 501.58118,413.33272 503.47538,414.24369 510.5951,417.66776 510.17401,421.93905 502.50333,424.10334 495.29355,426.13759 461.45961,432.72054 456.6,433.03459 454.125,433.19453 450.75,432.83551 449.1,432.23677 Z"
     id="path45"
     inkscape:connector-curvature="0" />
  <path
     style="opacity:1;fill:#000000"
     d="M 396.72159,171.81492 C 375.51016,159.44568 367.35319,156.33278 356.15253,156.33278 H 350.33446 L 355.29687,151.21364 C 360.87476,145.45958 365.91489,142.8384 373.25928,141.87207 386.15331,140.17555 404.58648,146.89777 413.14596,156.41796 419.9272,163.96034 421.00378,170.04767 416.44693,175.08278 412.85889,179.04741 407.64219,178.18317 396.72159,171.81492 Z"
     id="path47"
     inkscape:connector-curvature="0" />
</svg>
