<?xml version="1.0" encoding="UTF-8" standalone="no"?>
<!-- Created with Inkscape (http://www.inkscape.org/) -->

<svg
   xmlns:dc="http://purl.org/dc/elements/1.1/"
   xmlns:cc="http://creativecommons.org/ns#"
   xmlns:rdf="http://www.w3.org/1999/02/22-rdf-syntax-ns#"
   xmlns:svg="http://www.w3.org/2000/svg"
   xmlns="http://www.w3.org/2000/svg"
   xmlns:sodipodi="http://sodipodi.sourceforge.net/DTD/sodipodi-0.dtd"
   xmlns:inkscape="http://www.inkscape.org/namespaces/inkscape"
   width="512"
   height="512"
   viewBox="0 0 512 512"
   version="1.1"
   id="svg8"
   inkscape:version="0.92.4 (5da689c313, 2019-01-14)"
   sodipodi:docname="U+554F-3.svg">
  <defs
     id="defs2">
    <inkscape:path-effect
       effect="bspline"
       id="path-effect47"
       is_visible="true"
       weight="33.333333"
       steps="2"
       helper_size="0"
       apply_no_weight="true"
       apply_with_weight="true"
       only_selected="false" />
    <inkscape:path-effect
       effect="bspline"
       id="path-effect43"
       is_visible="true"
       weight="33.333333"
       steps="2"
       helper_size="0"
       apply_no_weight="true"
       apply_with_weight="true"
       only_selected="false" />
    <inkscape:path-effect
       effect="bspline"
       id="path-effect39"
       is_visible="true"
       weight="33.333333"
       steps="2"
       helper_size="0"
       apply_no_weight="true"
       apply_with_weight="true"
       only_selected="false" />
    <inkscape:path-effect
       effect="bspline"
       id="path-effect35"
       is_visible="true"
       weight="33.333333"
       steps="2"
       helper_size="0"
       apply_no_weight="true"
       apply_with_weight="true"
       only_selected="false" />
    <inkscape:path-effect
       effect="bspline"
       id="path-effect31"
       is_visible="true"
       weight="33.333333"
       steps="2"
       helper_size="0"
       apply_no_weight="true"
       apply_with_weight="true"
       only_selected="false" />
    <inkscape:path-effect
       effect="bspline"
       id="path-effect27"
       is_visible="true"
       weight="33.333333"
       steps="2"
       helper_size="0"
       apply_no_weight="true"
       apply_with_weight="true"
       only_selected="false" />
    <inkscape:path-effect
       effect="bspline"
       id="path-effect23"
       is_visible="true"
       weight="33.333333"
       steps="2"
       helper_size="0"
       apply_no_weight="true"
       apply_with_weight="true"
       only_selected="false" />
  </defs>
  <sodipodi:namedview
     id="base"
     pagecolor="#ffffff"
     bordercolor="#666666"
     borderopacity="1.0"
     inkscape:pageopacity="0.0"
     inkscape:pageshadow="2"
     inkscape:zoom="1"
     inkscape:cx="400"
     inkscape:cy="240"
     inkscape:document-units="px"
     inkscape:current-layer="svg8"
     showgrid="false"
     units="px"
     inkscape:window-width="1600"
     inkscape:window-height="821"
     inkscape:window-x="-9"
     inkscape:window-y="-9"
     inkscape:window-maximized="1" />
  <metadata
     id="metadata5">
    <rdf:RDF>
      <cc:Work
         rdf:about="">
        <dc:format>image/svg+xml</dc:format>
        <dc:type
           rdf:resource="http://purl.org/dc/dcmitype/StillImage" />
        <dc:title />
      </cc:Work>
    </rdf:RDF>
  </metadata>
  <g
     inkscape:label="圖層 1"
     inkscape:groupmode="layer"
     id="layer1"
     transform="translate(0,-161.53331)" />
  <path
     style="fill:none;stroke:#000000;stroke-width:1px;stroke-linecap:butt;stroke-linejoin:miter;stroke-opacity:1"
     d="M 856,240 C 856,240 856,240 856,240 Z"
     id="path45"
     inkscape:connector-curvature="0"
     inkscape:path-effect="#path-effect47"
     inkscape:original-d="M 856,240 C 856.001,239.999 856.001,239.999 856,240 Z" />
  <path
     style="opacity:1;fill:#000000"
     d="M 82.13628,435.03646 C 78.26235,429.95747 74.41382,419.63667 73.85374,412.82475 73.38611,407.13722 73.54984,406.52672 76.41921,403.25869 80.1854,398.96923 82.83464,392.38874 86.82355,377.41514 89.87743,365.95147 89.89448,365.74131 90.63693,330.4 91.12729,307.05787 91.90939,291.47525 92.92059,284.9 96.34015,262.66462 99.79414,228.69426 99.32622,221.9 98.56662,210.87044 92.18678,195.39492 84.69122,186.4 79.42963,180.08591 77.32827,176.64868 78.03281,175.50871 78.36567,174.97013 81.21696,173.57013 84.36901,172.39759 87.52105,171.22505 91.45,168.99201 93.1,167.43529 96.87405,163.8746 99.68523,164.67725 102.43633,170.10101 104.3289,173.83218 111.80315,201.86918 113.0956,210.08544 113.86877,215.00061 115.76185,216.51906 124.16043,218.96059 136.63503,222.58706 148.60582,219.53016 164.84697,208.57074 173.14864,202.96883 177.32058,198.58247 178.16052,194.57293 178.46849,193.10282 178.88154,191.09218 179.07842,190.10485 179.68558,187.05995 177.717,175.7132 175.93224,171.97053 173.41165,166.68479 171.50524,166.62367 163.32372,171.56631 156.68703,175.57569 155.64304,175.8958 149.37322,175.84385 144.17136,175.80076 141.95753,175.3126 139.84813,173.74353 136.74351,171.43418 135.83146,168.03096 137.71042,165.76695 139.75416,163.3044 147.39197,159.84923 158.1,156.54319 163.6,154.8451 169.16003,152.70939 170.45563,151.79718 174.24546,149.12882 175.53855,144.3674 176.79057,128.47071 178.22465,110.2624 177.74592,108.4 171.6314,108.4 166.84877,108.4 143.07565,120.32744 133.01152,127.77634 129.57569,130.31935 125.87414,132.4 124.78587,132.4 122.20654,132.4 116.95478,126.35764 113.97824,119.9654 111.32492,114.26729 110.85568,106.80018 112.96928,103.90966 114.25611,102.14982 114.84333,102.11557 122.72079,103.34101 129.47094,104.39108 132.27097,104.40311 137.10151,103.40278 146.51277,101.45387 159.23449,96.67666 169.7436,91.14515 178.53917,86.51557 179.63838,86.17351 182.2436,87.25531 185.90018,88.77368 203.17961,105.50012 204.10561,108.41767 204.59326,109.95411 203.71358,112.96125 201.22504,118.2648 197.17525,126.89564 196.47214,130.03146 193.63036,152.13655 190.21901,178.67209 191.08137,189.4 196.62578,189.4 197.67758,189.4 201.9848,187.15 206.19738,184.4 220.77482,174.88374 218.77501,177.96265 195.43322,200.97249 176.28598,219.84743 168.60802,225.99061 156.02938,232.49977 146.90599,237.22092 143.11822,237.41414 135.6,233.54191 132.575,231.9839 127.34433,229.2896 123.97629,227.55458 116.26579,223.58257 114.0915,223.54886 112.11517,227.37066 111.27027,229.00452 108.7922,240.59202 106.60835,253.12066 104.4245,265.6493 101.66981,281.075 100.48682,287.4 98.6185,297.3892 98.3093,302.97258 98.13324,329.9 97.94289,359.0138 97.76006,361.8431 95.12836,376.4 92.8755,388.86138 92.20597,396.13422 91.71308,413.49878 91.07373,436.02313 90.57884,438.4 86.52845,438.4 85.52378,438.4 83.54731,436.88641 82.13628,435.03646 Z"
     id="path49"
     inkscape:connector-curvature="0" />
  <path
     style="opacity:1;fill:#000000"
     d="M 387.86027,447.41721 C 383.09532,444.51193 376.39106,434.78018 364.6944,413.7901 356.59832,399.26139 354.51362,394.76049 355.30172,393.51109 355.85882,392.6279 358.88299,390.40454 362.0221,388.57028 365.16121,386.73602 368.59874,383.80983 369.66105,382.06763 371.8478,378.48135 372.19982,370.73632 370.62315,360.9 368.93143,350.34597 366.66804,325.7762 364.40499,293.4 362.50703,266.24714 362.18679,252.86071 362.08449,196.4 362.01922,160.375 361.62065,128.85082 361.19879,126.34627 360.63437,122.99531 360.99615,119.42956 362.56852,112.84627 365.09549,102.26614 364.66357,98.47272 360.53656,95.00007 354.29105,89.74482 347.18658,90.334248 334.6,97.15192 316.71108,106.84166 315.41588,107.4 310.82711,107.4 304.57522,107.4 301.1077,104.93843 291.66912,93.79989 285.67859,86.730424 283.6,83.540921 283.6,81.418188 283.6,76.599031 287.08021,76.478523 302.89824,80.749953 309.50821,82.534879 320.26509,81.680169 333.37745,78.328166 343.62799,75.707751 347.40781,73.664701 350.20599,69.232099 352.93708,64.905778 352.87016,64.908962 364.32182,68.560423 370.09799,70.402206 375.6,74.749882 375.6,77.472418 375.6,77.97785 379.425,82.131263 384.1,86.702225 393.93829,96.32157 394.13662,97.05497 389.60336,107.05286 385.76767,115.5123 383.56734,123.08851 379.1924,142.9 372.81374,171.7852 371.47717,182.00729 370.88407,206.44222 370.28335,231.19114 371.34113,251.96532 375.18449,290.9 380.81091,347.89779 384.4905,375.47758 391.12771,410.4 396.40562,438.17027 396.89632,449.40504 392.83095,449.39626 391.87893,449.39421 389.64212,448.50363 387.86027,447.41721 Z"
     id="path51"
     inkscape:connector-curvature="0" />
  <path
     style="opacity:1;fill:#000000"
     d="M 309.3175,142.36694 C 305.05184,141.2965 300.01365,138.87832 299.15522,137.48935 298.84084,136.98067 301.68532,134.50247 305.47629,131.98224 313.10971,126.90756 317.30988,126.19273 322.89966,129.01697 330.91247,133.06545 332.93341,138.14198 327.62508,140.88703 323.86564,142.83111 314.2611,143.60751 309.3175,142.36694 Z"
     id="path53"
     inkscape:connector-curvature="0" />
  <path
     style="opacity:1;fill:#000000"
     d="M 270.1,205.17847 C 265.37473,203.50314 261.97235,200.71314 260.59268,197.38233 259.45269,194.63014 259.63958,193.49946 262.40023,186.44669 267.01084,174.66777 267.97557,167.862 266.53203,157.29873 265.41778,149.14506 265.56478,143.0778 267.19828,129.79939 268.22908,121.42018 265.61694,116.99229 255.21165,109.4806 243.21438,100.81965 241.09175,96.09796 247.92186,93.26481 259.80187,88.33693 280.68988,97.70865 287.12019,110.85174 L 289.85595,116.44343 288.30583,126.17172 C 287.45326,131.52227 286.98763,138.375 287.27109,141.4 288.01446,149.33286 285.02674,170.14402 281.69622,180.23221 277.75643,192.16586 278.19737,192.88348 288.9605,192.05476 293.43723,191.71007 301.375,190.30576 306.6,188.93407 321.36021,185.05916 328.86297,185.91249 336.6,192.34616 338.92529,194.27973 338.97934,194.518 337.37342,195.75562 336.4238,196.48746 331.0238,197.87892 325.37342,198.84776 319.72304,199.81659 308.74048,201.91219 300.96773,203.50464 286.37581,206.49417 275.47775,207.08513 270.1,205.17847 Z"
     id="path55"
     inkscape:connector-curvature="0" />
  <path
     style="opacity:1;fill:#000000"
     d="M 182.81679,363.8393 C 178.25119,360.64143 176.66471,354.62817 172.54339,324.9 167.89824,291.39329 165.47699,285.74029 152.35,277.7536 149.1875,275.82947 146.6,273.8185 146.6,273.28476 146.6,271.30046 155.94681,262.41053 160.19559,260.35373 165.92414,257.58058 170.46253,258.31737 180.5223,263.65369 191.17988,269.30712 193.72266,269.16511 216.80099,261.6277 227.08653,258.26843 238.33653,254.97848 241.80099,254.31672 250.43399,252.66767 251.19541,252.13418 253.1,246.4 254.01688,243.63953 255.59989,240.93525 256.61779,240.39048 261.02824,238.03008 270.09506,240.08752 282.19113,246.1936 288.76166,249.5104 293.38545,254.05361 295.57821,259.34739 296.86958,262.46504 296.77963,262.99136 294.22026,267.2931 289.4392,275.32903 285.48308,284.51111 281.03403,297.89812 274.08139,318.81835 274.19464,327.0831 281.50806,332.49015 283.20863,333.74743 284.6,335.16445 284.6,335.63909 284.6,337.2291 277.95869,339.29918 269.47561,340.35332 260.17482,341.50908 221.51919,350.40417 212.1,353.55608 208.8,354.66035 201.9943,357.77698 196.97623,360.48192 186.92391,365.90052 186.05407,366.10677 182.81679,363.8393 Z M 215.17485,337.00216 C 218.98368,335.68335 226.6,332.79003 232.1,330.57258 237.6,328.35512 243.75808,326.23959 245.78463,325.87139 252.30681,324.6864 253.05035,322.93336 252.77594,309.38803 252.55746,298.60352 252.77119,296.93301 255.06749,291.47723 257.95779,284.61019 258.24174,280.54166 256.11739,276.43363 253.00125,270.40767 247.29401,270.48106 223.05074,276.85883 207.10295,281.05428 197.83832,285.01027 194.74194,288.94668 192.81729,291.39348 192.5891,292.56633 193.1079,297.34531 194.08639,306.35872 198.61164,331.66819 199.78209,334.6737 201.86371,340.0189 205.06408,340.50302 215.17485,337.00216 Z"
     id="path57"
     inkscape:connector-curvature="0" />
</svg>
