<?xml version="1.0" encoding="UTF-8" standalone="no"?>
<!-- Created with Inkscape (http://www.inkscape.org/) -->

<svg
   xmlns:dc="http://purl.org/dc/elements/1.1/"
   xmlns:cc="http://creativecommons.org/ns#"
   xmlns:rdf="http://www.w3.org/1999/02/22-rdf-syntax-ns#"
   xmlns:svg="http://www.w3.org/2000/svg"
   xmlns="http://www.w3.org/2000/svg"
   xmlns:sodipodi="http://sodipodi.sourceforge.net/DTD/sodipodi-0.dtd"
   xmlns:inkscape="http://www.inkscape.org/namespaces/inkscape"
   width="512"
   height="512"
   viewBox="0 0 512 512"
   version="1.1"
   id="svg8"
   inkscape:version="0.92.4 (5da689c313, 2019-01-14)"
   sodipodi:docname="U+5750-3.svg">
  <defs
     id="defs2">
    <inkscape:path-effect
       effect="bspline"
       id="path-effect43"
       is_visible="true"
       weight="33.333333"
       steps="2"
       helper_size="0"
       apply_no_weight="true"
       apply_with_weight="true"
       only_selected="false" />
    <inkscape:path-effect
       effect="bspline"
       id="path-effect39"
       is_visible="true"
       weight="33.333333"
       steps="2"
       helper_size="0"
       apply_no_weight="true"
       apply_with_weight="true"
       only_selected="false" />
    <inkscape:path-effect
       effect="bspline"
       id="path-effect35"
       is_visible="true"
       weight="33.333333"
       steps="2"
       helper_size="0"
       apply_no_weight="true"
       apply_with_weight="true"
       only_selected="false" />
    <inkscape:path-effect
       effect="bspline"
       id="path-effect31"
       is_visible="true"
       weight="33.333333"
       steps="2"
       helper_size="0"
       apply_no_weight="true"
       apply_with_weight="true"
       only_selected="false" />
    <inkscape:path-effect
       effect="bspline"
       id="path-effect27"
       is_visible="true"
       weight="33.333333"
       steps="2"
       helper_size="0"
       apply_no_weight="true"
       apply_with_weight="true"
       only_selected="false" />
    <inkscape:path-effect
       effect="bspline"
       id="path-effect23"
       is_visible="true"
       weight="33.333333"
       steps="2"
       helper_size="0"
       apply_no_weight="true"
       apply_with_weight="true"
       only_selected="false" />
  </defs>
  <sodipodi:namedview
     id="base"
     pagecolor="#ffffff"
     bordercolor="#666666"
     borderopacity="1.0"
     inkscape:pageopacity="0.0"
     inkscape:pageshadow="2"
     inkscape:zoom="1"
     inkscape:cx="400"
     inkscape:cy="280"
     inkscape:document-units="px"
     inkscape:current-layer="svg8"
     showgrid="false"
     units="px"
     inkscape:window-width="1600"
     inkscape:window-height="821"
     inkscape:window-x="-9"
     inkscape:window-y="-9"
     inkscape:window-maximized="1" />
  <metadata
     id="metadata5">
    <rdf:RDF>
      <cc:Work
         rdf:about="">
        <dc:format>image/svg+xml</dc:format>
        <dc:type
           rdf:resource="http://purl.org/dc/dcmitype/StillImage" />
        <dc:title />
      </cc:Work>
    </rdf:RDF>
  </metadata>
  <g
     inkscape:label="圖層 1"
     inkscape:groupmode="layer"
     id="layer1"
     transform="translate(0,-161.53332)" />
  <path
     style="fill:none;stroke:#000000;stroke-width:1px;stroke-linecap:butt;stroke-linejoin:miter;stroke-opacity:1"
     d="M 635,209 C 635,209 635,209 635,209 Z"
     id="path41"
     inkscape:connector-curvature="0"
     inkscape:path-effect="#path-effect43"
     inkscape:original-d="M 635,209 C 635.001,208.999 635.001,208.999 635,209 Z" />
  <path
     style="opacity:1;fill:#000000"
     d="M 129.13748,455.34363 C 124.10528,452.83336 120.9209,449.81914 112.9805,440.05004 106.01526,431.48068 104.82496,427.42034 108.67416,425.36031 110.28318,424.49919 112.24543,424.69029 117.42416,426.21248 121.09587,427.29171 125.55827,428.43831 127.3406,428.76048 131.98648,429.60025 143.84239,427.90305 161.1,423.92775 169.35,422.02735 183.75,418.8392 193.1,416.84298 235.92145,407.7006 237.82348,406.28576 239.65768,382.21056 240.81972,366.95789 240.12357,360.83266 236.85669,357.56578 234.63334,355.34243 233.89798,355.18846 228.2979,355.77379 218.66205,356.78093 210.03414,359.22344 197.44597,364.50779 182.23168,370.89455 179.70896,370.9171 173.41986,364.72257 170.808,362.14998 166.06754,358.66248 162.88551,356.97257 156.23165,353.43884 155.28911,350.95737 158.57711,345.62961 162.06729,339.97422 164.33176,339.66826 172.11773,343.80007 175.84875,345.78003 179.9003,347.4 181.12118,347.4 184.72909,347.4 206.03498,343.53573 221.1,340.14901 240.42053,335.80562 240.6,335.61668 240.6,319.62011 240.6,302.75556 238.8182,282.26929 236.54168,272.95961 233.98758,262.51476 234.02893,261.85889 238.02082,249.49507 239.90227,243.66778 243.0777,230.125 245.07732,219.4 247.07695,208.675 250.10667,195.87332 251.81004,190.95182 254.62544,182.81737 254.88923,180.9986 254.71078,170.95182 254.59436,164.39705 255.31575,153.99987 256.48363,145.4 259.64337,122.13293 259.80677,119.713 258.60802,113.93861 257.20243,107.16793 254.08314,104.27396 246.31775,102.53614 241.91977,101.55192 239.97738,100.45324 237.19968,97.37865 228.33863,87.57053 222.82102,69.064108 228.14833,67.019828 229.00941,66.689401 233.40079,67.877266 237.90696,69.659526 245.44904,72.642536 247.00262,72.9 257.46043,72.9 H 268.82085 L 273.22393,77.761663 C 275.64562,80.435578 279.15207,85.38558 281.01604,88.76166 285.05566,96.07838 291.26917,112.47892 292.19494,118.26833 292.80999,122.11466 292.57082,122.70799 288.7225,126.88293 282.66111,133.45876 275.35043,150.38618 270.45243,169.18611 268.77391,175.62875 264.99194,189.08179 262.04805,199.08175 256.1349,219.16783 250.1185,248.34543 251.09097,252.22004 251.43428,253.58789 252.96788,256.55045 254.49898,258.80352 259.45499,266.09648 259.84313,268.40804 260.55998,294.9 261.28606,321.73286 261.88591,324.93169 266.40429,326.06573 269.35432,326.80614 281.71983,324.27275 294.1,320.39156 299.05,318.83973 304.45,317.30076 306.1,316.97163 312.27805,315.73926 321.83147,320.70085 325.15172,326.86618 326.74617,329.82689 326.79389,330.46244 325.5361,331.98499 322.94919,335.11644 313.67327,338.40718 290.37896,344.45741 277.76236,347.73432 266.58607,350.87227 265.54276,351.43063 261.76042,353.45488 261.42588,355.86344 261.54476,380.21502 261.63813,399.34039 261.94461,404.27699 263.15311,406.12139 264.6268,408.37054 264.93997,408.4029 287.37305,408.62458 316.84204,408.91578 320.36936,408.71568 327.20127,406.36516 339.94933,401.97918 351.08451,404.72438 360.24753,414.51217 375.72503,431.04498 376.6,432.12596 376.6,434.71473 376.6,436.5846 375.79226,437.76634 373.81544,438.78859 366.15332,442.75083 356.34256,441.66526 334.12431,434.39676 313.76199,427.7354 309.20258,427.05514 274.0873,425.43932 250.2006,424.34018 232.91594,425.34529 212.6,429.01485 187.12393,433.61644 173.45272,438.5635 157.33583,449.0127 143.7296,457.83416 137.10956,459.32045 129.13748,455.34363 Z"
     id="path45"
     inkscape:connector-curvature="0" />
  <path
     style="opacity:1;fill:#000000"
     d="M 304.85,272.70909 C 302.60847,271.85595 303.52724,269.05884 307.32727,265.16725 312.28896,260.08602 312.29967,256.22364 307.37968,246.26871 304.01693,239.46466 290.66292,218.72688 285.42455,212.17405 283.40496,209.64769 283.33328,209.06741 284.44548,204.24906 286.29093,196.25416 286.82037,195.97765 293.6662,199.43342 297.52426,201.38096 301.05289,202.4 303.9386,202.4 307.95557,202.4 308.5612,202.05702 310.96901,198.41858 313.81781,194.11375 314.78134,193.73681 324.6,193.08605 330.98886,192.66261 365.22394,183.61418 371.1,180.79596 372.75,180.00461 375.32586,177.62358 376.82413,175.50479 380.28642,170.60855 384.9546,168.4 391.84141,168.4 398.67998,168.4 407.52396,172.59963 414.67904,179.24461 423.54313,187.47676 422.24329,193.40056 409.6,202.39156 402.36456,207.53688 402.38494,207.4961 398.11979,225.36025 393.68743,243.92475 385.92562,257.12759 376.86573,261.51341 372.83064,263.46676 369.84018,263.91858 357.10554,264.4989 345.91772,265.00874 340.65885,265.698 336.43555,267.20806 327.52268,270.3949 307.79636,273.83049 304.85,272.70909 Z M 341.58792,255.33726 C 345.46716,253.68649 351.74913,252.06943 356.66843,251.45534 366.2427,250.26016 369.53187,248.41917 371.23098,243.30449 371.85302,241.43202 373.14376,232.80922 374.09928,224.14271 375.53674,211.10512 375.61663,207.85437 374.56214,205.30859 372.79259,201.03653 369.44121,199.9662 363.70243,201.84033 361.1711,202.66699 352.45948,204.92111 344.34328,206.84947 329.0536,210.48222 324.23755,212.29618 323.28384,214.78153 322.97665,215.58205 323.3704,220.2112 324.15885,225.06851 324.94729,229.92583 325.5941,238.93036 325.59619,245.07857 325.60161,261.00082 326.66926,261.68572 341.58792,255.33726 Z"
     id="path47"
     inkscape:connector-curvature="0" />
  <path
     style="opacity:1;fill:#000000"
     d="M 112.18652,294.8926 C 107.80656,290.83339 105.8107,284.92742 105.09231,273.9 104.73401,268.4 103.37768,259.625 102.07825,254.4 100.77881,249.175 99.4182,242.425 99.05465,239.4 98.18493,232.16317 95.34433,226.2709 91.68244,224.10777 90.05442,223.14608 84.98417,221.8905 80.41521,221.3176 70.18556,220.03491 65.03307,217.83307 59.63934,212.43934 54.75203,207.55203 54.58729,204.64167 59.07652,202.49623 61.70166,201.24166 62.86948,201.28405 68.96891,202.8553 73.11307,203.92286 79.00155,204.58023 83.66163,204.49553 93.08676,204.32425 97.03007,205.60339 105.91321,211.71359 114.80711,217.83119 118.20778,217.9262 130.48071,212.4 135.3666,210.2 139.79737,208.4 140.32685,208.4 143.97632,208.4 153.36196,203.96951 158.74647,199.70503 167.30311,192.92826 170.58522,191.4 176.58246,191.4 185.40661,191.4 193.57363,196.13529 198.70517,204.22689 202.67668,210.48932 202.43095,212.28189 196.97585,216.84179 190.2923,222.42854 188.73718,226.7625 187.55522,243.09607 186.69573,254.97337 186.17282,257.66413 183.80866,262.37486 179.17704,271.60364 170.03827,275.97234 144.06582,281.37355 136.05053,283.04041 128.16907,285.0886 126.55147,285.92509 124.80112,286.83024 122.58931,289.46099 121.08835,292.42299 118.19559,298.13158 116.26066,298.66839 112.18652,294.8926 Z M 142.44673,267.83869 C 156.15656,263.25848 160.00645,260.98853 161.75601,256.45363 163.22226,252.65309 168.6,226.00569 168.6,222.54078 168.6,218.03993 165.04911,215.96658 158.85182,216.84887 149.76539,218.14247 134.06669,222.47061 128.64468,225.17699 120.15182,229.41618 119.45879,230.91978 119.51859,244.97697 119.57561,258.38218 120.4218,268.04546 121.76672,270.65 123.18668,273.39989 127.59387,272.80076 142.44673,267.83869 Z"
     id="path49"
     inkscape:connector-curvature="0" />
</svg>
