<?xml version="1.0" encoding="UTF-8" standalone="no"?>
<!-- Created with Inkscape (http://www.inkscape.org/) -->

<svg
   xmlns:dc="http://purl.org/dc/elements/1.1/"
   xmlns:cc="http://creativecommons.org/ns#"
   xmlns:rdf="http://www.w3.org/1999/02/22-rdf-syntax-ns#"
   xmlns:svg="http://www.w3.org/2000/svg"
   xmlns="http://www.w3.org/2000/svg"
   xmlns:sodipodi="http://sodipodi.sourceforge.net/DTD/sodipodi-0.dtd"
   xmlns:inkscape="http://www.inkscape.org/namespaces/inkscape"
   width="512"
   height="512"
   viewBox="0 0 512 512"
   version="1.1"
   id="svg8"
   inkscape:version="0.92.4 (5da689c313, 2019-01-14)"
   sodipodi:docname="U+5782-3.svg">
  <defs
     id="defs2">
    <inkscape:path-effect
       effect="bspline"
       id="path-effect31"
       is_visible="true"
       weight="33.333333"
       steps="2"
       helper_size="0"
       apply_no_weight="true"
       apply_with_weight="true"
       only_selected="false" />
    <inkscape:path-effect
       effect="bspline"
       id="path-effect27"
       is_visible="true"
       weight="33.333333"
       steps="2"
       helper_size="0"
       apply_no_weight="true"
       apply_with_weight="true"
       only_selected="false" />
    <inkscape:path-effect
       effect="bspline"
       id="path-effect23"
       is_visible="true"
       weight="33.333333"
       steps="2"
       helper_size="0"
       apply_no_weight="true"
       apply_with_weight="true"
       only_selected="false" />
  </defs>
  <sodipodi:namedview
     id="base"
     pagecolor="#ffffff"
     bordercolor="#666666"
     borderopacity="1.0"
     inkscape:pageopacity="0.0"
     inkscape:pageshadow="2"
     inkscape:zoom="1"
     inkscape:cx="210.12742"
     inkscape:cy="280"
     inkscape:document-units="px"
     inkscape:current-layer="svg8"
     showgrid="false"
     units="px"
     inkscape:window-width="1600"
     inkscape:window-height="821"
     inkscape:window-x="-9"
     inkscape:window-y="-9"
     inkscape:window-maximized="1" />
  <metadata
     id="metadata5">
    <rdf:RDF>
      <cc:Work
         rdf:about="">
        <dc:format>image/svg+xml</dc:format>
        <dc:type
           rdf:resource="http://purl.org/dc/dcmitype/StillImage" />
        <dc:title />
      </cc:Work>
    </rdf:RDF>
  </metadata>
  <g
     inkscape:label="圖層 1"
     inkscape:groupmode="layer"
     id="layer1"
     transform="translate(0,-161.53332)" />
  <path
     style="opacity:1;fill:#000000"
     d="M 122.6,392.53661 C 122.6,391.803 127.0014,386.46474 140.1,371.31164 160.32459,347.91485 165.45327,337.12067 162.27054,324.65 161.49855,321.62513 161.61526,321.4 163.95545,321.4 170.5975,321.4 175.44599,325.21773 179.83032,333.9 184.55217,343.25064 188.54505,348.19782 194.67265,352.28968 203.34419,358.08031 207.80256,358.98807 218.19709,357.07944 222.92774,356.21081 227.87951,354.79165 229.20102,353.92577 235.44781,349.83271 239.43812,338.6573 244.6508,310.65656 250.34668,280.06021 250.34855,279.03051 244.7127,276.67021 234.47836,272.38406 186.86659,284.55549 127.60339,306.60794 98.288672,317.51625 92.641141,320.30646 87.474298,326.43403 81.805795,333.15653 75.248547,336.25932 65.058785,337.04071 53.709905,337.91097 47.103921,335.94754 26.780991,325.66375 8.9926933,316.66253 6.1560476,314.43024 4.9699117,308.49956 4.0582101,303.94105 6.4963718,303.5798 16.004229,306.86465 28.883138,311.31415 41.879502,311.48884 61.1,307.47078 69.35,305.74611 88.19251,301.86655 102.97224,298.84953 145.68478,290.13054 178.10573,281.22937 185.63731,276.15384 190.72928,272.72237 192.21003,267.86986 190.91285,258.86569 188.42128,241.57086 179.80897,234.39988 168.1,239.87073 165.86714,240.91401 159.68215,246.28963 154.1,252.03871 143.39415,263.06469 139.55456,265.4 132.13212,265.4 126.3712,265.4 124.21918,263.33827 121.99624,255.68938 121.07086,252.50522 118.57813,245.57343 116.45686,240.28541 110.51906,225.48334 111.37118,218.4 119.08964,218.4 124.03878,218.4 125.48167,219.24772 127.6,223.4 128.65314,225.46433 130.24578,227.43383 131.13919,227.77667 134.0257,228.88432 140.26099,228.44494 151.29924,226.35605 171.31131,222.56895 176.6,220.41689 176.6,216.06074 176.6,212.56788 172.68996,205.75315 167.07587,199.46132 164.10524,196.13208 161.22535,192.56848 160.67611,191.54222 159.21764,188.81703 161.58874,186.06667 165.39663,186.06667 168.90538,186.06667 180.80129,193.46627 192.05471,202.64878 200.58639,209.61042 202.77102,209.84979 212.6,204.9 220.86932,200.73564 223.88585,200.37942 223.41955,203.62232 223.17316,205.33584 221.41596,206.5461 215.7446,208.90838 202.28281,214.51561 197.53657,222.21389 200.08173,234.31315 200.84976,237.96421 201.95736,247.32025 202.54307,255.10436 203.68552,270.28754 204.02323,271.96469 206.09835,272.76099 207.51489,273.30457 229.30322,271.03046 238.52233,269.3768 248.79891,267.53347 251.60734,263.67513 252.36672,250.35677 252.77061,243.27321 252.37531,239.73065 250.13595,230.36526 248.07895,221.76252 247.39434,216.28647 247.33255,207.94143 247.20127,190.21097 248.38025,166.19179 249.56795,162.4 252.36697,153.46395 250.27547,142.4 245.78719,142.4 240.76762,142.4 224.33643,148.77172 215.58582,154.11154 207.33761,159.14478 205.44765,159.89761 201.1,159.88171 193.74007,159.85479 189.26201,157.23473 185.65631,150.84578 183.48428,146.99716 181.0753,144.48612 177.14017,141.96885 170.88245,137.96583 169.65182,135.17821 171.73086,129.71571 173.97336,123.82373 175.91252,123.33576 180.32391,127.55334 186.34913,133.31386 188.07982,133.89837 198.6,133.72584 214.15384,133.47076 234.60188,127.37916 238.16661,121.93869 240.09512,118.99541 239.8987,117.99741 235.17356,106.73155 233.75061,103.33891 232.30244,97.713908 231.9554,94.231554 231.05912,85.238026 230.44647,84.396174 224.81482,84.419675 222.22167,84.430496 216.5,85.089796 212.1,85.884787 207.7,86.679777 200.275,87.326035 195.6,87.320916 L 187.1,87.311608 190.88205,85.315474 C 192.96217,84.2176 201.26156,81.040368 209.32514,78.254958 239.32385,67.892471 269.49393,52.7124 292.6,36.355217 297.825,32.65635 304.9125,28.221776 308.35,26.500607 315.94767,22.696426 316.15318,21.4781 310.6,13.162142 306.31537,6.745865 305.65586,3.9762773 308.18179,3.0069888 311.28167,1.8174521 326.64051,2.3900869 330.07012,3.8230671 334.97696,5.8732762 339.60095,12.657701 339.59626,17.800038 339.59147,23.055654 337.70522,25.949164 327.44664,36.437599 319.91236,44.140701 318.26551,45.304004 310.59807,48.339152 305.92413,50.189327 296.025,54.290411 288.6,57.452672 281.175,60.614932 269.02901,65.544128 261.60891,68.40644 234.27063,78.952218 230.25085,82.668685 235.69863,92.361691 236.85287,94.415391 240.0255,97.85166 242.74891,99.997845 245.47232,102.14403 249.96584,106.49554 252.7345,109.66787 261.96926,120.24904 266.30478,120.65667 286.1,112.80489 294.48245,109.47999 299.60731,108.02322 303.1,107.97255 307.95389,107.90212 308.10868,107.98861 308.39711,110.9322 308.76976,114.73525 305.30083,120.08658 300.73389,122.75381 298.88626,123.83288 292.58779,126.45295 286.73729,128.57618 272.32605,133.80621 270.00345,136.15194 268.03415,147.46552 267.22667,152.10448 264.11416,164.45 261.11746,174.9 253.16591,202.62846 252.38259,206.46768 253.58345,211.82613 254.13852,214.30297 255.9664,219.78766 257.64542,224.01433 261.1715,232.89074 263.13225,241.02431 264.10666,250.81685 265.28484,262.65725 266.45606,263.74614 279.98343,265.57762 289.54259,266.87184 342.36079,266.13116 367.6,264.34896 386.34972,263.02499 431.67567,264.53433 444.17746,266.89896 458.09282,269.53095 481.59436,280.12195 490.06529,287.57836 501.2272,297.40347 490.25466,303.93469 472.03874,298.30836 468.31418,297.15796 457.39641,292.64584 447.77703,288.28142 418.19004,274.85748 412.05861,273.09985 381.6,269.3112 365.17453,267.26808 361.39833,267.17207 320.1,267.74757 293.84766,268.11339 274.5836,268.792 272.34054,269.42997 270.27284,270.01806 267.91016,271.5232 267.09014,272.77471 266.27011,274.02623 264.48245,282.62393 263.11755,291.88071 259.15322,318.76705 256.53583,326.41908 246.69984,339.87859 241.26824,347.31116 240.4108,350.69319 243.53426,352.36482 246.69342,354.05555 249.85635,353.64926 277.6,347.989 309.05059,341.57244 313.5743,340.95007 322.1147,341.86467 329.58786,342.66498 329.85882,343.85389 322.75967,344.69468 320.06535,345.01379 311.897,347.57983 304.60777,350.397 291.52505,355.45326 284.36322,357.35842 263.40122,361.3586 248.35904,364.22911 238.10461,367.63444 223.1,374.742 211.54441,380.21579 209.41452,380.9 203.93056,380.9 196.16717,380.9 193.95297,379.04314 190.14614,369.34015 188.64043,365.50235 186.08406,361.03791 184.46533,359.41918 181.37931,356.33316 176.19294,354.75964 172.72999,355.85874 171.60585,356.21553 164.02922,363.12616 155.89305,371.2157 146.84535,380.21154 139.14297,386.96698 136.06106,388.60952 131.00697,391.30315 122.6,393.75578 122.6,392.53661 Z"
     id="path33"
     inkscape:connector-curvature="0" />
  <path
     style="opacity:1;fill:#000000"
     d="M 288.6,250.75831 C 288.6,250.40538 291.03588,246.24288 294.01307,241.50831 301.09216,230.25057 311.6,211.27229 311.6,209.74444 311.6,207.42838 308.68828,205.66937 303.77573,205.0177 298.07656,204.26168 294.11155,201.5743 293.17198,197.83077 292.2197,194.0366 293.27402,191.77767 296.64977,190.37938 299.75481,189.09323 302.44381,189.36174 311.45329,191.85755 315.97852,193.11114 317.30054,193.13414 319.99998,192.00624 326.1653,189.4302 330.5806,181.76352 330.59442,173.61016 330.6004,170.08285 328.07172,164.44828 323.46315,157.71982 321.88842,155.42073 320.6,153.02247 320.6,152.39037 320.6,149.47207 335.99399,155.73487 342.87902,161.45424 347.75447,165.50425 350.6,171.15804 350.6,176.79506 350.6,179.25617 351.05726,182.47248 351.61613,183.94242 352.75674,186.94245 353.7968,186.94666 365.1,183.99699 379.32188,180.28567 394.07954,183.48745 401.45156,191.88371 408.72053,200.16262 402.66171,203.43294 386.6,199.9 383.025,199.11364 377.625,198.44372 374.6,198.41127 371.575,198.37883 367.525,197.9311 365.6,197.41632 352.74935,193.97979 352.9155,193.99231 344.34589,195.81504 332.30193,198.37675 328.41194,200.45443 319.58007,209.04266 311.9482,216.464 311.46069,217.21859 306.92772,228.62672 302.06617,240.86176 297.76939,247.2268 292.54929,249.92622 289.40934,251.54995 288.6,251.72048 288.6,250.75831 Z"
     id="path35"
     inkscape:connector-curvature="0" />
  <path
     style="opacity:1;fill:#000000"
     d="M 375.97039,382.15 C 372.15893,379.59889 369.17779,375.94142 362.10738,365.14189 339.52141,330.64349 328.81523,312.85144 329.95581,311.71086 331.62611,310.04056 351.31619,324.98177 363.1,336.86132 368.05,341.85153 373.97904,348.75968 376.27565,352.21277 381.91549,360.69261 386.71314,372.55616 387.35206,379.60234 L 387.87778,385.4 H 384.3519 C 382.03669,385.4 379.15878,384.28407 375.97039,382.15 Z"
     id="path37"
     inkscape:connector-curvature="0" />
</svg>
