<?xml version="1.0" encoding="UTF-8" standalone="no"?>
<!-- Created with Inkscape (http://www.inkscape.org/) -->

<svg
   xmlns:dc="http://purl.org/dc/elements/1.1/"
   xmlns:cc="http://creativecommons.org/ns#"
   xmlns:rdf="http://www.w3.org/1999/02/22-rdf-syntax-ns#"
   xmlns:svg="http://www.w3.org/2000/svg"
   xmlns="http://www.w3.org/2000/svg"
   xmlns:sodipodi="http://sodipodi.sourceforge.net/DTD/sodipodi-0.dtd"
   xmlns:inkscape="http://www.inkscape.org/namespaces/inkscape"
   width="512"
   height="512"
   viewBox="0 0 512 512"
   version="1.1"
   id="svg8"
   inkscape:version="0.92.4 (5da689c313, 2019-01-14)"
   sodipodi:docname="U+620E-3.svg">
  <defs
     id="defs2">
    <inkscape:path-effect
       only_selected="false"
       apply_with_weight="true"
       apply_no_weight="true"
       helper_size="0"
       steps="2"
       weight="33.333333"
       is_visible="true"
       id="path-effect49"
       effect="bspline" />
    <inkscape:path-effect
       effect="bspline"
       id="path-effect39"
       is_visible="true"
       weight="33.333333"
       steps="2"
       helper_size="0"
       apply_no_weight="true"
       apply_with_weight="true"
       only_selected="false" />
    <inkscape:path-effect
       effect="bspline"
       id="path-effect35"
       is_visible="true"
       weight="33.333333"
       steps="2"
       helper_size="0"
       apply_no_weight="true"
       apply_with_weight="true"
       only_selected="false" />
    <inkscape:path-effect
       effect="bspline"
       id="path-effect31"
       is_visible="true"
       weight="33.333333"
       steps="2"
       helper_size="0"
       apply_no_weight="true"
       apply_with_weight="true"
       only_selected="false" />
    <inkscape:path-effect
       effect="bspline"
       id="path-effect27"
       is_visible="true"
       weight="33.333333"
       steps="2"
       helper_size="0"
       apply_no_weight="true"
       apply_with_weight="true"
       only_selected="false" />
    <inkscape:path-effect
       effect="bspline"
       id="path-effect23"
       is_visible="true"
       weight="33.333333"
       steps="2"
       helper_size="0"
       apply_no_weight="true"
       apply_with_weight="true"
       only_selected="false" />
  </defs>
  <sodipodi:namedview
     id="base"
     pagecolor="#ffffff"
     bordercolor="#666666"
     borderopacity="1.0"
     inkscape:pageopacity="0.0"
     inkscape:pageshadow="2"
     inkscape:zoom="1"
     inkscape:cx="153"
     inkscape:cy="200"
     inkscape:document-units="px"
     inkscape:current-layer="svg8"
     showgrid="false"
     units="px"
     inkscape:window-width="1600"
     inkscape:window-height="821"
     inkscape:window-x="-9"
     inkscape:window-y="-9"
     inkscape:window-maximized="1" />
  <metadata
     id="metadata5">
    <rdf:RDF>
      <cc:Work
         rdf:about="">
        <dc:format>image/svg+xml</dc:format>
        <dc:type
           rdf:resource="http://purl.org/dc/dcmitype/StillImage" />
        <dc:title />
      </cc:Work>
    </rdf:RDF>
  </metadata>
  <g
     inkscape:label="圖層 1"
     inkscape:groupmode="layer"
     id="layer1"
     transform="translate(0,-161.53331)" />
  <path
     style="fill:none;stroke:#000000;stroke-width:1px;stroke-linecap:butt;stroke-linejoin:miter;stroke-opacity:1"
     d="M 879,186 C 879,186 879,186 879,186 Z"
     id="path37"
     inkscape:connector-curvature="0"
     inkscape:path-effect="#path-effect39"
     inkscape:original-d="M 879,186 C 879.001,185.999 879.001,185.999 879,186 Z" />
  <path
     style="opacity:1;fill:#000000"
     d="M 361.81732,103.11133 C 360.68506,101.8951 357.10271,95.26899 353.85656,88.38665 346.84514,73.52138 343.78115,69.77721 332.85,62.716841 328.3125,59.786095 324.6,56.692902 324.6,55.843079 324.6,51.489478 340.10791,49.48012 347.09157,52.928851 352.06149,55.383138 368.90527,75.07054 371.24236,81.15686 373.23867,86.3557 372.61283,93.49436 369.65195,99.29817 366.83522,104.81942 364.4763,105.96752 361.81732,103.11133 Z"
     id="path41"
     inkscape:connector-curvature="0" />
  <path
     style="opacity:1;fill:#000000"
     d="M 430.1,470.54012 C 419.40736,464.68705 402.63822,453.84498 397.48012,449.44978 394.93918,447.28466 387.67739,438.40023 381.3428,429.7066 359.15182,399.25157 343.77507,374.21569 327.41298,341.9 314.45626,316.31004 310.92175,311.46592 305.17486,311.42224 302.71307,311.40352 300.19802,313.54051 289.29762,324.91276 266.95522,348.22232 252.0999,355.4413 238.85105,349.4274 232.79095,346.67661 231.85556,344.00563 234.48817,336.96934 235.64968,333.86494 236.6,330.44186 236.6,329.36249 236.6,326.86262 237.20259,326.89607 243.72557,329.75806 259.1908,336.54351 262.75723,334.79701 282.90716,310.57058 293.29051,298.08659 296.0342,292.91314 295.36437,287.08156 295.10019,284.7817 287.66553,265.575 278.84289,244.4 270.02026,223.225 260.43809,200.05 257.54919,192.9 246.47758,165.49787 243.59248,160.7515 238.61299,161.7474 237.11424,162.04715 229.18569,165.30208 220.99399,168.98056 212.8023,172.65905 198.9,178.4804 190.1,181.91688 181.3,185.35337 170.65004,189.56791 166.43341,191.28252 162.21679,192.99713 157.04179,194.39297 154.93341,194.38438 149.0344,194.36034 140.28497,191.99146 135.29562,189.06751 130.12159,186.03533 115.38591,170.57596 113.1218,165.80471 110.80334,160.9189 111.14754,155.17369 113.91445,152.57431 117.01362,149.66279 118.14218,149.78608 128.33829,154.15 L 137.1,157.9 151.1,157.80239 C 163.72237,157.71438 166.42843,157.3577 178.6,154.1777 201.31156,148.24396 224.22079,138.69499 229.6,132.91999 233.73793,128.47761 232.95992,123.55747 224.85302,102.9 220.96783,93 216.66376,81.3 215.28844,76.9 213.91311,72.5 210.97966,64.4 208.76965,58.9 202.08639,42.26751 199.27673,31.107249 199.85117,23.474835 200.36112,16.699251 203.84124,7.3016193 207.01613,4.126727 211.26027,-0.117414 220.38682,3.668485 230.1,13.702439 233.95,17.679583 239.68387,23.086347 242.84193,25.717468 245.99999,28.34859 249.08382,31.435514 249.69489,32.577301 250.79476,34.632427 250.71028,34.646106 241.28322,33.939331 L 231.76052,33.225385 230.02133,35.879727 C 228.36856,38.402164 228.36967,39.164333 230.04364,51.217034 234.06727,80.18756 240.32446,109.04486 244.22793,116.63307 247.33624,122.67552 255.3799,123.98194 264.0938,119.85961 270.44185,116.8565 275.01631,111.96869 278.18547,104.80266 282.91528,94.107708 290.61662,88.260292 297.13798,90.412533 301.39659,91.818001 302.06423,93.962756 300.07083,99.834159 296.67484,109.83684 291.52194,117.01418 274.41843,135.56475 267.99357,142.5332 262.03107,149.59951 261.16843,151.26767 258.877,155.69881 259.19576,159.23776 263.19195,173.73352 273.17212,209.93559 292.47091,256.03636 301.17895,264.47652 307.87766,270.96916 310.70105,267.20669 323.48172,234.75569 334.73541,206.18178 336.45732,196.45676 333.01745,180.9 329.74909,166.11891 329.97908,164.52537 335.19195,165.83372 338.28963,166.61119 354.67849,182.71023 357.05519,187.31034 360.40068,193.78552 359.04085,199.27693 346.85207,228.51384 335.40842,255.96342 329.35925,268.81736 322.79014,279.64322 320.70201,283.08445 318.39539,287.37459 317.66433,289.17686 315.70156,294.01558 316.78455,304.6445 319.96496,311.75622 325.8301,324.8713 349.64785,362.58618 370.89321,392.4 392.56695,422.81498 395.60735,426.4 399.72807,426.4 403.34146,426.4 405.85081,422.78731 411.12998,409.98478 417.13531,395.42125 418.32266,396.19384 420.4591,416.05508 422.08594,431.17884 427.98573,442.82522 441.56841,457.72555 449.11065,465.99945 450.33131,469.52321 446.77126,472.74501 443.6665,475.55478 437.85745,474.78649 430.1,470.54012 Z"
     id="path43"
     inkscape:connector-curvature="0" />
  <path
     style="opacity:1;fill:#000000"
     d="M 168.97393,392.99076 C 161.98351,385.77355 160.81886,381.84907 162.46216,371.04823 163.144,366.5667 164.10832,354.04513 164.6051,343.22251 165.10188,332.39989 166.23806,319.65077 167.12993,314.89114 168.80255,305.96495 168.62534,303.4 166.33601,303.4 165.6063,303.4 156.92967,307.96071 147.05463,313.53492 117.28876,330.33698 112.96651,332.01064 106.09141,329.39674 103.30171,328.33609 82.56581,308.07316 80.69733,304.58186 79.0905,301.57947 79.34431,299.48075 81.98915,293.9 84.61694,288.35523 87.96422,284.4 90.02892,284.4 90.77198,284.4 93.8669,286.84754 96.90652,289.83899 106.90979,299.6837 112.91704,299.66671 139.16809,289.71942 164.2002,280.23403 165.83827,278.25838 158.08844,266.9 151.23983,256.86249 146.46524,252.36823 140.65597,250.49106 137.66176,249.52353 134.7611,248.01718 134.21007,247.14361 132.44509,244.34554 135.05192,240.81525 141.04999,237.88066 147.56399,234.69366 148.58663,234.76485 164.93954,239.54379 180.61154,244.12373 185.77906,249.46174 184.10915,259.34587 183.28316,264.23482 184.84506,267.4 188.08356,267.4 191.91031,267.4 206.07268,262.60263 208.96706,260.32591 212.23761,257.7533 212.23272,257.3494 208.8502,250.66916 206.15589,245.34808 206.13957,245.20985 208.04133,243.81924 211.08075,241.59676 226.00974,241.94902 231.34093,244.36901 236.69172,246.79789 239.19183,251.43174 238.14942,256.98825 236.8354,263.9926 223.74594,274.7693 198.63926,289.51743 184.68355,297.71527 182.47841,304.45069 184.32982,333.22456 185.47608,351.03937 184.43212,385.54279 182.53232,392.63299 181.52671,396.38598 179.23576,398.4 175.97234,398.4 175.00481,398.4 171.85553,395.96584 168.97393,392.99076 Z"
     id="path45"
     inkscape:connector-curvature="0" />
</svg>
