<?xml version="1.0" encoding="UTF-8" standalone="no"?>
<!-- Created with Inkscape (http://www.inkscape.org/) -->

<svg
   xmlns:dc="http://purl.org/dc/elements/1.1/"
   xmlns:cc="http://creativecommons.org/ns#"
   xmlns:rdf="http://www.w3.org/1999/02/22-rdf-syntax-ns#"
   xmlns:svg="http://www.w3.org/2000/svg"
   xmlns="http://www.w3.org/2000/svg"
   xmlns:sodipodi="http://sodipodi.sourceforge.net/DTD/sodipodi-0.dtd"
   xmlns:inkscape="http://www.inkscape.org/namespaces/inkscape"
   width="512"
   height="512"
   viewBox="0 0 512 512"
   version="1.1"
   id="svg8"
   inkscape:version="0.92.4 (5da689c313, 2019-01-14)"
   sodipodi:docname="U+6E6F-3.svg">
  <defs
     id="defs2">
    <inkscape:path-effect
       effect="bspline"
       id="path-effect47"
       is_visible="true"
       weight="33.333333"
       steps="2"
       helper_size="0"
       apply_no_weight="true"
       apply_with_weight="true"
       only_selected="false" />
    <inkscape:path-effect
       effect="bspline"
       id="path-effect43"
       is_visible="true"
       weight="33.333333"
       steps="2"
       helper_size="0"
       apply_no_weight="true"
       apply_with_weight="true"
       only_selected="false" />
    <inkscape:path-effect
       effect="bspline"
       id="path-effect39"
       is_visible="true"
       weight="33.333333"
       steps="2"
       helper_size="0"
       apply_no_weight="true"
       apply_with_weight="true"
       only_selected="false" />
    <inkscape:path-effect
       effect="bspline"
       id="path-effect35"
       is_visible="true"
       weight="33.333333"
       steps="2"
       helper_size="0"
       apply_no_weight="true"
       apply_with_weight="true"
       only_selected="false" />
    <inkscape:path-effect
       effect="bspline"
       id="path-effect31"
       is_visible="true"
       weight="33.333333"
       steps="2"
       helper_size="0"
       apply_no_weight="true"
       apply_with_weight="true"
       only_selected="false" />
    <inkscape:path-effect
       effect="bspline"
       id="path-effect27"
       is_visible="true"
       weight="33.333333"
       steps="2"
       helper_size="0"
       apply_no_weight="true"
       apply_with_weight="true"
       only_selected="false" />
    <inkscape:path-effect
       effect="bspline"
       id="path-effect23"
       is_visible="true"
       weight="33.333333"
       steps="2"
       helper_size="0"
       apply_no_weight="true"
       apply_with_weight="true"
       only_selected="false" />
  </defs>
  <sodipodi:namedview
     id="base"
     pagecolor="#ffffff"
     bordercolor="#666666"
     borderopacity="1.0"
     inkscape:pageopacity="0.0"
     inkscape:pageshadow="2"
     inkscape:zoom="1"
     inkscape:cx="43.407404"
     inkscape:cy="240"
     inkscape:document-units="px"
     inkscape:current-layer="svg8"
     showgrid="false"
     units="px"
     inkscape:window-width="1600"
     inkscape:window-height="821"
     inkscape:window-x="-9"
     inkscape:window-y="-9"
     inkscape:window-maximized="1" />
  <metadata
     id="metadata5">
    <rdf:RDF>
      <cc:Work
         rdf:about="">
        <dc:format>image/svg+xml</dc:format>
        <dc:type
           rdf:resource="http://purl.org/dc/dcmitype/StillImage" />
        <dc:title />
      </cc:Work>
    </rdf:RDF>
  </metadata>
  <g
     inkscape:label="圖層 1"
     inkscape:groupmode="layer"
     id="layer1"
     transform="translate(0,-161.53331)" />
  <path
     style="fill:none;stroke:#000000;stroke-width:1px;stroke-linecap:butt;stroke-linejoin:miter;stroke-opacity:1"
     d="M 727,201 C 727,201 727,201 727,201 Z"
     id="path45"
     inkscape:connector-curvature="0"
     inkscape:path-effect="#path-effect47"
     inkscape:original-d="M 727,201 C 727.001,200.999 727.001,200.999 727,201 Z" />
  <path
     style="opacity:1;fill:#000000"
     d="M 125.60886,142.11014 C 121.77856,140.17223 122.0716,138.03818 126.59882,134.90082 132.21436,131.00924 136.6,125.79062 136.6,123.00006 136.6,118.93318 132.81811,115.63439 122.22426,110.46068 112.34364,105.6353 111.48664,104.95025 101.33696,93.76409 89.97582,81.24277 86.89611,76.67668 87.95347,73.92125 88.4807,72.54731 89.33573,72.31544 92.01886,72.8188 96.94981,73.74385 137.00752,88.95271 142.76166,92.0845 152.90335,97.6043 160.54271,108.70097 163.1879,121.75496 166.19648,136.6023 166.41673,134.92609 161.00639,138.35723 158.34585,140.04449 154.57851,141.86685 152.63452,142.40692 147.48658,143.83707 128.6125,143.62981 125.60886,142.11014 Z"
     id="path49"
     inkscape:connector-curvature="0" />
  <path
     style="opacity:1;fill:#000000"
     d="M 95.619262,257.4 C 95.544504,246.09931 92.175392,237.11773 82.20555,221.64093 75.897854,211.8491 73.736544,207.25579 69.387748,194.4 63.576251,177.22021 63.656299,177.96387 67.703943,178.75718 73.059628,179.80685 86.507753,186.66622 93.334944,191.83055 101.03996,197.65891 104.85914,202.04491 113.68732,215.20346 123.76539,230.22499 123.26479,233.47195 109.19754,244.32475 105.08606,247.49673 102.79475,250.36831 99.718805,256.20397 L 95.662261,263.9 Z"
     id="path51"
     inkscape:connector-curvature="0" />
  <path
     style="opacity:1;fill:#000000"
     d="M 86.73191,431.04041 C 84.77171,428.95388 84.53437,427.70762 84.68088,420.27081 84.772,415.64531 84.30133,409.39462 83.63495,406.3804 82.63824,401.872 82.70506,398.89862 84.01168,389.61562 84.88525,383.40921 85.6,375.49671 85.6,372.03228 85.6,368.56786 85.90095,365.43238 86.26878,365.06455 86.63661,364.69673 88.00859,366.28136 89.31763,368.58597 92.81102,374.73619 101.64152,384.97397 105.13925,386.92903 109.92039,389.60144 111.75719,388.61945 115.1,381.60385 126.4664,357.74898 163.83812,283.30478 164.24355,283.71022 164.5179,283.98457 161.7727,293.64972 158.1431,305.18835 150.53752,329.36682 145.7088,347.73695 138.63605,379.4 133.02465,404.52092 132.63134,409.09661 135.66196,414.00026 137.64106,417.20251 137.65606,417.47961 136.03511,420.89549 132.63605,428.05848 126.21582,430.22656 118.25424,426.9 112.78242,424.61373 109.98684,425.04637 102.1,429.4 93.73207,434.0192 89.91328,434.42682 86.73191,431.04041 Z"
     id="path53"
     inkscape:connector-curvature="0" />
  <path
     style="opacity:1;fill:#000000"
     d="M 284.28107,468.93821 C 281.94073,466.59787 282.15459,461.59614 285.18786,447.73 288.76493,431.37801 288.27724,425.90331 282.17897,413.95292 277.04196,403.88625 276.64741,401.83711 279.66194,400.88034 282.98879,399.82444 291.26941,404.67333 301.1,413.43385 312.34156,423.45174 315.45524,424.54452 322.89781,421.08403 328.48448,418.48646 353.78522,399.44685 370.1,385.5629 384.36336,373.42471 447.26281,310.7249 450.27588,305.64151 458.78802,291.28051 444.63,279.04958 415.2236,275.36031 402.43377,273.75572 388.23528,274.56324 382.76463,277.20637 377.5062,279.74697 367.4196,288.49027 356.6162,299.87245 351.93229,304.80729 340.21939,316.73229 330.58753,326.37245 320.95567,336.0126 301.90156,355.49307 288.24506,369.66237 261.40785,397.50733 249.22111,408.40954 232.1,419.88955 212.70421,432.89476 192.82316,440.97645 186.33207,438.4943 180.99678,436.45413 180.23179,427.52999 184.9605,422.4939 186.30007,421.06726 188.26719,418.4414 189.33188,416.65867 L 191.26767,413.41734 193.59376,415.89336 C 201.55169,424.36419 222.77833,415.57752 252.39489,391.55291 268.07604,378.83254 286.84622,361.16583 324.2619,323.91087 359.81702,288.50847 365.6,282.04367 365.6,277.69893 365.6,274.43601 360.51185,272.39836 352.38212,272.40558 345.14657,272.412 340.28186,273.58044 332.76009,277.11853 L 327.42018,279.63031 323.71793,276.01515 C 319.65431,272.04714 317.90971,271.67136 313.6876,273.8547 312.1404,274.65479 299.25488,287.26646 285.05309,301.88064 247.07963,340.95678 226.42409,359.12742 212.12821,366.03253 200.39853,371.69813 195.96584,370.35163 196.82745,361.3847 197.41751,355.24379 199.37158,352.94675 205.2687,351.46184 212.15651,349.72747 221.61942,344.60988 237.29249,334.14322 257.55161,320.61393 271.13427,309.77208 286.34009,294.99277 299.90405,281.80928 305.6,274.6982 305.6,270.94784 305.6,269.32057 307.30425,267.99528 313.05795,265.14828 322.13148,260.65858 324.54019,257.63458 322.69535,253.04907 320.33915,247.19249 320.38005,246.48003 323.50313,238.97804 325.21826,234.85813 326.90167,228.80717 327.24405,225.53147 327.81787,220.04147 327.66415,219.37324 325.27873,216.98782 323.22638,214.93547 321.71477,214.4 317.97338,214.4 311.32574,214.4 296.76555,217.27507 292.56748,219.41667 288.22344,221.63274 286.91854,223.99079 284.21715,234.50626 283.05272,239.03897 281.54188,242.93039 280.85973,243.15387 280.17758,243.37734 277.02758,241.10654 273.85973,238.10764 265.76923,230.44863 262.61895,229.02983 255.19769,229.70276 250.19433,230.15645 246.06565,231.79768 230.94345,239.34428 220.84788,244.38239 209.47054,250.90007 205.43617,253.95652 197.25858,260.15188 195.37809,260.86052 189.0178,260.14362 179.02767,259.01759 171.42561,249.25231 171.20906,237.26728 171.04526,228.20107 172.27065,227.51111 188.38079,227.59869 198.56488,227.65405 203.39212,227.1563 212.6,225.10136 238.47732,219.32628 261.13879,212.14804 268.1,207.5212 276.25193,202.10293 277.15384,195.32506 273.5707,166.40869 269.32396,132.13695 266.65615,124.88613 254.30277,114.04046 246.90429,107.54496 244.89303,103.85626 246.22242,99.22094 247.74625,93.90766 249.85799,93.49691 254.42731,97.62502 256.62447,99.61002 262.81119,103.60019 268.17558,106.49205 283.74291,114.88416 286.0066,117.44165 289.05041,130.07611 291.34156,139.58642 292.80666,140.84039 300.7821,140.1172 308.30769,139.43481 311.64192,140.86123 313.96516,145.75708 315.88132,149.79509 316.11511,156.48489 314.4,158.2 312.57402,160.02598 308.43431,159.65218 300.00325,156.9 290.42602,153.77368 290.06334,153.78281 286.60873,157.23742 282.7902,161.05596 282.10863,166.46553 283.49082,181.98424 285.44868,203.96645 286.76269,206.41677 296.57251,206.37836 303.00426,206.35318 318.15939,203.19633 322.41616,200.99507 328.74389,197.72287 329.918,189.66643 331.68419,137.4 332.92689,100.62529 332.55994,88.83959 329.97075,82.368582 328.2399,78.042752 324.50589,75.4 320.12468,75.4 316.00893,75.4 307.15769,78.908165 302.09644,82.545442 292.51022,89.43459 290.30637,90.47452 286.64651,89.83576 278.23037,88.36689 267.74958,79.91023 262.77268,70.572612 259.10795,63.696872 258.74077,59.25923 261.6,56.4 264.23359,53.76641 266.41436,53.875605 273.872,57.014484 279.2789,59.290218 281.05654,59.563019 287.59187,59.119975 291.72134,58.840028 299.22224,57.614444 304.26053,56.396453 313.13204,54.251792 313.62468,53.980293 319.87514,47.790962 326.11095,41.616135 326.50162,41.4 331.4271,41.4 342.23658,41.4 357.36926,50.160462 361.57807,58.854698 365.22633,66.391005 363.44529,72.832553 354.79146,83.4 346.64274,93.35065 342.61544,105.20784 342.58659,119.33366 342.57921,122.94515 341.45264,135.35 340.08311,146.9 336.8536,174.13613 335.94198,190.30196 337.47415,193.16484 338.15786,194.44238 340.34046,195.79157 342.7908,196.45138 348.45408,197.97634 359.43238,196.61652 399.6,189.41474 417.475,186.20987 436.96627,183.0734 442.91393,182.4448 448.86159,181.8162 454.89216,180.85922 456.31521,180.31818 459.14461,179.24244 462.86767,181.18408 470.02433,187.4677 474.85508,191.70916 474.67919,194.036 469.35,196.38881 463.70411,198.88143 453.37824,200.07898 421.6,201.92664 369.72104,204.94299 346.52926,207.62018 341.65037,211.15577 340.24767,212.17226 337.975,215.23056 336.6,217.95197 334.42422,222.25831 334.10248,224.19686 334.11911,232.9 334.13233,239.81331 334.68258,244.47618 335.90177,248.00637 339.43095,258.22513 344.82726,260.4 366.65298,260.4 387.29295,260.4 399.948,261.8782 410.3943,265.5093 415.18243,267.17364 424.38255,270.06982 430.839,271.94526 437.29544,273.8207 444.76174,276.46175 447.43077,277.81424 453.46493,280.87199 462.09602,290.13009 462.9655,294.47752 463.79621,298.63105 460.39323,306.03435 454.45097,313.00117 414.33372,360.03547 381.31449,396.81502 367.00389,410.40697 359.71544,417.32941 330.2787,442.68572 313.02905,456.9 298.78866,468.63455 288.34901,473.00615 284.28107,468.93821 Z"
     id="path55"
     inkscape:connector-curvature="0" />
  <path
     style="opacity:1;fill:#000000"
     d="M 188.95233,326.46071 C 185.92216,325.1619 185.30858,323.76694 186.04374,319.8482 186.87875,315.39723 193.94356,309.82419 199.88684,308.92815 208.45852,307.63583 209.73922,307.14197 217.34007,302.19799 227.19991,295.78463 237.92418,286.77744 253.75068,271.61714 264.555,261.26762 272.6,254.98949 272.6,256.90756 272.6,258.47599 267.26089,267.65295 263.224,273.0232 257.65412,280.43277 250.00645,287.70453 229.08479,305.48429 206.12159,324.99901 203.52816,326.72938 196.70701,327.08716 193.62315,327.24891 190.13355,326.96701 188.95233,326.46071 Z"
     id="path57"
     inkscape:connector-curvature="0" />
</svg>
