<?xml version="1.0" encoding="UTF-8" standalone="no"?>
<!-- Created with Inkscape (http://www.inkscape.org/) -->

<svg
   xmlns:dc="http://purl.org/dc/elements/1.1/"
   xmlns:cc="http://creativecommons.org/ns#"
   xmlns:rdf="http://www.w3.org/1999/02/22-rdf-syntax-ns#"
   xmlns:svg="http://www.w3.org/2000/svg"
   xmlns="http://www.w3.org/2000/svg"
   xmlns:sodipodi="http://sodipodi.sourceforge.net/DTD/sodipodi-0.dtd"
   xmlns:inkscape="http://www.inkscape.org/namespaces/inkscape"
   width="512"
   height="512"
   viewBox="0 0 135.46666 135.46667"
   version="1.1"
   id="svg8"
   inkscape:version="0.92.4 (5da689c313, 2019-01-14)"
   sodipodi:docname="U+7AEO-3.svg">
  <defs
     id="defs2">
    <inkscape:path-effect
       effect="bspline"
       id="path-effect31"
       is_visible="true"
       weight="33.333333"
       steps="2"
       helper_size="0"
       apply_no_weight="true"
       apply_with_weight="true"
       only_selected="false" />
    <inkscape:path-effect
       effect="bspline"
       id="path-effect27"
       is_visible="true"
       weight="33.333333"
       steps="2"
       helper_size="0"
       apply_no_weight="true"
       apply_with_weight="true"
       only_selected="false" />
    <inkscape:path-effect
       effect="bspline"
       id="path-effect23"
       is_visible="true"
       weight="33.333333"
       steps="2"
       helper_size="0"
       apply_no_weight="true"
       apply_with_weight="true"
       only_selected="false" />
  </defs>
  <sodipodi:namedview
     id="base"
     pagecolor="#ffffff"
     bordercolor="#666666"
     borderopacity="1.0"
     inkscape:pageopacity="0.0"
     inkscape:pageshadow="2"
     inkscape:zoom="1"
     inkscape:cx="400"
     inkscape:cy="240"
     inkscape:document-units="mm"
     inkscape:current-layer="svg8"
     showgrid="false"
     units="px"
     inkscape:window-width="1600"
     inkscape:window-height="821"
     inkscape:window-x="-9"
     inkscape:window-y="-9"
     inkscape:window-maximized="1" />
  <metadata
     id="metadata5">
    <rdf:RDF>
      <cc:Work
         rdf:about="">
        <dc:format>image/svg+xml</dc:format>
        <dc:type
           rdf:resource="http://purl.org/dc/dcmitype/StillImage" />
        <dc:title />
      </cc:Work>
    </rdf:RDF>
  </metadata>
  <g
     inkscape:label="圖層 1"
     inkscape:groupmode="layer"
     id="layer1"
     transform="translate(0,-161.5333)" />
  <path
     style="fill:none;stroke:#000000;stroke-width:0.26458332px;stroke-linecap:butt;stroke-linejoin:miter;stroke-opacity:1"
     d="M 195.79166,58.472916 C 195.79166,58.472916 195.79166,58.472916 195.79166,58.472916 Z"
     id="path29"
     inkscape:connector-curvature="0"
     inkscape:path-effect="#path-effect31"
     inkscape:original-d="M 195.79166,58.472916 C 195.79193,58.472651 195.79193,58.472651 195.79166,58.472916 Z" />
  <path
     style="opacity:1;fill:#000000;stroke-width:0.26458332"
     d="M 62.688432,134.35143 C 62.286159,133.73749 62.245313,132.96987 62.325905,127.53841 62.486544,116.71195 62.474199,115.9193 62.087127,112.20729 61.75671,109.03859 61.755932,107.80922 62.081266,102.94687 62.570568,95.633943 62.565803,94.943243 62.022298,94.399739 61.336221,93.713661 59.183004,93.87484 52.703081,95.097331 44.043895,96.730959 41.58775,97.546481 32.570208,101.78212 28.044372,103.90795 26.034645,104.48667 24.461353,104.11713 23.195993,103.81992 22.650653,103.41609 21.060073,101.59844 19.952513,100.33277 19.763933,99.969197 19.906423,99.374286 20.165343,98.293313 20.671993,97.409324 21.448433,96.683871 22.100963,96.074186 22.408363,96.014742 25.773052,95.84761 28.343243,95.719941 30.43257,95.430442 32.967083,94.850798 35.260425,94.326309 39.522201,93.700776 44.873332,93.103222 56.991487,91.750003 59.516684,91.242902 60.76757,89.911397 61.328302,89.314527 61.403935,88.903512 61.619825,85.280126 61.886027,80.812271 61.794474,80.083426 60.940097,79.868992 60.299538,79.708223 53.876799,81.279919 51.818595,82.101099 51.127397,82.376871 49.668905,82.993861 48.577499,83.472185 46.735351,84.279538 46.381182,84.34308 43.636067,84.358746 41.030625,84.373618 40.59017,84.309589 39.9319,83.82029 38.750607,82.942222 38.853014,82.214748 40.41241,80.406874 42.835131,77.598113 43.358413,75.63233 42.639186,72.04168 41.579834,66.75299 39.013994,61.039048 35.473234,56.083612 32.535888,51.972677 32.326304,51.170416 34.189706,51.170416 36.62482,51.170416 40.102911,53.922879 41.657113,57.079911 42.949833,59.705802 44.01377,64.341173 44.460643,69.294374 44.827454,73.360139 45.37853,75.789286 46.368961,77.706261 47.107241,79.135196 48.704637,79.275224 53.339999,78.31734 60.287002,76.881764 61.294477,75.889706 60.37882,71.386249 59.740455,68.246581 59.451832,68.061775 55.33909,68.159272 51.903132,68.240724 51.223332,68.049311 51.223332,67.000386 51.223332,66.158336 52.387271,65.339419 54.7118,64.545987 57.778027,63.499393 58.600569,62.949644 59.230299,61.526043 59.682638,60.503452 59.737515,59.983935 59.599133,58.034374 59.41524,55.443688 58.973388,53.866279 58.31683,53.456566 57.973779,53.242495 57.357909,53.390452 55.670997,54.092209 52.760913,55.302808 51.13797,55.323953 49.097699,54.177858 48.302266,53.731035 47.377357,52.963806 47.042344,52.472912 46.503063,51.682694 46.480181,51.546042 46.842769,51.280914 47.068011,51.116211 47.968788,50.906565 48.844487,50.815038 49.720189,50.723508 51.476875,50.362381 52.748232,50.01253 54.019589,49.66268 55.655103,49.27407 56.382707,49.148949 57.563381,48.945918 57.714644,48.843045 57.789505,48.192197 57.949768,46.79884 55.907799,43.762082 54.810619,43.762082 54.623143,43.762082 53.769074,44.238049 52.912689,44.819786 52.056304,45.401523 51.103286,45.877773 50.794874,45.878119 50.48646,45.878466 49.653022,45.419734 48.942791,44.858717 47.046503,43.360826 46.496199,43.140129 44.741041,43.173628 42.068387,43.224642 28.980656,47.378608 17.621253,51.781283 14.055993,53.163107 10.662703,54.423727 10.080623,54.58266 7.5489933,55.273905 5.8478033,54.622942 4.6859733,52.518386 4.1903233,51.620572 3.7475233,51.237834 2.6354433,50.746024 1.3351833,50.170987 1.2170833,50.04627 1.2170833,49.24825 1.2170833,48.060122 1.8333333,47.276085 3.0548633,46.910108 4.0094833,46.624096 4.2167133,46.670716 6.0774033,47.590101 8.5141133,48.794105 8.4166233,48.801326 16.827503,46.793895 20.101723,46.012435 26.913138,44.535719 31.963989,43.512303 43.509178,41.172989 44.873332,40.687211 44.873332,38.915286 44.873332,38.461087 44.255054,36.95108 43.433539,35.398916 41.7763,32.267741 41.086317,30.417013 41.311588,29.707244 41.560575,28.922762 43.009002,29.085748 44.996956,30.121939 47.432877,31.391629 49.229721,32.882778 51.135634,35.21625 52.033283,36.315276 53.10302,37.434427 53.512822,37.703254 54.64817,38.448032 56.21213,38.578384 58.132344,38.088278 61.775744,37.158355 64.74149,34.494747 66.692025,30.400624 69.628892,24.236211 69.54731,24.456017 69.205085,23.629814 68.795383,22.64071 65.657358,19.682252 64.308386,19.013321 63.473268,18.599201 62.754144,18.500191 60.748332,18.523166 58.418239,18.549856 57.91823,18.661164 53.897381,20.048277 46.101195,22.737807 44.773685,22.665009 41.958021,19.393543 40.328968,17.50078 39.939517,16.672827 40.237153,15.735064 40.586963,14.63291 41.273679,14.563357 44.265913,15.327016 46.646231,15.934506 47.445403,16.021526 49.733821,15.922403 52.091756,15.820269 52.875171,15.647601 56.250416,14.48612 60.893692,12.888289 61.046687,12.669313 58.768876,10.881538 56.262772,8.9145828 51.924923,6.4533525 49.05848,5.3720052 47.557014,4.8055865 46.114252,4.0828435 45.852344,3.7659103 45.205591,2.9832783 45.380449,1.9924338 46.283519,1.3226248 46.970698,0.81294093 47.373058,0.76806633 51.178311,0.77671603 59.520126,0.79567763 62.928845,2.2028108 67.014798,7.3140831 67.799298,8.2954433 68.815155,9.2917744 69.27226,9.5281521 70.71589,10.274682 73.477029,9.9073471 78.343124,8.3213888 84.140819,6.4318024 85.768692,6.4449506 86.95525,8.3909486 87.885441,9.9164898 87.401835,11.918834 85.962372,12.501915 85.555327,12.666796 83.853072,12.985308 82.179582,13.209721 77.68656,13.812228 73.220841,14.617852 71.798041,15.082571 70.386873,15.543491 69.477603,16.508111 69.483633,17.537869 69.488893,18.435896 69.697514,18.725752 70.71299,19.245921 71.932632,19.87067 72.582144,20.837603 73.20827,22.960645 73.84444,25.117751 74.402091,25.832112 76.140751,26.717193 78.325725,27.829475 78.124885,28.868028 75.271107,31.214168 73.712534,32.4955 73.299567,32.987252 73.234819,33.63895 73.172739,34.263763 73.277284,34.495694 73.678393,34.623001 74.176804,34.78119 78.864615,34.599641 91.290366,33.940927 96.949168,33.640942 99.406282,33.724407 104.53687,34.390901 108.38177,34.890373 109.84168,35.336249 112.98596,36.971361 116.24766,38.667541 118.69208,40.851449 118.69208,42.069366 118.69208,43.592061 116.67606,44.735955 114.59104,44.396307 114.00896,44.301486 112.53324,43.762553 111.31168,43.198681 110.09011,42.634809 108.18478,41.887295 107.07761,41.537543 102.69628,40.153478 89.790078,37.594486 85.089999,37.177924 81.857711,36.891449 69.718797,36.961278 68.55354,37.273049 68.116978,37.389855 66.509634,38.0509 64.981666,38.742045 62.349998,39.932419 62.089333,39.996858 60.03718,39.964349 58.216479,39.935506 57.752098,40.018586 57.126763,40.485033 55.96325,41.352916 56.061725,41.770024 57.725859,43.02262 58.556183,43.647605 60.0511,44.893512 61.047901,45.791304 62.044703,46.689094 63.299246,47.568526 63.835776,47.745596 65.116622,48.168313 68.74094,47.937893 72.52229,47.193339 76.496956,46.41072 78.806573,46.401674 80.27227,47.162984 81.71691,47.913353 83.440954,49.67493 84.064844,51.038124 85.057344,53.206723 84.493292,56.091729 82.67235,58.160429 82.092105,58.819623 81.501116,59.748961 81.359043,60.225627 80.894596,61.783869 80.747435,71.2688 81.118312,75.741251 81.392132,79.043288 81.396339,80.102508 81.13873,80.883068 80.294024,83.442557 77.399286,82.570237 76.219906,79.400796 75.648631,77.865559 74.99861,77.363266 73.587897,77.366943 72.01741,77.371042 66.381444,78.575862 65.630212,79.068087 64.852692,79.57754 64.774513,80.683223 65.392923,82.424128 65.619116,83.060888 65.907699,84.760719 66.03422,86.201534 66.231015,88.44259 66.356321,88.913252 66.901244,89.458177 67.902978,90.45991 70.464602,90.698022 76.52356,90.352609 87.282093,89.739275 93.501679,90.052823 97.071578,91.388492 99.824295,92.418417 102.13885,95.127967 101.97401,97.127566 L 101.89104,98.133957 99.774373,98.119018 C 97.911921,98.105877 97.133393,97.923848 93.292082,96.603395 88.457279,94.941431 83.505618,93.66471 80.17626,93.221655 78.975216,93.061826 75.868769,92.970616 73.273043,93.018966 69.433894,93.090475 68.380344,93.193228 67.625046,93.569818 65.925998,94.416955 65.945394,94.297869 65.890525,104.21937 65.841961,113.0006 65.51396,120.19139 64.955197,124.72458 64.802733,125.96151 64.580441,128.61289 64.461214,130.61654 64.203111,134.95407 63.732687,135.94516 62.688432,134.35143 Z M 68.536925,74.848602 C 70.84022,74.282854 71.445193,74.224392 72.643919,74.451727 73.417111,74.598359 74.435614,74.718332 74.907258,74.718332 76.454343,74.718332 76.350684,75.346784 76.740154,63.605832 76.809421,61.517661 77.091682,59.128185 77.505879,57.123541 78.434225,52.630521 78.531208,51.744292 78.203289,50.750683 78.043935,50.267837 77.687756,49.801115 77.41178,49.713525 76.955085,49.568575 71.716227,50.040129 67.325117,50.621429 64.14314,51.042664 62.603559,52.272141 62.601405,54.393681 62.60086,54.929549 62.243228,56.753299 61.806666,58.446457 60.733262,62.609533 60.726052,62.547499 62.283275,62.547499 62.981974,62.547499 64.559552,62.25234 65.789005,61.891592 68.188204,61.187615 69.735937,61.059958 70.555309,61.498474 71.257299,61.874169 71.197284,62.327059 70.339478,63.127127 69.286653,64.109088 68.750965,64.332666 65.754064,65.040924 64.273103,65.390918 62.868388,65.871203 62.632475,66.108219 61.641949,67.10338 62.723616,73.733124 64.06962,74.91677 64.920933,75.665395 65.230816,75.660667 68.536925,74.848602 Z"
     id="path33"
     inkscape:connector-curvature="0" />
</svg>
