<?xml version="1.0" encoding="UTF-8" standalone="no"?>
<!-- Created with Inkscape (http://www.inkscape.org/) -->

<svg
   xmlns:dc="http://purl.org/dc/elements/1.1/"
   xmlns:cc="http://creativecommons.org/ns#"
   xmlns:rdf="http://www.w3.org/1999/02/22-rdf-syntax-ns#"
   xmlns:svg="http://www.w3.org/2000/svg"
   xmlns="http://www.w3.org/2000/svg"
   xmlns:sodipodi="http://sodipodi.sourceforge.net/DTD/sodipodi-0.dtd"
   xmlns:inkscape="http://www.inkscape.org/namespaces/inkscape"
   width="512"
   height="512"
   viewBox="0 0 512 512"
   version="1.1"
   id="svg8"
   inkscape:version="0.92.4 (5da689c313, 2019-01-14)"
   sodipodi:docname="U+81E3-3.svg">
  <defs
     id="defs2">
    <inkscape:path-effect
       effect="bspline"
       id="path-effect35"
       is_visible="true"
       weight="33.333333"
       steps="2"
       helper_size="0"
       apply_no_weight="true"
       apply_with_weight="true"
       only_selected="false" />
    <inkscape:path-effect
       effect="bspline"
       id="path-effect31"
       is_visible="true"
       weight="33.333333"
       steps="2"
       helper_size="0"
       apply_no_weight="true"
       apply_with_weight="true"
       only_selected="false" />
    <inkscape:path-effect
       effect="bspline"
       id="path-effect27"
       is_visible="true"
       weight="33.333333"
       steps="2"
       helper_size="0"
       apply_no_weight="true"
       apply_with_weight="true"
       only_selected="false" />
    <inkscape:path-effect
       effect="bspline"
       id="path-effect23"
       is_visible="true"
       weight="33.333333"
       steps="2"
       helper_size="0"
       apply_no_weight="true"
       apply_with_weight="true"
       only_selected="false" />
  </defs>
  <sodipodi:namedview
     id="base"
     pagecolor="#ffffff"
     bordercolor="#666666"
     borderopacity="1.0"
     inkscape:pageopacity="0.0"
     inkscape:pageshadow="2"
     inkscape:zoom="1"
     inkscape:cx="400"
     inkscape:cy="250.38808"
     inkscape:document-units="px"
     inkscape:current-layer="svg8"
     showgrid="false"
     units="px"
     inkscape:window-width="1600"
     inkscape:window-height="821"
     inkscape:window-x="-9"
     inkscape:window-y="-9"
     inkscape:window-maximized="1" />
  <metadata
     id="metadata5">
    <rdf:RDF>
      <cc:Work
         rdf:about="">
        <dc:format>image/svg+xml</dc:format>
        <dc:type
           rdf:resource="http://purl.org/dc/dcmitype/StillImage" />
        <dc:title />
      </cc:Work>
    </rdf:RDF>
  </metadata>
  <g
     inkscape:label="圖層 1"
     inkscape:groupmode="layer"
     id="layer1"
     transform="translate(0,-161.53331)" />
  <path
     style="fill:none;stroke:#000000;stroke-width:1px;stroke-linecap:butt;stroke-linejoin:miter;stroke-opacity:1"
     d="M -112,190 C -112,190 -112,190 -112,190 Z"
     id="path29"
     inkscape:connector-curvature="0"
     inkscape:path-effect="#path-effect31"
     inkscape:original-d="M -112,190 C -111.999,189.999 -111.999,189.999 -112,190 Z" />
  <path
     style="fill:none;stroke:#000000;stroke-width:1px;stroke-linecap:butt;stroke-linejoin:miter;stroke-opacity:1"
     d="M 371,75 C 371,75 371,75 371,75 Z"
     id="path33"
     inkscape:connector-curvature="0"
     inkscape:path-effect="#path-effect35"
     inkscape:original-d="M 371,75 C 371.001,74.999 371.001,74.999 371,75 Z" />
  <path
     style="opacity:1;fill:#000000"
     d="M 146.78562,355.41713 C 139.8725,351.97217 132.24511,342.48319 131.58933,336.51192 131.12513,332.28502 131.70566,331.00706 134.85,329.33398 138.20159,327.55062 140.28909,327.48504 176.6,328.02238 190.82261,328.23285 244.637,321.13936 250.47483,318.28464 255.89472,315.6343 257.59658,311.35391 257.59845,300.36787 257.6008,286.54334 255.77579,271.27682 253.61433,267.04001 251.54568,262.98513 247.32136,259.40261 240.04956,255.53616 231.58674,251.03643 228.05548,251.64267 179.38606,265.95072 154.81368,273.17461 151.35842,273.77348 146.34267,271.67776 142.82843,270.20942 138.61193,265.0545 138.60374,262.21647 138.59621,259.60711 143.51912,256.11726 150.05536,254.09842 153.7421,252.95971 173.03536,249.34381 192.92926,246.0631 264.53605,234.2544 292.75176,228.54598 301.33607,224.13093 306.32354,221.5658 310.0525,217.50985 312.47808,212.01192 314.88646,206.55295 323.6,175.48676 323.6,172.35918 323.6,171.12953 322.52381,168.8723 321.20847,167.34313 318.97194,164.743 318.34003,164.57113 311.45847,164.69126 302.97362,164.83938 295.41585,166.18432 261.6,173.56385 223.36863,181.90695 213.74338,185.30261 192.92935,197.78991 181.33546,204.74561 179.90019,205.34686 175.18584,205.22283 168.61347,205.0499 158.29736,201.85901 152.82237,198.30554 147.47188,194.83288 144.10429,188.45406 144.93122,183.35827 145.92498,177.23447 146.89959,176.74416 156.55895,177.50867 167.07539,178.34102 171.46378,177.59597 201.1,169.94659 234.51824,161.32105 238.62593,158.64466 238.57804,145.52752 238.54704,137.03732 235.97651,132.17178 226.20976,122.11665 221.61288,117.38404 216.61587,111.48692 215.10527,109.01192 211.0601,102.38418 207.5683,99.01192 204.7508,99.01192 203.38954,99.01192 198.70122,101.10754 194.33231,103.66885 188.71345,106.96296 184.94839,108.4642 181.46669,108.79875 175.69633,109.3532 174.34219,108.42699 168.60294,100.00016 166.5383,96.96869 162.10913,91.465001 158.76033,87.769736 150.85522,79.046756 149.42432,76.179714 149.79941,69.814994 150.04161,65.705152 150.59594,64.345433 152.65322,62.814828 154.90645,61.138439 155.78767,61.046464 160.15322,62.032038 169.61464,64.168064 176.12079,63.454732 199.6,57.707112 211.975,54.677759 229.975,50.401834 239.6,48.205056 262.25699,43.0339 268.51339,40.701629 269.95197,36.890406 271.30364,33.30941 273.55304,33.208312 279.13202,36.477811 284.0885,39.382505 286.98792,44.563042 285.98563,48.723507 284.74845,53.859012 280.76199,60.662502 277.11254,63.866758 273.02704,67.453878 262.82323,72.77378 248.1,78.992867 235.56794,84.286404 226.87685,88.848068 226.25981,90.456061 225.6034,92.166623 226.36098,93.041958 232.1,97.20402 234.85,99.19838 238.225,102.04881 239.6,103.53832 240.975,105.02783 246.07618,108.93134 250.93595,112.2128 264.1847,121.15874 264.71922,123.85861 256.48466,140.23972 250.3799,152.38399 251.39778,154.63766 262.83137,154.29193 271.85226,154.01915 301.53769,150.28299 308.6,148.53157 315.65652,146.78158 322.57518,142.88934 325.38506,139.08877 331.33133,131.04601 342.01428,128.65446 351.20064,133.30955 360.54449,138.04443 370.45811,148.61215 369.03503,152.32063 368.73208,153.1101 366.37277,155.23476 363.79211,157.04211 355.35638,162.94999 353.42416,165.36701 348.04934,176.7347 341.369,190.86356 337.48631,196.70514 327.45361,207.72131 314.54256,221.89797 314.72938,224.09203 329.05349,226.5112 334.29724,227.3968 340.26577,230.51889 341.64627,233.09837 344.58706,238.5933 335.24182,241.39975 317.13171,240.46029 307.17027,239.94355 302.04009,240.27635 287.31682,242.39443 258.14285,246.59137 256.48943,247.64607 268.35,254.4931 287.04256,265.2842 290.02041,268.67664 287.04694,275.79316 286.21723,277.77892 282.05758,282.803 277.80326,286.95778 271.90484,292.7182 269.21343,296.29279 266.46858,302.01192 261.52327,312.3159 261.10054,314.51246 263.58477,316.99669 266.14007,319.55199 270.14304,319.59524 294.89328,317.33496 325.412,314.54788 336.43369,317.01584 348.63419,329.36853 355.15315,335.96881 360.31552,344.70492 359.2845,347.39171 358.30144,349.95352 351.79417,352.29453 347.13016,351.76427 344.91357,351.51226 337.66162,348.78719 331.01472,345.70856 301.69606,332.12911 273.22098,330.14437 214.1,337.55951 186.33576,341.04178 175.75107,343.90632 168.1,350.00849 156.67575,359.11998 155.04612,359.53351 146.78562,355.41713 Z"
     id="path37"
     inkscape:connector-curvature="0" />
  <path
     style="opacity:1;fill:#000000"
     d="M 121.61722,421.79984 C 117.38722,414.84417 115.28201,399.11086 113.52148,361.29636 112.61916,341.91542 112.70991,330.47652 114.01164,299.51192 114.89026,278.61192 115.60891,251.83692 115.60863,240.01192 115.60808,215.99665 116.47433,202.01314 120.22379,165.51192 123.20696,136.4705 123.07967,126.71661 119.62999,120.01192 116.39825,113.73079 106.41533,104.26206 97.02823,98.57431 85.92124,91.844452 85.80548,91.571139 91.60571,85.770912 95.49118,81.885442 95.77759,81.778982 101.14726,82.224277 104.95103,82.539715 109.08546,83.90806 114.36127,86.597633 123.80014,91.409503 128.22194,96.81021 132.71285,109.01192 137.40123,121.7501 137.59721,131.0493 133.74553,158.01192 132.0563,169.83692 130.19699,186.48692 129.61373,195.01192 128.51419,211.08312 124.36892,270.04977 122.61904,294.51192 121.32236,312.63859 121.32481,343.53313 122.62404,357.51192 123.18635,363.56192 124.76097,376.48081 126.12321,386.22056 127.48544,395.96031 128.6,407.52663 128.6,411.9235 128.6,424.24726 125.64623,428.42502 121.61722,421.79984 Z"
     id="path39"
     inkscape:connector-curvature="0" />
</svg>
