<?xml version="1.0" encoding="UTF-8" standalone="no"?>
<!-- Created with Inkscape (http://www.inkscape.org/) -->

<svg
   xmlns:dc="http://purl.org/dc/elements/1.1/"
   xmlns:cc="http://creativecommons.org/ns#"
   xmlns:rdf="http://www.w3.org/1999/02/22-rdf-syntax-ns#"
   xmlns:svg="http://www.w3.org/2000/svg"
   xmlns="http://www.w3.org/2000/svg"
   xmlns:sodipodi="http://sodipodi.sourceforge.net/DTD/sodipodi-0.dtd"
   xmlns:inkscape="http://www.inkscape.org/namespaces/inkscape"
   width="512"
   height="512"
   viewBox="0 0 512 512"
   version="1.1"
   id="svg8"
   inkscape:version="0.92.4 (5da689c313, 2019-01-14)"
   sodipodi:docname="U+9996-3.svg">
  <defs
     id="defs2">
    <inkscape:path-effect
       effect="bspline"
       id="path-effect35"
       is_visible="true"
       weight="33.333333"
       steps="2"
       helper_size="0"
       apply_no_weight="true"
       apply_with_weight="true"
       only_selected="false" />
    <inkscape:path-effect
       effect="bspline"
       id="path-effect31"
       is_visible="true"
       weight="33.333333"
       steps="2"
       helper_size="0"
       apply_no_weight="true"
       apply_with_weight="true"
       only_selected="false" />
    <inkscape:path-effect
       effect="bspline"
       id="path-effect27"
       is_visible="true"
       weight="33.333333"
       steps="2"
       helper_size="0"
       apply_no_weight="true"
       apply_with_weight="true"
       only_selected="false" />
    <inkscape:path-effect
       effect="bspline"
       id="path-effect23"
       is_visible="true"
       weight="33.333333"
       steps="2"
       helper_size="0"
       apply_no_weight="true"
       apply_with_weight="true"
       only_selected="false" />
  </defs>
  <sodipodi:namedview
     id="base"
     pagecolor="#ffffff"
     bordercolor="#666666"
     borderopacity="1.0"
     inkscape:pageopacity="0.0"
     inkscape:pageshadow="2"
     inkscape:zoom="1"
     inkscape:cx="359"
     inkscape:cy="284.96195"
     inkscape:document-units="px"
     inkscape:current-layer="svg8"
     showgrid="false"
     units="px"
     inkscape:window-width="1600"
     inkscape:window-height="821"
     inkscape:window-x="-9"
     inkscape:window-y="-9"
     inkscape:window-maximized="1" />
  <metadata
     id="metadata5">
    <rdf:RDF>
      <cc:Work
         rdf:about="">
        <dc:format>image/svg+xml</dc:format>
        <dc:type
           rdf:resource="http://purl.org/dc/dcmitype/StillImage" />
        <dc:title />
      </cc:Work>
    </rdf:RDF>
  </metadata>
  <g
     inkscape:label="圖層 1"
     inkscape:groupmode="layer"
     id="layer1"
     transform="translate(0,-161.53331)" />
  <path
     style="fill:none;stroke:#000000;stroke-width:1px;stroke-linecap:butt;stroke-linejoin:miter;stroke-opacity:1"
     d="M 789,234 C 789,234 789,234 789,234 Z"
     id="path33"
     inkscape:connector-curvature="0"
     inkscape:path-effect="#path-effect35"
     inkscape:original-d="M 789,234 C 789.001,233.999 789.001,233.999 789,234 Z" />
  <path
     style="opacity:1;fill:#000000"
     d="M 226.47009,138.01759 C 217.87206,135.70104 201.89163,124.41487 188.37737,111.11462 176.585,99.509 173.6,95.943955 173.6,93.465742 173.6,89.473532 213.17653,97.95534 221.90052,103.81722 227.44378,107.54189 235.20731,122.71006 236.33199,132.01302 236.75367,135.50104 236.47408,136.37479 234.49211,137.76302 233.20669,138.66336 231.91761,139.36963 231.62749,139.33251 231.33737,139.29539 229.01654,138.70367 226.47009,138.01759 Z"
     id="path37"
     inkscape:connector-curvature="0" />
  <path
     style="opacity:1;fill:#000000"
     d="M 329.25901,474.57571 C 326.84816,471.91175 323.60739,458.3575 322.70592,447.16792 322.04196,438.92651 321.37107,436.32261 318.32593,430.16792 313.94971,421.32291 309.61459,416.68096 304.90539,415.79751 297.93834,414.49049 271.46488,416.15695 256.6,418.83827 238.56129,422.09208 224.12787,425.86937 220.17845,428.36997 218.51984,429.42012 215.33286,432.89399 213.09628,436.08967 210.10621,440.36195 208.31731,441.98316 206.33831,442.21416 201.64314,442.76221 191.05313,434.04452 187.07945,426.36027 185.77721,423.842 185.70252,422.34932 186.62438,417.26554 187.41386,412.91182 187.43067,407.73331 186.68354,399.04177 185.42451,384.39536 179.6475,325.29508 176.14079,291.18693 174.74335,277.59474 173.58531,261.39474 173.56735,255.18693 173.54307,246.79085 173.05144,242.49999 171.64785,238.43385 167.33088,225.92781 174.58799,227.19728 191.6,241.92405 201.0275,250.08514 201.43405,250.26615 203.68824,247.30609 206.45633,243.67122 225.08591,202.8331 227.39837,195.33085 231.83073,180.95105 231.00535,174.66774 224.1255,170.41576 217.14639,166.10243 206.77284,168.62575 155.6,187.08428 126.90988,197.43308 107.08104,205.72726 85.66474,216.33741 75.571986,221.3376 68.178304,224.4 66.198874,224.4 63.782096,224.4 61.440183,223.0681 56.553565,218.91448 53.004104,215.89744 45.676746,211.09573 40.270547,208.24401 34.864348,205.39229 28.45333,201.54129 26.02384,199.68624 21.719488,196.39962 17.851219,190.81545 19.049081,189.61759 19.377186,189.28948 22.704794,190.0063 26.443765,191.21052 34.035682,193.65566 45.514228,194.09837 56.6,192.37359 60.175,191.81738 86.275,186.65824 114.6,180.90885 142.925,175.15945 184.44074,166.86256 206.85721,162.47131 229.27367,158.08006 249.66304,153.58101 252.16692,152.47342 258.7013,149.58296 280.43942,128.05467 284.4817,120.47058 289.59574,110.87566 294.60193,96.851813 294.57804,92.187699 294.547,86.128147 291.70444,80.586305 285.16332,73.832823 280.83361,69.362542 279.57611,67.395 279.80325,65.446171 280.0812,63.061328 280.56545,62.849336 287.44593,62.100394 293.65999,61.423992 295.76257,61.623817 301.09179,63.397269 320.14605,69.738117 346.03638,92.191255 343.86558,100.49241 342.89091,104.21957 336.31454,108.48737 316.34031,118.3552 294.63635,129.07756 283.0698,136.68001 282.00483,140.92316 281.65007,142.33665 281.64425,143.77759 281.99191,144.12525 282.85972,144.99305 293.53627,144.62839 302.6,143.42135 346.07687,137.63147 431.52834,134.46721 453.60416,137.82967 466.09125,139.73164 478.12401,143.58064 488.6,149.02403 504.7632,157.42254 510.16794,165.25808 504.22271,171.67309 498.32598,178.03577 489.79514,177.04692 468.25249,167.50363 446.32958,157.79188 440.49765,156.25816 395.1,148.26544 372.784,144.33648 369.80192,144.03734 352.6,144.00216 315.41799,143.92613 255.03537,153.9885 234.8709,163.62096 228.21161,166.80207 228.29426,168.51745 235.29668,172.45785 248.90073,180.11311 255.55198,187.15385 255.63566,193.98786 255.6557,195.6251 253.14385,201.83015 249.89804,208.16152 243.43149,220.77536 243.44744,221.75492 250.15823,224.14001 256.64731,226.44631 262.89861,225.18232 288.6,216.36723 309.79955,209.0962 313.65391,207.45471 317.21183,204.1821 322.25736,199.54118 325.52076,199.32591 331.65422,203.22943 339.32933,208.11411 352.24432,221.04525 355.02907,226.6335 358.12635,232.84894 358.14543,233.67632 355.54258,248.9 353.98625,258.00271 353.27451,268.50538 352.59468,292.4 352.10177,309.725 351.16739,340.325 350.51828,360.4 349.00449,407.21699 349.45201,429.58166 351.9976,434.32876 354.951,439.83636 353.67109,445.64373 346.5698,458.95662 343.20765,465.25968 339.32402,471.76297 337.93951,473.40837 335.07113,476.81724 331.69807,477.27084 329.25901,474.57571 Z M 228.1,413.93716 C 233.05,413.13268 244.975,411.34172 254.6,409.95725 264.225,408.57278 275.925,406.31547 280.6,404.941 294.46514,400.86459 306.26307,401.97191 323.32797,408.95132 333.51535,413.11788 336.23698,412.79213 338.94665,407.08193 341.578,401.53676 341.05298,396.02196 337.16797,388.39873 333.1623,380.53874 331.23547,371.33643 332.07152,364.05873 332.39746,361.22143 334.00792,340.08046 335.65032,317.0788 337.29271,294.07714 339.55952,268.20214 340.68768,259.5788 342.9302,242.4375 342.66076,235.67342 339.53038,230.52592 337.32816,226.90465 330.77489,223.45591 326.0315,223.42196 319.17465,223.37289 297.21186,232.17308 286.03028,239.4499 282.69194,241.62246 278.7711,243.4 277.3173,243.4 274.10834,243.4 267.89588,241.00176 254.00089,234.399 238.80781,227.17941 237.32835,227.44709 229.66622,238.80186 226.94106,242.84038 221.12146,250.01956 216.7338,254.75558 210.85885,261.09697 208.189,264.88256 206.60413,269.11851 203.34965,277.81689 201.6,285.30015 201.6,290.52121 201.6,294.51342 202.05081,295.60155 204.59,297.73813 208.22221,300.79444 217.14504,302.81182 222.89515,301.87678 225.20782,301.50071 233.85,298.59277 242.1,295.41469 260.01913,288.51184 263.83318,287.66754 267.18269,289.86223 274.19315,294.45565 265.86266,307.53899 252.82043,312.41872 244.37739,315.57766 237.58723,315.84135 224.40654,313.52214 211.19803,311.19804 207.71533,311.69442 205.61966,316.19978 203.79831,320.11541 202.36167,342.11814 203.09277,354.9 204.00002,370.7613 205.63641,372.47259 216.08067,368.48238 218.8413,367.42769 223.96951,365.76418 227.4767,364.78569 230.98388,363.8072 238.63388,360.3313 244.4767,357.06146 250.31951,353.79162 257.08402,350.50513 259.50893,349.75815 273.14394,345.55796 288.30333,351.7686 280.12278,358.20342 276.54914,361.01445 248.14131,371.99612 240.61075,373.47767 234.7786,374.62507 222.53776,374.33039 212.08454,372.79094 208.97909,372.3336 207.52185,372.6427 205.65441,374.15486 L 203.23973,376.11014 204.17735,392.69176 C 204.989,407.04572 205.39475,409.64813 207.19763,412.06288 208.3431,413.59711 210.36473,415.13784 211.69015,415.48673 214.27757,416.1678 214.50959,416.14589 228.1,413.93716 Z"
     id="path39"
     inkscape:connector-curvature="0" />
</svg>
