<?xml version="1.0" encoding="UTF-8" standalone="no"?>
<!-- Created with Inkscape (http://www.inkscape.org/) -->

<svg
   xmlns:dc="http://purl.org/dc/elements/1.1/"
   xmlns:cc="http://creativecommons.org/ns#"
   xmlns:rdf="http://www.w3.org/1999/02/22-rdf-syntax-ns#"
   xmlns:svg="http://www.w3.org/2000/svg"
   xmlns="http://www.w3.org/2000/svg"
   xmlns:sodipodi="http://sodipodi.sourceforge.net/DTD/sodipodi-0.dtd"
   xmlns:inkscape="http://www.inkscape.org/namespaces/inkscape"
   width="512"
   height="512"
   viewBox="0 0 512 512"
   version="1.1"
   id="svg8"
   inkscape:version="0.92.4 (5da689c313, 2019-01-14)"
   sodipodi:docname="U+9ECE-3.svg">
  <defs
     id="defs2">
    <inkscape:path-effect
       effect="bspline"
       id="path-effect71"
       is_visible="true"
       weight="33.333333"
       steps="2"
       helper_size="0"
       apply_no_weight="true"
       apply_with_weight="true"
       only_selected="false" />
    <inkscape:path-effect
       effect="bspline"
       id="path-effect67"
       is_visible="true"
       weight="33.333333"
       steps="2"
       helper_size="0"
       apply_no_weight="true"
       apply_with_weight="true"
       only_selected="false" />
    <inkscape:path-effect
       effect="bspline"
       id="path-effect63"
       is_visible="true"
       weight="33.333333"
       steps="2"
       helper_size="0"
       apply_no_weight="true"
       apply_with_weight="true"
       only_selected="false" />
    <inkscape:path-effect
       effect="bspline"
       id="path-effect59"
       is_visible="true"
       weight="33.333333"
       steps="2"
       helper_size="0"
       apply_no_weight="true"
       apply_with_weight="true"
       only_selected="false" />
    <inkscape:path-effect
       effect="bspline"
       id="path-effect55"
       is_visible="true"
       weight="33.333333"
       steps="2"
       helper_size="0"
       apply_no_weight="true"
       apply_with_weight="true"
       only_selected="false" />
    <inkscape:path-effect
       effect="bspline"
       id="path-effect51"
       is_visible="true"
       weight="33.333333"
       steps="2"
       helper_size="0"
       apply_no_weight="true"
       apply_with_weight="true"
       only_selected="false" />
    <inkscape:path-effect
       effect="bspline"
       id="path-effect47"
       is_visible="true"
       weight="33.333333"
       steps="2"
       helper_size="0"
       apply_no_weight="true"
       apply_with_weight="true"
       only_selected="false" />
    <inkscape:path-effect
       effect="bspline"
       id="path-effect43"
       is_visible="true"
       weight="33.333333"
       steps="2"
       helper_size="0"
       apply_no_weight="true"
       apply_with_weight="true"
       only_selected="false" />
    <inkscape:path-effect
       effect="bspline"
       id="path-effect39"
       is_visible="true"
       weight="33.333333"
       steps="2"
       helper_size="0"
       apply_no_weight="true"
       apply_with_weight="true"
       only_selected="false" />
    <inkscape:path-effect
       effect="bspline"
       id="path-effect35"
       is_visible="true"
       weight="33.333333"
       steps="2"
       helper_size="0"
       apply_no_weight="true"
       apply_with_weight="true"
       only_selected="false" />
    <inkscape:path-effect
       effect="bspline"
       id="path-effect31"
       is_visible="true"
       weight="33.333333"
       steps="2"
       helper_size="0"
       apply_no_weight="true"
       apply_with_weight="true"
       only_selected="false" />
    <inkscape:path-effect
       effect="bspline"
       id="path-effect27"
       is_visible="true"
       weight="33.333333"
       steps="2"
       helper_size="0"
       apply_no_weight="true"
       apply_with_weight="true"
       only_selected="false" />
    <inkscape:path-effect
       effect="bspline"
       id="path-effect23"
       is_visible="true"
       weight="33.333333"
       steps="2"
       helper_size="0"
       apply_no_weight="true"
       apply_with_weight="true"
       only_selected="false" />
  </defs>
  <sodipodi:namedview
     id="base"
     pagecolor="#ffffff"
     bordercolor="#666666"
     borderopacity="1.0"
     inkscape:pageopacity="0.0"
     inkscape:pageshadow="2"
     inkscape:zoom="1"
     inkscape:cx="443"
     inkscape:cy="280"
     inkscape:document-units="px"
     inkscape:current-layer="svg8"
     showgrid="false"
     units="px"
     inkscape:window-width="1600"
     inkscape:window-height="821"
     inkscape:window-x="-9"
     inkscape:window-y="-9"
     inkscape:window-maximized="1" />
  <metadata
     id="metadata5">
    <rdf:RDF>
      <cc:Work
         rdf:about="">
        <dc:format>image/svg+xml</dc:format>
        <dc:type
           rdf:resource="http://purl.org/dc/dcmitype/StillImage" />
        <dc:title />
      </cc:Work>
    </rdf:RDF>
  </metadata>
  <g
     inkscape:label="圖層 1"
     inkscape:groupmode="layer"
     id="layer1"
     transform="translate(0,-161.53331)" />
  <path
     style="fill:none;stroke:#000000;stroke-width:1px;stroke-linecap:butt;stroke-linejoin:miter;stroke-opacity:1"
     d="M 692,133 C 692,133 692,133 692,133 692,133 692,133 692,133 692,133 692,133 692,133 692,133 692,133 692,133 Z"
     id="path45"
     inkscape:connector-curvature="0"
     inkscape:path-effect="#path-effect47"
     inkscape:original-d="M 692,133 C 692.001,132.999 692.001,132.999 692,133 692,133 692.001,132.999 692,133 692,133 692.001,132.999 692,133 692,133 692.001,132.999 692,133 Z" />
  <path
     style="fill:#000000;stroke:#000000;stroke-width:1px;stroke-linecap:butt;stroke-linejoin:miter;stroke-opacity:1"
     d="M 745,302 C 745,302 745,302 745,302 Z"
     id="path69"
     inkscape:connector-curvature="0"
     inkscape:path-effect="#path-effect71"
     inkscape:original-d="M 745,302 C 745.001,301.999 745.001,301.999 745,302 Z" />
  <path
     style="opacity:1;fill:#000000"
     d="M 119.6,83.954528 C 119.6,83.709518 122.6375,81.907878 126.35,79.950884 136.29451,74.708767 161.28554,55.641141 168.42845,47.84591 179.32171,35.957835 182.29386,27.21121 180.2183,13.15 L 179.36955,7.4 H 182.02461 C 183.4849,7.4 186.40166,8.278491 188.50631,9.352202 201.79405,16.131105 205.99628,27.430809 199.87277,39.916405 L 197.14554,45.477117 199.37298,51.688559 C 201.80184,58.461696 202.11374,61.918567 200.64463,65.782601 199.04612,69.987023 195.62221,71.386208 184.48442,72.386505 177.04273,73.054852 171.12452,74.335792 163.6,76.90674 147.56566,82.385289 138.14907,84.385148 128.35,84.392994 123.5375,84.396847 119.6,84.199538 119.6,83.954528 Z"
     id="path73"
     inkscape:connector-curvature="0" />
  <path
     style="opacity:1;fill:#000000"
     d="M 151.08847,289.15 C 144.58647,282.48546 139.22829,273.0536 139.77035,269.22706 140.05704,267.20328 140.79942,266.82979 145.46666,266.36124 152.275,265.67776 155.5644,262.2913 158.74158,252.69462 160.89422,246.19256 160.9971,244.34993 161.1311,209.9 161.20812,190.1 160.87929,173.1125 160.40038,172.15 157.88983,167.10438 151.58608,173.13356 137.65991,193.9 117.45091,224.03529 108.21278,233.65888 91.957914,241.50889 80.6604,246.96483 75.209337,248.58163 76.120879,246.20619 76.42712,245.40814 84.776794,236.97476 94.675712,227.46534 113.14415,209.7236 126.70694,194.34918 143.25251,172.4 156.46668,154.8702 160.80244,145.04011 156.51667,142.32734 153.92561,140.68727 146.54358,141.36959 138.77632,143.96706 121.64874,149.69474 61.602867,180.07402 33.1,197.43235 18.13559,206.54572 16.303777,207.4 11.726583,207.4 3.7936621,207.4 -1.252703,198.30802 -0.0896773,186.11078 1.1509649,173.09953 2.7014031,171.57215 17.840267,168.4475 22.93312,167.39634 34.75,164.20407 44.1,161.35356 64.148269,155.24151 90.855256,147.52612 120.04687,139.41325 150.27304,131.01286 156.6,128.33389 156.6,123.93587 156.6,123.1306 153.44826,118.9681 149.59613,114.68587 142.77661,107.10493 140.12778,102.98877 139.4376,98.9 139.13813,97.125908 139.61632,96.916555 143.67106,97.046567 151.42159,97.295081 162.71321,102.73079 170.69506,110.05572 174.55122,113.59452 178.83665,116.91968 180.21823,117.44495 186.47975,119.82558 193.68768,117.92032 200.95798,111.96287 210.07572,104.49156 222.61192,105.28223 234.35,114.06895 238.98357,117.53748 238.7926,120.99064 233.85,123.11014 230.95627,124.35105 227.08403,124.68138 216.89165,124.55682 196.18927,124.30383 181.09799,127.11211 176.42404,132.0873 174.35049,134.2945 174.04683,135.86868 173.4084,147.72082 173.01794,154.96937 172.39611,164.08894 172.02656,167.98653 171.57349,172.76509 171.74314,175.79893 172.54746,177.30183 173.26804,178.64824 177.41891,181.23798 183.03219,183.84328 193.54152,188.721 200.06394,194.03659 202.73434,199.9 206.15413,207.40886 204.48359,213.44999 199.43085,211.84631 196.53452,210.92705 186.84484,201.69828 181.49419,194.76285 176.28385,188.00928 173.32985,187.56381 170.79897,193.15 169.33221,196.38746 169.09294,200.79527 169.04831,225.4 168.95785,275.28029 165.99442,295.4 158.73803,295.4 157.88443,295.4 154.44213,292.5875 151.08847,289.15 Z"
     id="path75"
     inkscape:connector-curvature="0" />
  <path
     style="opacity:1;fill:#000000"
     d="M 279.6,107.11404 C 279.6,106.69826 283.0875,97.480015 287.35,86.629042 L 295.1,66.9 294.87961,53.15 C 294.66836,39.970255 294.74259,39.4 296.66945,39.4 299.58445,39.4 305.8477,42.824795 309.86963,46.617961 312.5503,49.146161 313.63428,51.248151 314.56206,55.717269 316.21042,63.657331 314.65415,69.778039 309.10293,77.187796 304.7652,82.977779 279.6,108.50406 279.6,107.11404 Z"
     id="path77"
     inkscape:connector-curvature="0" />
  <path
     style="opacity:1;fill:#000000"
     d="M 314.86373,256.15 C 313.71704,254.9125 312.24164,251.87753 311.58507,249.40562 310.08644,243.76347 308.013,239.72075 302.14256,230.99499 298.98146,226.29637 297.5934,223.2608 297.79854,221.49499 L 298.1,218.9 312.6,218.89698 C 328.33731,218.89371 329.99478,218.56794 336.32154,214.23454 342.16168,210.23445 345.65314,204.75674 354.08624,186.36373 358.08882,177.63392 366.68166,160.48125 373.18145,148.24669 389.56071,117.41597 389.45715,115.57699 371.1,111.28675 366.15,110.12988 358.52267,108.33105 354.15038,107.28935 345.36299,105.19573 339.62791,101.79926 336.59564,96.892942 334.13666,92.914236 334.05819,90.771689 336.35,90.186159 337.3125,89.940252 344.4,90.317206 352.1,91.023835 359.8,91.730464 373.80592,92.329177 383.22427,92.354308 401.81832,92.403922 406.07497,93.236691 412.40214,98.062654 414.34801,99.546842 416.91832,103.03791 418.32106,106.10189 422.38318,114.97473 420.59068,119.44286 409.56563,127.92645 399.77543,135.45983 392.92775,145.41723 372.79199,181.4 353.40252,216.04914 350.22078,220.79312 338.81923,232.05333 330.36382,240.40391 328.09313,243.3026 326.03033,248.37917 324.65087,251.77406 322.98147,255.41756 322.32056,256.47585 320.71181,259.05186 317.41934,258.90798 314.86373,256.15 Z"
     id="path79"
     inkscape:connector-curvature="0" />
  <path
     style="opacity:1;fill:#000000"
     d="M 272.6,212.72045 C 272.6,212.33193 277.02953,207.48839 282.44341,201.95703 297.29944,186.7786 306.56381,169.21848 307.40165,154.65 307.78929,147.90955 307.97758,147.4 310.08069,147.4 311.32484,147.4 314.31316,149.14937 316.72139,151.2875 320.8863,154.98527 321.09744,155.43671 321.04749,160.5375 320.96278,169.18806 316.30994,176.75166 302.63413,190.47002 296.29036,196.83352 288.60475,203.90544 285.55499,206.18539 280.03071,210.31526 272.6,214.06363 272.6,212.72045 Z"
     id="path81"
     inkscape:connector-curvature="0" />
  <path
     style="opacity:1;fill:#000000"
     d=""
     id="path83"
     inkscape:connector-curvature="0" />
  <path
     style="opacity:1;fill:#000000"
     d="M 8.146742,448.05784 C 6.3952299,446.7771 6.4208074,446.63872 8.7056124,445.0343 10.022526,444.10955 16.95,441.08178 24.1,438.30592 40.864974,431.79721 54.679622,424.4818 72.1,412.88796 88.063494,402.26373 95.121683,396.73434 112.01604,381.61768 131.2173,364.43687 146.52251,348.81817 157.30609,335.4 162.83122,328.525 170.36425,319.525 174.04617,315.4 192.42477,294.80968 213.31499,262.5476 222.60449,240.40832 227.63098,228.42888 230.41942,223.4 232.03534,223.4 235.86383,223.4 246.9351,240.52787 248.21844,248.43615 248.94865,252.93589 247.25914,254.43688 238.1,257.42557 227.20719,260.97997 220.46743,268.39378 200.35431,298.94623 181.08702,328.21384 175.28933,336.04783 157.26183,357.17401 125.27733,394.65623 110.33574,408.57521 86.670791,422.93384 65.193547,435.96508 44.229547,445.19315 29.762032,447.98431 20.441399,449.78251 10.551376,449.81615 8.146742,448.05784 Z"
     id="path85"
     inkscape:connector-curvature="0" />
  <path
     style="opacity:1;fill:#000000"
     d="M 440.87415,395.97486 C 430.42541,391.67063 410.77036,381.40449 398.96574,374.08544 386.24266,366.19694 369.6951,353.66965 336.56969,326.84864 320.91136,314.17039 302.025,299.11045 294.6,293.38211 281.447,283.23465 266.6,269.39608 266.6,267.2839 266.6,266.70609 266.9375,266.38333 267.35,266.56667 270.74548,268.07577 292.37783,281.28286 309.38794,292.23189 344.93298,315.11143 365.44342,325.92952 395.85971,337.8408 419.3987,347.05887 474.3934,364.23952 495.51259,368.9729 507.34135,371.62405 510.83938,377.39676 504.89669,384.45925 500.80203,389.32547 497.13835,390.39426 484.38212,390.44389 471.90971,390.49242 468.29778,391.40953 461.69996,396.20316 455.89964,400.41737 451.54261,400.36961 440.87415,395.97486 Z"
     id="path87"
     inkscape:connector-curvature="0" />
  <path
     style="opacity:1;fill:#000000"
     d="M 378,431 C 375.15449,428.31829 372.7637,424.33865 369.60766,417.03036 362.18134,399.8336 353.53404,389.31837 341.83126,383.25394 334.10905,379.25226 320.1177,371.104 313.68325,366.86117 307.53821,362.80916 300.62937,352.75 303.99141,352.75 304.50561,352.75 306.19311,353.25746 307.74141,353.8777 309.28972,354.49793 315.95651,355.32384 322.55651,355.71306 337.68088,356.60496 340.70763,358.03706 351.84683,369.57167 361.91403,379.99624 365.65691,385.47883 367.65693,392.73038 373.03716,412.23776 372.67785,411.507 381.12977,420.13086 388.95094,428.11115 390.40155,431.00496 387.85651,433.55 385.65479,435.75172 382.0533,434.81996 378,431 Z"
     id="path89"
     inkscape:connector-curvature="0" />
  <path
     style="opacity:1;fill:#000000"
     d="M 242.45797,477.69001 C 238.69911,473.64538 235.23246,467.01882 232.10494,457.9 228.49662,447.37935 226.14511,444.45967 217.71024,440.02727 213.84085,437.99396 210.40604,435.89518 210.07732,435.3633 209.21011,433.96013 213.91285,432.43803 222.46572,431.35363 231.32095,430.2309 233.8548,428.78103 236.69652,423.2108 240.44879,415.85575 241.175,403.0214 239.26037,377.9 238.33817,365.8 237.31738,347.35 236.99195,336.9 236.66653,326.45 235.95481,316.12691 235.41037,313.95979 234.72261,311.22221 232.38764,307.89736 227.76024,303.06648 221.59546,296.63062 221.32317,296.16527 224.1,296.81097 229.39247,298.04164 238.97331,303.04112 243.35705,306.85969 245.69842,308.89921 248.83047,312.6435 250.31715,315.18033 253.49001,320.5944 253.87879,327.37163 251.70651,339.4 250.22857,347.58369 250.72789,361.50627 252.71153,367.42334 254.59236,373.03372 256.86867,374.71407 271.47096,381.27137 284.74946,387.2342 289.6,390.24859 289.6,392.53775 289.6,394.11926 284.14395,398.91399 280.23184,400.77042 274.74024,403.37635 271.5914,402.80786 263.75827,397.79628 255.62975,392.59573 252.33099,392.44251 250.44531,397.17793 248.92062,401.00681 251.08735,433.42593 253.60139,444.4 256.86337,458.6389 256.09447,469.39371 251.30518,476.51763 248.37769,480.87219 245.74013,481.22171 242.45797,477.69001 Z"
     id="path91"
     inkscape:connector-curvature="0" />
  <path
     style="opacity:1;fill:#000000"
     d="M 182.05042,421.96586 C 174.5491,418.76625 169.40688,407.08078 171.50339,397.99821 173.76122,388.21674 183.25886,371.45309 185.69115,372.95633 186.19102,373.26527 186.6,376.79673 186.6,380.80403 186.6,390.14865 188.16143,391.90516 196.45387,391.88899 199.55924,391.88293 203.3375,391.49665 204.85,391.03058 208.81759,389.80799 208.3323,391.36941 202.85,397.4655 200.2375,400.37049 196.075,406.77788 193.6,411.70413 188.30824,422.23688 186.48457,423.8572 182.05042,421.96586 Z"
     id="path93"
     inkscape:connector-curvature="0" />
  <path
     style="opacity:1;fill:#000000"
     d="M 246.6,186.38334 C 246.6,183.69969 256.74282,163.57215 260.11432,159.56535 264.43736,154.42771 269.11522,155.84232 271.6267,163.04675 273.00567,167.00247 271.81805,169.97892 266.95799,174.74753 262.94079,178.68915 249.11207,188.4 247.51622,188.4 247.0123,188.4 246.6,187.49251 246.6,186.38334 Z"
     id="path95"
     inkscape:connector-curvature="0" />
</svg>
