<?xml version="1.0" encoding="UTF-8" standalone="no"?>
<!-- Created with Inkscape (http://www.inkscape.org/) -->

<svg
   xmlns:dc="http://purl.org/dc/elements/1.1/"
   xmlns:cc="http://creativecommons.org/ns#"
   xmlns:rdf="http://www.w3.org/1999/02/22-rdf-syntax-ns#"
   xmlns:svg="http://www.w3.org/2000/svg"
   xmlns="http://www.w3.org/2000/svg"
   xmlns:sodipodi="http://sodipodi.sourceforge.net/DTD/sodipodi-0.dtd"
   xmlns:inkscape="http://www.inkscape.org/namespaces/inkscape"
   width="512"
   height="512"
   viewBox="0 0.2 512 512"
   version="1.1"
   id="svg8"
   inkscape:version="0.92.4 (5da689c313, 2019-01-14)"
   sodipodi:docname="U+5E73-3.svg">
  <defs
     id="defs2">
    <inkscape:path-effect
       effect="bspline"
       id="path-effect3766"
       is_visible="true"
       weight="33.333333"
       steps="2"
       helper_size="0"
       apply_no_weight="true"
       apply_with_weight="true"
       only_selected="false" />
    <inkscape:path-effect
       effect="bspline"
       id="path-effect3762"
       is_visible="true"
       weight="33.333333"
       steps="2"
       helper_size="0"
       apply_no_weight="true"
       apply_with_weight="true"
       only_selected="false" />
    <inkscape:path-effect
       effect="bspline"
       id="path-effect3758"
       is_visible="true"
       weight="33.333333"
       steps="2"
       helper_size="0"
       apply_no_weight="true"
       apply_with_weight="true"
       only_selected="false" />
    <inkscape:path-effect
       effect="bspline"
       id="path-effect3754"
       is_visible="true"
       weight="33.333333"
       steps="2"
       helper_size="0"
       apply_no_weight="true"
       apply_with_weight="true"
       only_selected="false" />
    <inkscape:path-effect
       effect="bspline"
       id="path-effect3750"
       is_visible="true"
       weight="33.333333"
       steps="2"
       helper_size="0"
       apply_no_weight="true"
       apply_with_weight="true"
       only_selected="false" />
    <inkscape:path-effect
       effect="bspline"
       id="path-effect3742"
       is_visible="true"
       weight="33.333333"
       steps="2"
       helper_size="0"
       apply_no_weight="true"
       apply_with_weight="true"
       only_selected="false" />
    <inkscape:path-effect
       effect="bspline"
       id="path-effect3738"
       is_visible="true"
       weight="33.333333"
       steps="2"
       helper_size="0"
       apply_no_weight="true"
       apply_with_weight="true"
       only_selected="false" />
    <inkscape:path-effect
       effect="bspline"
       id="path-effect3734"
       is_visible="true"
       weight="33.333333"
       steps="2"
       helper_size="0"
       apply_no_weight="true"
       apply_with_weight="true"
       only_selected="false" />
  </defs>
  <sodipodi:namedview
     id="base"
     pagecolor="#ffffff"
     bordercolor="#666666"
     borderopacity="1.0"
     inkscape:pageopacity="0.0"
     inkscape:pageshadow="2"
     inkscape:zoom="1"
     inkscape:cx="153"
     inkscape:cy="248.2996"
     inkscape:document-units="px"
     inkscape:current-layer="svg8"
     showgrid="true"
     units="px"
     viewbox-y="0.2"
     inkscape:snap-grids="false"
     inkscape:window-width="1600"
     inkscape:window-height="821"
     inkscape:window-x="-9"
     inkscape:window-y="-9"
     inkscape:window-maximized="1"
     inkscape:snap-global="true"
     inkscape:snap-nodes="false"
     inkscape:snap-others="false"
     inkscape:snap-to-guides="false"
     guidecolor="#00000e"
     guideopacity="0.49803922" />
  <metadata
     id="metadata5">
    <rdf:RDF>
      <cc:Work
         rdf:about="">
        <dc:format>image/svg+xml</dc:format>
        <dc:type
           rdf:resource="http://purl.org/dc/dcmitype/StillImage" />
        <dc:title />
      </cc:Work>
    </rdf:RDF>
  </metadata>
  <g
     inkscape:label="圖層 1"
     inkscape:groupmode="layer"
     id="layer1"
     transform="translate(0,-161.53331)" />
  <path
     style="fill:none;stroke:#000000;stroke-width:1px;stroke-linecap:butt;stroke-linejoin:miter;stroke-opacity:1"
     d="M -136.99943,231.36657 C -136,231.2 -136,231.2 -136,231.2 -138,231.53333 -139.99887,231.86648 -139.9983,231.86638 -139.99773,231.86629 -137.99886,231.53314 -136.99943,231.36657 Z"
     id="path3740"
     inkscape:connector-curvature="0"
     inkscape:path-effect="#path-effect3742"
     inkscape:original-d="M -136,231.2 C -135.999,231.199 -135.999,231.199 -136,231.2 -136,231.2 -139.999,231.86567 -142,232.2 -139.99786,231.86548 -137.999,231.53233 -136,231.2 Z" />
  <path
     style="fill:none;stroke:#000000;stroke-width:1px;stroke-linecap:butt;stroke-linejoin:miter;stroke-opacity:1"
     d="M -145,280.2 C -145,280.2 -145,280.2 -145,280.2 Z"
     id="path3760"
     inkscape:connector-curvature="0"
     inkscape:path-effect="#path-effect3762"
     inkscape:original-d="M -145,280.2 C -144.999,280.199 -144.999,280.199 -145,280.2 Z" />
  <path
     style="fill:none;stroke:#000000;stroke-width:1px;stroke-linecap:butt;stroke-linejoin:miter;stroke-opacity:1"
     d="M 452,178.2 C 452,178.2 452,178.2 452,178.2 452,178.2 452,178.2 452,178.2 Z"
     id="path3764"
     inkscape:connector-curvature="0"
     inkscape:path-effect="#path-effect3766"
     inkscape:original-d="M 452,178.2 C 452.001,178.199 452.001,178.199 452,178.2 452,178.2 452.001,178.199 452,178.2 Z" />
  <path
     style="opacity:1;fill:#000000"
     d="M 86.757054,316.20865 C 78.224452,314.66935 56.240788,301.43509 48.790774,293.35278 44.079113,288.24123 43.645167,284.953 47.211599,281.38657 50.438894,278.15927 52.176623,278.28799 58.757054,282.2418 65.305258,286.17623 66.857756,286.80727 72.757054,287.93227 82.417767,289.77459 106.44385,284.57247 142.2337,272.88923 159.28677,267.32242 161.78538,266.75459 166.88329,267.28743 171.38088,267.75752 173.98175,267.38232 179.43657,265.47652 196.94593,259.35912 225.06718,253.60724 257.55252,249.4988 282.75189,246.31182 281.75705,246.31457 281.75705,249.43202 281.75705,250.80702 281.41955,251.9325 281.00705,251.93309 280.59455,251.93367 272.38205,253.28409 262.75705,254.93401 230.86831,260.40039 222.57739,262.70887 196.25705,273.44993 189.10705,276.36777 173.88308,282.20259 162.42599,286.41618 134.67611,296.62182 127.48761,299.77785 113.05537,308.09183 98.700819,316.36105 94.606564,317.62472 86.757054,316.20865 Z"
     id="path3768"
     inkscape:connector-curvature="0" />
  <path
     style="opacity:1;fill:#000000"
     d="M 455.25705,271.5277 C 451.40705,270.25454 444.20705,267.40833 439.25705,265.2028 417.02701,255.29793 400.76494,251.69729 370.39612,249.95608 338.515,248.12817 297.78548,248.85942 286.00705,251.4712 284.28636,251.85276 283.75705,251.52186 283.75705,250.06462 283.75705,247.69912 282.90093,247.82387 325.25705,244.01703 352.74355,241.54663 364.68947,240.97818 396.75705,240.61471 439.02625,240.1356 442.61273,240.49363 455.20126,246.44895 465.14774,251.15439 475.75705,262.70859 475.75705,268.83548 475.75705,274.1492 466.75814,275.33101 455.25705,271.5277 Z"
     id="path3770"
     inkscape:connector-curvature="0" />
  <path
     style="opacity:1;fill:#000000"
     d=""
     id="path3774"
     inkscape:connector-curvature="0"
     transform="translate(0,0.2)" />
  <path
     style="opacity:1;fill:#000000"
     d="M 272.05257,220.68487 C 272.86497,184.75695 272.12165,177.02608 266.8276,166.34225 262.52602,157.66129 259.09162,154.38025 255.30205,155.33137 254.05541,155.64426 250.5987,158.9449 247.62047,162.66614 243.41486,167.92095 241.26467,169.73157 237.99292,170.77327 234.18646,171.98521 233.64347,172.5754 232.36066,176.89508 231.57984,179.5244 230.25737,182.99763 229.42183,184.61338 225.31887,192.54762 210.49633,203.3923 191.25177,212.53991 179.80431,217.98129 157.96703,225.88962 154.31277,225.91729 151.96165,225.9351 154.24437,224.14685 170.25705,213.42678 187.3587,201.97768 201.18478,190.35774 215.9885,174.99241 232.28751,158.07507 240.11819,148.09364 243.23924,140.25708 245.27275,135.15118 246.21599,134.06164 250.87923,131.43202 253.80527,129.78202 258.01229,126.62288 260.22817,124.41172 265.81841,118.83338 271.12621,108.03806 271.1995,102.09764 L 271.25705,97.432021 265.75705,97.448439 C 261.02497,97.462564 258.32157,98.405017 246.39483,104.19844 237.02621,108.74925 231.34906,110.93202 228.88149,110.93202 223.47533,110.93202 216.33685,105.64072 200.64219,90.000052 183.97723,73.392413 183.36702,72.112124 187.26031,61.923496 188.72744,58.084057 190.74686,53.931224 191.74792,52.694979 L 193.56801,50.447261 199.58224,56.183864 C 202.89006,59.338996 206.78689,62.373067 208.24186,62.926244 213.76202,65.025006 223.78484,63.980646 246.16287,58.97494 275.7066,52.36635 284.37193,50.932021 294.75318,50.932021 305.67009,50.932021 307.52579,49.696612 311.2505,39.949167 314.67992,30.974463 318.08795,27.932021 324.71165,27.932021 332.98929,27.932021 340.76643,32.400381 342.70329,38.269126 343.5563,40.853774 343.46302,42.51395 342.27568,45.879215 341.44043,48.246557 340.75705,53.061545 340.75705,56.579186 340.75705,63.968695 340.59032,64.110132 329.82271,65.854593 324.70924,66.683028 322.69284,67.567786 320.00019,70.164521 313.80538,76.138687 306.0031,87.309228 300.69103,97.809503 296.13864,106.80812 294.70028,108.73474 289.86574,112.3095 277.5588,121.40951 272.06215,129.3251 271.07817,139.36501 270.55623,144.69055 270.73002,145.13665 279.48022,160.93202 281.15599,163.95702 283.03527,168.68202 283.65641,171.43202 285.30348,178.72414 286.65258,197.30596 287.40819,223.10714 L 288.07226,245.78226 284.66466,246.3033 C 282.79047,246.58988 279.04739,247.07486 276.34669,247.38103 L 271.43633,247.93772 Z"
     id="path3776"
     inkscape:connector-curvature="0" />
  <path
     style="opacity:1;fill:#000000"
     d="M 346.63086,189.37024 C 339.19288,186.31065 332.25072,181.99858 320.92712,173.40452 311.9212,166.56947 307.95272,161.84247 309.33826,159.60062 310.68948,157.4143 317.29492,155.5673 325.7131,155.02191 341.08515,154.026 355.06296,157.7282 363.29764,164.97666 370.86195,171.63503 373.48511,179.48964 370.24013,185.76475 366.99757,192.03516 356.86951,193.58187 346.63086,189.37024 Z"
     id="path3778"
     inkscape:connector-curvature="0"
     transform="translate(0,0.2)" />
  <path
     style="opacity:1;fill:#000000"
     d="M 274.6691,468.29071 C 272.92649,463.84721 271.67833,394.6546 271.98443,319.46357 L 272.25705,252.49512 276.59707,251.63692 C 281.65577,250.63661 281.4061,249.69052 276.04332,249.53856 273.38026,249.46311 272.18948,248.94454 271.96205,247.76123 271.70502,246.42398 272.75045,245.95182 277.19898,245.39601 280.25592,245.01407 282.75705,244.30342 282.75705,243.8168 282.75705,243.33017 283.65705,242.93202 284.75705,242.93202 286.22372,242.93202 286.75705,243.59869 286.75705,245.43202 286.75705,246.98758 286.19039,247.93202 285.25705,247.93202 284.43205,247.93202 283.75705,248.60702 283.75705,249.43202 283.75705,250.25702 284.50569,250.93202 285.42069,250.93202 286.96239,250.93202 287.03499,255.86127 286.41119,318.18202 285.43283,415.92618 283.81741,450.98541 279.65135,464.89049 277.92042,470.66783 276.09098,471.91636 274.6691,468.29071 Z"
     id="path3788"
     inkscape:connector-curvature="0" />
</svg>
