<?xml version="1.0" encoding="UTF-8" standalone="no"?>
<!-- Created with Inkscape (http://www.inkscape.org/) -->

<svg
   xmlns:dc="http://purl.org/dc/elements/1.1/"
   xmlns:cc="http://creativecommons.org/ns#"
   xmlns:rdf="http://www.w3.org/1999/02/22-rdf-syntax-ns#"
   xmlns:svg="http://www.w3.org/2000/svg"
   xmlns="http://www.w3.org/2000/svg"
   xmlns:sodipodi="http://sodipodi.sourceforge.net/DTD/sodipodi-0.dtd"
   xmlns:inkscape="http://www.inkscape.org/namespaces/inkscape"
   width="512"
   height="512"
   viewBox="0 0 512 512"
   version="1.1"
   id="svg8"
   inkscape:version="0.92.4 (5da689c313, 2019-01-14)"
   sodipodi:docname="U+671D-3.svg">
  <defs
     id="defs2">
    <inkscape:path-effect
       effect="bspline"
       id="path-effect43"
       is_visible="true"
       weight="33.333333"
       steps="2"
       helper_size="0"
       apply_no_weight="true"
       apply_with_weight="true"
       only_selected="false" />
    <inkscape:path-effect
       effect="bspline"
       id="path-effect39"
       is_visible="true"
       weight="33.333333"
       steps="2"
       helper_size="0"
       apply_no_weight="true"
       apply_with_weight="true"
       only_selected="false" />
    <inkscape:path-effect
       effect="bspline"
       id="path-effect35"
       is_visible="true"
       weight="33.333333"
       steps="2"
       helper_size="0"
       apply_no_weight="true"
       apply_with_weight="true"
       only_selected="false" />
    <inkscape:path-effect
       effect="bspline"
       id="path-effect31"
       is_visible="true"
       weight="33.333333"
       steps="2"
       helper_size="0"
       apply_no_weight="true"
       apply_with_weight="true"
       only_selected="false" />
    <inkscape:path-effect
       effect="bspline"
       id="path-effect27"
       is_visible="true"
       weight="33.333333"
       steps="2"
       helper_size="0"
       apply_no_weight="true"
       apply_with_weight="true"
       only_selected="false" />
    <inkscape:path-effect
       effect="bspline"
       id="path-effect23"
       is_visible="true"
       weight="33.333333"
       steps="2"
       helper_size="0"
       apply_no_weight="true"
       apply_with_weight="true"
       only_selected="false" />
  </defs>
  <sodipodi:namedview
     id="base"
     pagecolor="#ffffff"
     bordercolor="#666666"
     borderopacity="1.0"
     inkscape:pageopacity="0.0"
     inkscape:pageshadow="2"
     inkscape:zoom="1"
     inkscape:cx="400"
     inkscape:cy="200"
     inkscape:document-units="px"
     inkscape:current-layer="svg8"
     showgrid="false"
     units="px"
     inkscape:window-width="1600"
     inkscape:window-height="821"
     inkscape:window-x="-9"
     inkscape:window-y="-9"
     inkscape:window-maximized="1" />
  <metadata
     id="metadata5">
    <rdf:RDF>
      <cc:Work
         rdf:about="">
        <dc:format>image/svg+xml</dc:format>
        <dc:type
           rdf:resource="http://purl.org/dc/dcmitype/StillImage" />
        <dc:title />
      </cc:Work>
    </rdf:RDF>
  </metadata>
  <g
     inkscape:label="圖層 1"
     inkscape:groupmode="layer"
     id="layer1"
     transform="translate(0,-161.53331)" />
  <path
     style="fill:none;stroke:#000000;stroke-width:1px;stroke-linecap:butt;stroke-linejoin:miter;stroke-opacity:1"
     d="M 624,187 C 624,187 624,187 624,187 Z"
     id="path41"
     inkscape:connector-curvature="0"
     inkscape:path-effect="#path-effect43"
     inkscape:original-d="M 624,187 C 624.001,186.999 624.001,186.999 624,187 Z" />
  <path
     style="opacity:1;fill:#000000"
     d="M 168.74348,460.86727 C 163.76213,456.67575 163.12471,452.92871 165.92238,444.2835 167.89156,438.19843 168.43241,433.84551 168.99795,419.53071 169.37537,409.97759 170.33489,395.12759 171.13023,386.53071 172.95015,366.85904 172.97309,367.77309 170.6,365.4 163.0252,357.8252 108.97805,371.40371 64.202602,392.13071 49.416641,398.97528 43.390838,398.09674 31.317856,387.33627 22.053107,379.07873 23.134013,378.00218 42.139519,376.55819 56.663233,375.45471 69.214845,373.06039 105.1,364.54798 116.65,361.80817 131.05,358.61253 137.1,357.44655 143.15,356.28057 151.6678,354.63814 156.02844,353.7967 165.82093,351.90712 169.1009,350.26584 171.20119,346.20431 174.66256,339.51076 169.96325,325.21292 162.25929,318.99825 158.74943,316.1669 157.80183,315.90357 151.25929,315.94139 147.32168,315.96415 140.725,316.79273 136.6,317.78267 127.18509,320.04211 119.64513,319.4829 111.93574,315.95343 105.18323,312.86203 102.6,310.76135 102.6,308.36164 102.6,306.10093 105.40175,305.43028 114.91574,305.41365 129.44752,305.38827 131.21598,302.20224 125.46954,286.4 123.76949,281.725 119.01753,268.02431 114.90962,255.95402 110.80171,243.88374 106.58069,232.32231 105.52957,230.26196 103.33344,225.95718 99.94274,223.17562 90.1,217.60431 86.25,215.42509 83.1,213.03757 83.1,212.29872 83.1,210.50052 90.769532,209.19774 97.1,209.92062 110.55253,211.45678 118.78846,214.77804 126.34116,221.71256 132.79396,227.6372 134.68302,232.2703 133.96061,240.4 133.58889,244.58324 133.98972,250.28604 135.0852,256.4 136.0214,261.625 137.15864,270.98566 137.6124,277.20146 138.56026,290.18573 139.80263,292.97219 145.08586,293.96333 149.99317,294.88394 153.05241,293.91245 161.22385,288.83858 172.57532,281.79013 176.23328,280.44663 184.1399,280.42196 188.01185,280.40988 193.86185,281.1321 197.1399,282.0269 205.82928,284.39879 207.03975,284.32733 207.44993,281.41821 207.64239,280.05322 209.10212,277.45321 210.69379,275.6404 216.59866,268.91512 218.42094,263.90742 226.77808,231.44 231.34538,213.69608 233.03456,205.20003 233.63846,196.93442 234.62887,183.37858 234.223,182.4 227.61031,182.4 222.63903,182.4 217.26841,184.12684 201.6,190.76322 188.70062,196.22677 186.28252,195.62348 181.24224,185.68415 178.14853,179.58343 175.3639,177.02277 172.73174,177.85819 171.62536,178.20934 168.24622,182.25305 165.22253,186.84422 160.49211,194.02687 158.95942,195.56631 154.23952,197.87554 143.57396,203.09371 141.28798,199.29733 148.28251,187.98261 150.3506,184.63717 155.09306,175.94575 158.82133,168.66834 165.45533,155.71907 167.16677,149.48635 164.53511,147.8599 162.35581,146.51302 156.78512,148.58397 145.6,154.89919 133.45125,161.75848 130.55763,162.45186 125.30034,159.76345 116.70917,155.3702 103.08547,142.10704 98.950546,134.11099 97.576229,131.45335 97.576481,130.99495 98.953021,129.61841 100.64615,127.92528 103.26469,128.23075 123.1,132.43537 L 133.1,134.55513 148.57997,130.79305 C 169.42117,125.72803 168.6,126.6665 168.6,107.91334 168.6,90.349472 167.73784,87.516893 161.42564,84.342402 154.53448,80.87674 153.58919,79.729451 154.78903,76.287584 156.32999,71.867198 160.81449,69.916581 169.1,70.062768 177.50238,70.211017 182.18318,72.052828 188.16088,77.562885 197.09397,85.797121 199.33323,92.861866 197.09516,105.75003 196.3467,110.06008 195.97874,114.22341 196.27747,115.00187 197.83458,119.05964 209.68521,117.8599 226.92755,111.8989 234.0848,109.42451 241.10859,107.4 242.53597,107.4 246.14238,107.4 251.44743,110.44084 253.37059,113.61038 257.18024,119.88901 250.3443,124.34643 233.1,126.82796 218.29465,128.95851 191.94188,134.94597 189.06051,136.83392 183.49537,140.48034 178.18189,151.6912 176.90371,162.48344 176.04907,169.69953 176.97541,171.93293 181.58863,173.77877 191.58429,177.77824 205.47254,176.39568 221.36171,169.81939 225.90565,167.93873 230.87945,166.4 232.41461,166.4 235.72963,166.4 249.33192,172.86175 255.38309,177.31115 266.76079,185.67712 266.35962,196.25178 254.2704,206.64144 247.45862,212.49557 245.23739,217.011 237.42748,240.88051 227.48899,271.25561 226.52008,275.08962 225.61021,287.64163 224.93039,297.02002 224.29021,300.22206 222.42954,303.55075 218.65148,310.3096 217.48282,310.49946 211.88547,305.2638 206.01152,299.7694 202.12433,298.9058 190.03124,300.40854 177.97037,301.90728 174.16847,303.31393 173.8066,306.41142 173.57463,308.39705 174.51673,309.68971 178.3066,312.58584 180.94297,314.60049 184.40358,317.61395 185.99685,319.28241 188.79604,322.21373 188.86608,322.52809 188.07454,328.60799 186.16752,343.25593 187.15345,345.44964 195.97245,346.18098 202.9923,346.76312 213.14586,344.49363 231.58353,338.22129 249.78419,332.02959 252.34563,332.07239 266.27066,338.80083 277.57644,344.26368 279.6,345.8165 279.6,349.02931 279.6,353.81743 276.53815,354.2611 247.58287,353.66871 220.56022,353.11586 209.07884,353.88076 198.86325,356.91446 192.56824,358.78388 187.46405,362.21765 185.78249,365.71434 183.01871,371.46143 181.35627,395.71739 181.53069,427.75023 181.67533,454.3121 181.48011,458.93403 180.12629,461.00023 177.95596,464.31257 172.76593,464.25195 168.74348,460.86727 Z"
     id="path45"
     inkscape:connector-curvature="0" />
  <path
     style="opacity:1;fill:#000000"
     d="M 427.39076,430.84938 C 424.04349,429.03252 420.9371,424.53251 411.54862,407.9 404.8827,396.09073 402.92005,393.57188 390.12105,380.4 375.50608,365.35926 370.60461,358.99539 372.31656,357.28344 372.94344,356.65656 377.49975,357.28771 385.19336,359.06718 392.51434,360.76046 400.07604,361.83628 404.82727,361.86054 411.96026,361.89697 412.76728,361.68727 415.32059,359.13396 419.53893,354.91562 419.51726,346.53537 415.20365,313.9 409.32959,269.45885 406.08954,233.27904 404.72582,196.9 403.80335,172.29215 404.30361,164.43247 407.51194,153.12615 411.82959,137.91058 409.4124,134.53733 393.54334,133.63252 381.8747,132.9672 372.78368,134.51441 352.6,140.60068 343.525,143.3372 333.4,145.80527 330.1,146.08528 321.25639,146.83569 318.57722,144.6577 311.37612,130.86405 304.98223,118.61661 304.20141,114.3625 307.90227,111.9376 312.21976,109.10867 315.75862,109.11556 324.02142,111.96896 331.51038,114.55513 332.55425,114.66252 344.50625,114.07629 360.0373,113.31452 375.51808,110.54658 390.6,105.8348 403.76562,101.72169 411.35407,100.70517 417.16186,102.27668 427.65219,105.11522 439.44885,117.74103 440.3406,127.08457 440.7652,131.53347 440.48656,132.2934 436.67991,137.06851 430.86491,144.3629 428.87021,149.51844 426.62512,163.05639 421.36556,194.77162 421.34157,228.6486 426.52646,302.4 427.58979,317.525 428.74958,334.625 429.10379,340.4 430.16604,357.71873 432.87535,365.55296 439.1418,369.42583 443.51161,372.12652 444.6,374.71899 444.6,382.42685 444.6,390.37189 440.93653,418.62912 439.06416,425.12604 437.01313,432.24296 433.3064,434.06032 427.39076,430.84938 Z"
     id="path47"
     inkscape:connector-curvature="0" />
  <path
     style="opacity:1;fill:#000000"
     d="M 226.1,445.61916 C 226.65,445.11186 231.825,441.4068 237.6,437.38568 251.89359,427.43308 264.32616,414.69633 274.19042,399.9 288.25966,378.79623 295.02916,362.61483 301.5924,334.4 307.28045,309.94759 307.26925,309.57141 300.7262,305.28795 296.20823,302.33023 292.6,298.00995 292.6,295.55812 292.6,294.98981 294.88785,293.27962 297.68411,291.7577 308.01716,286.13375 309.65856,277.00692 309.16846,227.9 308.86369,197.36285 308.62539,193.22802 306.82865,187.30213 304.1216,178.37385 301.47606,172.59205 297.73458,167.42709 296.01056,165.04715 294.6,162.14257 294.6,160.97247 294.6,157.36086 297.39063,154.4 300.7946,154.4 304.46458,154.4 319.1994,162.78295 320.806,165.78491 321.40315,166.9007 322.10787,175.25805 322.37206,184.3568 322.63624,193.45556 323.26143,201.6875 323.76138,202.65 325.50563,206.00806 330.28456,204.43825 342.65224,196.44463 360.97931,184.59928 375.44311,188.8386 369.05117,204.18212 366.21884,210.98098 356.21385,219.5249 343.63294,225.88841 338.73251,228.36707 337.45295,228.59391 331.28732,228.07701 325.00627,227.55042 324.20594,227.70315 322.07388,229.83521 318.06995,233.83915 317.38228,239.05339 317.75512,262.58222 318.08948,283.68248 318.16955,284.41547 320.3813,286.62302 324.26839,290.50276 330.87623,289.77902 357.1,282.60134 372.97049,278.25744 381.86142,277.85713 388.28392,281.19729 393.19856,283.75325 395.6,286.80925 395.6,290.5075 395.6,295.2279 391.11622,297.07144 370.36533,300.8829 356.0776,303.50723 349.12329,305.7501 336.79073,311.7112 332.77063,313.65437 327.73629,315.53908 325.60332,315.89944 319.84049,316.87306 317.0368,320.09568 314.60043,328.54642 306.5094,356.61067 300.30108,371.93516 290.09155,389.04363 276.56565,411.70946 253.96273,434.45102 237.12905,442.33097 230.75651,445.314 224.36484,447.21961 226.1,445.61916 Z"
     id="path49"
     inkscape:connector-curvature="0" />
  <path
     style="opacity:1;fill:#000000"
     d="M 155.1,259.47851 C 152.40447,258.31971 148.85058,254.33462 148.43665,252.00667 148.15575,250.42689 149.09364,249.90409 154.1,248.84975 157.4,248.15477 161.38305,247.08808 162.95122,246.47934 168.02939,244.50806 176.04005,238.56549 178.4479,234.9834 181.25475,230.80773 186.04208,228.961 191.61791,229.90303 197.08226,230.82622 199.93333,233.34604 199.93333,237.25231 199.93333,242.01334 196.37629,245.08932 184.1,250.94428 167.81168,258.71271 159.20816,261.24458 155.1,259.47851 Z"
     id="path51"
     inkscape:connector-curvature="0" />
</svg>
