<?xml version="1.0" encoding="UTF-8" standalone="no"?>
<!-- Created with Inkscape (http://www.inkscape.org/) -->

<svg
   xmlns:dc="http://purl.org/dc/elements/1.1/"
   xmlns:cc="http://creativecommons.org/ns#"
   xmlns:rdf="http://www.w3.org/1999/02/22-rdf-syntax-ns#"
   xmlns:svg="http://www.w3.org/2000/svg"
   xmlns="http://www.w3.org/2000/svg"
   xmlns:sodipodi="http://sodipodi.sourceforge.net/DTD/sodipodi-0.dtd"
   xmlns:inkscape="http://www.inkscape.org/namespaces/inkscape"
   width="512"
   height="512"
   viewBox="0 0 512 512"
   version="1.1"
   id="svg8"
   inkscape:version="0.92.4 (5da689c313, 2019-01-14)"
   sodipodi:docname="U+6BB7-3.svg">
  <defs
     id="defs2">
    <inkscape:path-effect
       effect="bspline"
       id="path-effect55"
       is_visible="true"
       weight="33.333333"
       steps="2"
       helper_size="0"
       apply_no_weight="true"
       apply_with_weight="true"
       only_selected="false" />
    <inkscape:path-effect
       effect="bspline"
       id="path-effect51"
       is_visible="true"
       weight="33.333333"
       steps="2"
       helper_size="0"
       apply_no_weight="true"
       apply_with_weight="true"
       only_selected="false" />
    <inkscape:path-effect
       effect="bspline"
       id="path-effect47"
       is_visible="true"
       weight="33.333333"
       steps="2"
       helper_size="0"
       apply_no_weight="true"
       apply_with_weight="true"
       only_selected="false" />
    <inkscape:path-effect
       effect="bspline"
       id="path-effect43"
       is_visible="true"
       weight="33.333333"
       steps="2"
       helper_size="0"
       apply_no_weight="true"
       apply_with_weight="true"
       only_selected="false" />
    <inkscape:path-effect
       effect="bspline"
       id="path-effect39"
       is_visible="true"
       weight="33.333333"
       steps="2"
       helper_size="0"
       apply_no_weight="true"
       apply_with_weight="true"
       only_selected="false" />
    <inkscape:path-effect
       effect="bspline"
       id="path-effect23"
       is_visible="true"
       weight="33.333333"
       steps="2"
       helper_size="0"
       apply_no_weight="true"
       apply_with_weight="true"
       only_selected="false" />
  </defs>
  <sodipodi:namedview
     id="base"
     pagecolor="#ffffff"
     bordercolor="#666666"
     borderopacity="1.0"
     inkscape:pageopacity="0.0"
     inkscape:pageshadow="2"
     inkscape:zoom="1"
     inkscape:cx="400"
     inkscape:cy="240"
     inkscape:document-units="px"
     inkscape:current-layer="svg8"
     showgrid="false"
     units="px"
     inkscape:window-width="1600"
     inkscape:window-height="821"
     inkscape:window-x="-9"
     inkscape:window-y="-9"
     inkscape:window-maximized="1" />
  <metadata
     id="metadata5">
    <rdf:RDF>
      <cc:Work
         rdf:about="">
        <dc:format>image/svg+xml</dc:format>
        <dc:type
           rdf:resource="http://purl.org/dc/dcmitype/StillImage" />
        <dc:title />
      </cc:Work>
    </rdf:RDF>
  </metadata>
  <g
     inkscape:label="圖層 1"
     inkscape:groupmode="layer"
     id="layer1"
     transform="translate(0,-161.53331)" />
  <path
     style="fill:none;stroke:#000000;stroke-width:1px;stroke-linecap:butt;stroke-linejoin:miter;stroke-opacity:1"
     d="M -93,152 C -93,152 -93,152 -93,152 Z"
     id="path41"
     inkscape:connector-curvature="0"
     inkscape:path-effect="#path-effect43"
     inkscape:original-d="M -93,152 C -92.999,151.999 -92.999,151.999 -93,152 Z" />
  <path
     style="fill:none;stroke:#000000;stroke-width:1px;stroke-linecap:butt;stroke-linejoin:miter;stroke-opacity:1"
     d="M -144,265 C -144,265 -144,265 -144,265 Z"
     id="path53"
     inkscape:connector-curvature="0"
     inkscape:path-effect="#path-effect55"
     inkscape:original-d="M -144,265 C -143.999,264.999 -143.999,264.999 -144,265 Z" />
  <path
     style="opacity:1;fill:#000000"
     d="M 164.6,90.631063 C 164.6,89.658148 166.01757,85.495648 167.75015,81.381063 171.98164,71.331996 173.57391,65.020379 173.58813,58.239798 173.59879,53.158321 173.20399,52.084752 169.72681,47.739798 163.89231,40.449222 160.64444,37.734249 153.77885,34.408507 147.03452,31.14151 145.8542,29.662058 147.51553,26.557841 148.50274,24.71321 149.33604,24.597664 158.34253,25.056553 171.86771,25.745673 179.34586,29.338924 190.87384,40.687854 205.55658,55.142553 209.07769,62.565472 204.43606,69.278633 202.07919,72.687367 187.47864,82.244418 174.37496,88.955669 166.8167,92.826752 164.6,93.206686 164.6,90.631063 Z"
     id="path57"
     inkscape:connector-curvature="0" />
  <path
     style="opacity:1;fill:#000000"
     d="M 34.98572,455.87663 C 33.59787,454.48878 32.61133,452.57628 32.79342,451.62663 32.97551,450.67698 38.74398,445.43414 45.61225,439.97587 52.48051,434.51759 61.39907,426.65747 65.43126,422.50894 83.54121,403.87646 95.82833,378.3735 102.03733,346.52991 105.57859,328.36809 110.47189,296.56502 111.24681,286.6745 111.8162,279.4073 111.68747,278.3708 110.14182,277.77767 107.98981,276.95187 89.69793,286.23697 82.84298,291.63477 80.23434,293.6889 76.66336,296.12241 74.90747,297.04258 71.91081,298.61297 71.43279,298.60786 67.11594,296.95924 64.58649,295.99323 61.82664,294.14934 60.98295,292.8617 59.59581,290.74466 59.60997,290.18124 61.13094,286.97603 63.37162,282.25416 68.16807,279.4 73.86258,279.4 76.7478,279.4 81.96262,278.00012 88.24454,275.53926 93.66504,273.41586 100.28481,270.88557 102.95513,269.9164 113.5641,266.06599 117.95158,258.58368 119.61339,241.50775 122.03813,216.59226 119.7514,214.28112 100.29492,221.98312 85.98714,227.64696 68.67632,236.94311 62.31405,242.37936 57.16705,246.77722 56.24158,247.21423 53.93345,246.33668 48.28293,244.18836 39.41228,236.7762 37.01468,232.19966 35.51618,229.33932 35.13235,222.62209 36.36531,220.83532 36.81002,220.19087 41.44176,219.77275 48.1,219.77601 60.12088,219.7819 71.17418,217.53719 91.85859,210.88953 103.59052,207.11906 109.27243,204.54275 114.49062,200.62763 117.60328,198.29225 118.79199,198.0689 128.99062,197.90309 137.33375,197.76746 143.58602,196.93582 154.1,194.56319 170.67334,190.8232 182.68641,187.22862 186.11083,184.98486 191.1443,181.68681 196.05616,168.19845 199.06926,149.4 202.71632,126.64629 200.2697,121.58891 187.22025,124.90708 173.2816,128.45135 137.43775,141.86169 124.2534,148.465 109.76852,155.71967 108.5039,156.05635 102.25557,154.32135 96.18819,152.63659 91.7019,147.80931 90.95694,142.16394 90.20765,136.48571 91.26238,134.87352 96.35107,133.91888 101.61795,132.93081 105.51661,130.67713 106.78866,127.88528 L 107.89062,125.46675 110.82203,127.93338 C 115.45652,131.83304 120.76599,131.63284 139.6,126.84825 147.025,124.96201 164.96412,119.47701 179.4647,114.65936 L 205.82941,105.9 212.9647,99.69022 C 230.19842,84.69187 241.25199,84.03368 248.01395,97.60317 251.17653,103.94963 251.58124,112.208 248.85,114.66308 247.8875,115.52826 243.42014,118.09399 238.92253,120.3647 234.42492,122.63542 228.85975,126.32289 226.5555,128.5591 221.12564,133.8286 216.16002,144.63855 212.48499,159.19006 207.07425,180.61424 207.48343,181.03518 229.90376,177.1087 259.55148,171.91649 275.01947,170.17069 284.91125,170.90023 294.08036,171.57648 294.10576,171.57186 296.79639,168.73896 302.67849,162.54583 305.95671,149.85416 304.57899,138.60845 303.55823,130.27635 302.0071,126.81127 298.68137,125.43371 297.17049,124.80788 293.28568,121.61928 290.04846,118.34792 285.26458,113.51359 284.55513,112.4 286.25918,112.4 289.74493,112.4 295.73837,115.34506 302.65642,120.4573 311.21299,126.78035 313.58847,127.61463 322.78544,127.52673 330.70524,127.45104 356.96935,123.69298 369.82285,120.79628 378.57431,118.82402 381.16402,117.57024 385.1,113.4 388.69338,109.59275 392.66496,107.38306 395.80034,107.4466 398.49727,107.50125 413.98816,120.37919 417.35,125.36134 420.75601,130.40894 420.32441,133.76886 415.85,137.03848 404.91855,145.02649 401.33135,150.57703 393.64285,171.4 386.98003,189.44505 378.26671,206.50933 372.48542,212.83499 366.59654,219.27836 362.77325,220.55861 357.47148,217.8625 348.50622,213.30338 329.6,198.60337 329.6,196.19179 329.6,195.75631 331.54332,195.4 333.9185,195.4 339.04,195.4 347.93217,192.92497 349.90748,190.94966 350.86506,189.99208 351.53427,185.65163 352.0236,177.2246 353.23875,156.29796 355.47022,150.4 362.17258,150.4 365.38005,150.4 365.59771,150.60856 365.56438,153.65 365.54479,155.4375 364.87682,159.6 364.08,162.9 362.13864,170.94009 362.16073,178.79055 364.12932,180.42433 365.39923,181.47827 366.09159,181.28702 368.21121,179.29677 372.61131,175.16525 380.53538,156.94531 382.628,146.14801 383.75456,140.33533 382.56472,136.68023 379.27737,135.85516 376.7335,135.21669 339.71631,141.40873 330.80866,143.96276 321.20148,146.71736 314.5066,155.2518 311.59378,168.45735 310.43184,173.72513 310.59034,178.62319 312.17124,186.30215 312.92807,189.97829 313.29702,189.87083 306.85,187.852 305.58283,187.4552 302.97516,189.62754 297.39862,195.72556 290.55914,203.20462 281.7478,210.4 279.42856,210.4 277.33814,210.4 279.0429,206.90484 283.96103,201.10739 286.90959,197.63165 289.85043,193.80059 290.49621,192.59393 292.31576,189.19407 290.32581,186.69302 284.40132,184.93364 275.83081,182.38847 262.09515,182.97634 239.35786,186.86144 216.09958,190.83556 209.23951,192.66852 206.1874,195.72431 204.99221,196.92094 201.61658,203.87687 198.68599,211.18193 191.8616,228.19305 190.13212,230.80756 185.44221,231.20295 181.08664,231.57015 178.20392,229.22329 179.19088,226.11365 179.55321,224.97206 181.13306,222.26636 182.70166,220.10096 186.37796,215.02598 187.17178,210.70422 185.26562,206.14215 183.28751,201.40786 180.35194,199.95619 173.1,200.1261 163.08562,200.36074 136.78657,209.86547 135.27862,213.79511 134.83171,214.95974 135.99919,216.77431 139.11823,219.76287 143.37515,223.84172 143.6,224.33616 143.6,229.61812 143.6,232.67664 142.90019,238.86819 142.04486,243.37712 141.18953,247.88604 140.62703,253.17768 140.79486,255.13631 141.29762,261.00372 143.18249,261.34089 154.33471,257.55836 170.45985,252.08915 224.18152,245.06367 232.46791,247.34045 238.01124,248.86355 246.6,257.07541 246.6,260.85238 246.6,263.31757 246.39261,263.4 240.19005,263.4 236.66458,263.4 227.77708,262.50295 220.44005,261.40655 197.93076,258.0429 184.21271,258.87743 155.60588,265.35068 133.77667,270.29026 127.82046,274.4233 124.26533,287.09798 123.37026,290.28909 118.62826,311.13775 113.72756,333.42834 104.41459,375.78794 101.23664,386.99488 94.58675,400.92776 84.31472,422.44976 62.39421,448.37279 48.69028,455.20458 40.95648,459.06009 38.29947,459.19038 34.98572,455.87663 Z"
     id="path59"
     inkscape:connector-curvature="0" />
  <path
     style="opacity:1;fill:#000000"
     d="M 478.0549,475.99528 C 476.38009,475.26575 470.53009,470.21143 465.0549,464.76347 453.32803,453.09492 445.08457,446.69894 422.1,431.43538 412.75,425.22625 398.35,414.92877 390.1,408.5521 372.61583,395.03807 366.95327,391.46192 357.22415,387.78963 353.30587,386.31066 346.95,383.52992 343.1,381.6102 328.40864,374.28467 326.84874,374.57716 312.89987,387.27279 290.27985,407.86052 280.42692,414.16722 260.42774,420.85936 244.70096,426.12187 236.51192,427.63035 223.1,427.73542 213.45734,427.81095 209.61413,427.39435 203.53621,425.61471 199.37613,424.39662 193.46348,423.4 190.397,423.4 183.53333,423.4 180.69465,421.4016 179.69189,415.86371 178.28285,408.0821 180.32765,382.33696 183.59612,366.70737 189.69719,337.53245 190.6821,331.8367 190.39311,327.4 190.15691,323.77367 189.70965,322.84405 188.08941,322.61182 185.20773,322.19879 167.33118,331.24835 159.12141,337.27616 148.30783,345.21575 144.22491,344.13803 135.73179,331.10229 131.22247,324.18111 130.44319,319.49659 133.1567,315.62251 135.02302,312.95797 137.80296,312.82172 145.37699,315.02355 156.67385,318.30763 170.54459,314.50158 179.41522,305.68365 182.33859,302.77764 185.39401,300.4 186.20505,300.4 187.0161,300.4 189.57425,301.39563 191.88984,302.61251 194.20543,303.82939 200.78713,306.41689 206.51583,308.36251 212.24454,310.30813 217.40769,312.67236 217.98949,313.61635 218.84583,315.00579 217.85136,317.05851 212.76839,324.39343 206.24145,333.81204 200.60215,344.60528 200.60079,347.68138 200.59942,350.76169 203.09126,350.63757 213.74704,347.02656 231.35129,341.06085 251.35101,336.33407 259.17044,336.29107 266.93794,336.24835 269.99867,336.92934 298.59492,345.06266 329.96553,353.98507 330.59167,353.66722 342.41267,322.81961 345.13565,315.71382 349.23219,305.86615 351.51608,300.93589 356.81327,289.50081 358.32372,283.61685 358.19964,274.9 358.0744,266.1012 358.19836,266.12984 340.28728,270.76167 322.26803,275.42147 314.55155,278.66596 298.943,288.14539 281.38489,298.80882 272.03576,302.69355 263.64999,302.81024 L 257.19997,302.9 254.91644,298.9 C 253.55153,296.50913 252.62628,293.21311 252.61645,290.7067 252.59689,285.72033 253.83433,284.63167 263.88888,280.78961 273.98434,276.93192 277.99395,273.32368 289.36908,257.86005 307.86032,232.72258 310.6,226.57113 310.6,210.1899 V 201.4 L 313.35,201.42196 C 320.06155,201.47556 330.63831,208.95603 332.65881,215.07821 334.97237,222.08836 333.00911,225.31624 316.64935,241.4 294.4097,263.26445 286.05933,274.82734 291.10959,276.76531 293.24413,277.58441 300.48321,276.067 319.00138,270.91884 327.85562,268.45731 349.17048,263.07824 366.36774,258.96535 396.25704,251.81705 406.26171,249.19517 429.47913,242.42607 443.96769,238.20188 447.02658,238.37464 457.51781,244.00959 471.3327,251.42973 475.27265,255.16043 471.01821,256.79301 470.14823,257.12686 463.06073,257.40417 455.26821,257.40926 436.92923,257.42124 399.61493,259.9164 388.1,261.90071 373.37454,264.43828 368.7234,266.06014 368.00901,268.90651 367.36724,271.46353 367.71468,272.67422 372.14615,283.32271 375.89318,292.32654 375.3346,297.90891 369.76414,307.12834 367.46064,310.94076 362.72956,320.32401 359.25063,327.98 355.7717,335.636 350.63407,346.24862 347.83367,351.5636 344.49724,357.89596 342.93179,361.95276 343.29246,363.33198 344.12343,366.5096 348.35431,369.04855 364.98425,376.34918 388.18469,386.53431 428.83547,410.99352 447.6,426.05835 458.47594,434.78994 481.93721,457.603 485.80135,463.20425 490.16415,469.52832 490.95255,473.04745 488.54575,475.45425 486.30316,477.69684 482.42083,477.89706 478.0549,475.99528 Z M 243.6,414.8705 C 254.28272,411.24983 283.32976,396.6869 294.75051,389.22585 309.46842,379.61079 314.6,373.97202 314.6,367.41448 314.6,360.15575 308.611,355.97658 288.75985,349.38306 273.11752,344.18748 260.44049,341.90548 252.8026,342.91037 247.12697,343.6571 211.08946,355.81599 206.7746,358.44001 202.14723,361.25408 200.63654,364.29517 196.96738,378.18241 191.39119,399.28744 191.45535,411.29344 197.16431,415.0341 201.35184,417.77787 205.52821,418.31101 220.6,418.02579 233.52279,417.78123 236.02457,417.43802 243.6,414.8705 Z"
     id="path61"
     inkscape:connector-curvature="0" />
</svg>
