<?xml version="1.0" encoding="UTF-8" standalone="no"?>
<!-- Created with Inkscape (http://www.inkscape.org/) -->

<svg
   xmlns:dc="http://purl.org/dc/elements/1.1/"
   xmlns:cc="http://creativecommons.org/ns#"
   xmlns:rdf="http://www.w3.org/1999/02/22-rdf-syntax-ns#"
   xmlns:svg="http://www.w3.org/2000/svg"
   xmlns="http://www.w3.org/2000/svg"
   xmlns:sodipodi="http://sodipodi.sourceforge.net/DTD/sodipodi-0.dtd"
   xmlns:inkscape="http://www.inkscape.org/namespaces/inkscape"
   width="512"
   height="512"
   viewBox="0 0 512 512"
   version="1.1"
   id="svg8"
   inkscape:version="0.92.4 (5da689c313, 2019-01-14)"
   sodipodi:docname="U+611B-3.svg">
  <defs
     id="defs2">
    <inkscape:path-effect
       effect="bspline"
       id="path-effect39"
       is_visible="true"
       weight="33.333333"
       steps="2"
       helper_size="0"
       apply_no_weight="true"
       apply_with_weight="true"
       only_selected="false" />
    <inkscape:path-effect
       effect="bspline"
       id="path-effect35"
       is_visible="true"
       weight="33.333333"
       steps="2"
       helper_size="0"
       apply_no_weight="true"
       apply_with_weight="true"
       only_selected="false" />
    <inkscape:path-effect
       effect="bspline"
       id="path-effect31"
       is_visible="true"
       weight="33.333333"
       steps="2"
       helper_size="0"
       apply_no_weight="true"
       apply_with_weight="true"
       only_selected="false" />
    <inkscape:path-effect
       effect="bspline"
       id="path-effect27"
       is_visible="true"
       weight="33.333333"
       steps="2"
       helper_size="0"
       apply_no_weight="true"
       apply_with_weight="true"
       only_selected="false" />
    <inkscape:path-effect
       effect="bspline"
       id="path-effect23"
       is_visible="true"
       weight="33.333333"
       steps="2"
       helper_size="0"
       apply_no_weight="true"
       apply_with_weight="true"
       only_selected="false" />
  </defs>
  <sodipodi:namedview
     id="base"
     pagecolor="#ffffff"
     bordercolor="#666666"
     borderopacity="1.0"
     inkscape:pageopacity="0.0"
     inkscape:pageshadow="2"
     inkscape:zoom="1"
     inkscape:cx="263.06723"
     inkscape:cy="280"
     inkscape:document-units="px"
     inkscape:current-layer="svg8"
     showgrid="false"
     units="px"
     inkscape:window-width="1600"
     inkscape:window-height="821"
     inkscape:window-x="-9"
     inkscape:window-y="-9"
     inkscape:window-maximized="1" />
  <metadata
     id="metadata5">
    <rdf:RDF>
      <cc:Work
         rdf:about="">
        <dc:format>image/svg+xml</dc:format>
        <dc:type
           rdf:resource="http://purl.org/dc/dcmitype/StillImage" />
        <dc:title />
      </cc:Work>
    </rdf:RDF>
  </metadata>
  <g
     inkscape:label="圖層 1"
     inkscape:groupmode="layer"
     id="layer1"
     transform="translate(0,-161.53331)" />
  <path
     style="fill:none;stroke:#000000;stroke-width:1px;stroke-linecap:butt;stroke-linejoin:miter;stroke-opacity:1"
     d="M 651,222 C 651,222 651,222 651,222 Z"
     id="path37"
     inkscape:connector-curvature="0"
     inkscape:path-effect="#path-effect39"
     inkscape:original-d="M 651,222 C 651.001,221.999 651.001,221.999 651,222 Z" />
  <path
     style="opacity:1;fill:#000000"
     d="M 76.63158,474.73642 C 82.12148,468.84124 94.07648,444.9351 100.90158,426.20463 106.67278,410.36603 114.21858,384.90012 116.99258,371.9 122.67718,345.259 121.90408,310.80539 114.44588,258.4 113.07608,248.775 111.94928,238.1668 111.94188,234.82622 111.91368,222.07125 117.37768,198.27971 122.99308,186.70638 127.23458,177.96465 134.54518,172.60225 147.26058,168.90577 152.18488,167.47425 154.45528,167.38241 162.71948,168.28044 173.42478,169.44374 174.24068,169.97162 175.99398,176.8691 176.55748,179.0861 178.09958,183.4625 179.42078,186.59443 L 181.82308,192.28887 180.96718,234.22443 C 179.93438,284.83211 180.42558,292.45743 186.09968,313.9 189.84118,328.0391 190.33538,331.17937 190.34878,340.9 190.36328,351.47108 190.05878,353.05029 182.54088,381.4 169.22298,431.621 168.93428,432.93577 169.03598,442.9 169.21208,460.16215 170.84448,460.95269 182.12568,449.23928 193.63388,437.29024 210.42328,418.08095 221.64248,404.02679 235.0832,387.18978 236.84612,385.4 239.98976,385.4 243.00732,385.4 245.6606,387.24482 254.87629,395.75057 264.87689,404.98076 274.36276,411.6288 306.11075,431.65754 342.81022,454.81 357.14607,463.04108 370.73877,468.76439 390.89696,477.25214 396.30032,477.42667 408.25422,469.97613 419.21896,463.14211 423.64335,461.76823 444.08113,458.851 469.76813,455.18452 472.481,453.72636 465.31736,447.4366 460.77869,443.4516 458.01896,442.4 452.09971,442.4 445.49912,442.4 380.56945,424.33961 339.92845,411.19921 324.58905,406.23954 310.02474,400.50435 299.99986,395.47597 274.23616,382.55313 256.12999,372.93292 254.17845,371.13001 249.7851,367.07126 251.2307,362.41917 261.18798,348.57268 264.48157,343.99266 270.2018,335.21766 273.8996,329.07268 283.30356,313.44526 284.02765,313.09473 305.42845,313.80944 327.27232,314.53894 345.74515,315.97672 349.80618,317.26343 354.3496,318.703 356.92845,317.27937 356.92845,313.33166 356.92845,310.91885 355.12299,308.43323 347.67845,300.59698 342.59095,295.24178 334.49362,287.09724 329.68438,282.498 324.40048,277.44483 318.25651,270.16535 314.15819,264.10232 307.16375,253.75478 303.65924,250.84397 297.42845,250.20679 292.8302,249.73656 293.12182,252.63522 298.97068,265.53661 304.95153,278.72914 306.34535,286.58859 303.47972,290.96209 300.98145,294.77494 291.88701,298.59846 283.96861,299.16501 278.50058,299.55625 276.56658,299.25604 273.07289,297.47369 267.85072,294.80954 263.7662,288.6744 261.40344,279.94566 259.70061,273.6549 259.70632,273.5207 261.80215,270.57737 264.58893,266.6637 264.48608,262.3801 261.38794,253.32515 259.52636,247.88432 258.92507,244.29654 259.13794,239.9 259.46785,233.08633 260.47591,233.55475 248.42845,234.92353 242.91081,235.55042 241.04331,235.15481 225.19885,230.00261 215.72258,226.92117 206.43318,224.4 204.55588,224.4 199.94528,224.4 199.06968,226.86941 202.66678,229.72723 204.17098,230.92225 208.55768,235.26256 212.41508,239.37236 227.91609,255.88782 239.67339,265.903 249.71151,271.14247 252.9161,272.81513 255.13972,274.68684 255.36349,275.9 258.77389,294.38887 259.121,301.21917 256.7277,302.74403 254.64991,304.06786 229.83539,300.29241 221.28968,297.35224 213.55488,294.6911 198.54218,286.61722 193.83188,282.58534 185.97088,275.85659 185.04788,270.51698 187.36988,245.20125 190.19408,214.41032 190.86108,213.43006 214.92848,204.69553 229.76253,199.31195 246.24099,195.77247 274.42845,191.91527 288.72845,189.95844 310.10345,186.59203 321.92845,184.43436 349.93618,179.32386 357.76161,178.4 373.04144,178.4 383.80686,178.4 386.04461,178.67347 387.95812,180.22294 L 390.20936,182.04588 388.0353,188.57893 C 385.03316,197.60036 385.01281,203.79643 387.97495,206.94949 390.14003,209.25412 390.90667,209.39858 400.85277,209.37614 406.6694,209.36302 413.22845,208.93523 415.42845,208.4255 423.11127,206.6454 424.82111,201.06848 420.37442,192.29338 418.96971,189.5213 416.94884,183.17485 415.88361,178.19015 413.69059,167.92803 413.00619,166.80074 407.42845,164.26348 402.08632,161.8334 395.78571,161.92201 390.73586,164.49825 388.47375,165.65229 384.88982,167.20799 382.77155,167.95536 377.16379,169.93389 333.43188,176.08306 311.92845,177.91665 290.47691,179.74581 281.79162,180.97188 251.70576,186.41803 214.12288,193.2213 197.30898,194.82243 191.92848,192.11043 190.20758,191.24303 189.16458,189.61154 188.58158,186.87517 187.21758,180.47228 185.23088,176.68347 181.97548,174.27666 173.23148,167.81194 183.23118,161.20497 209.14348,156.32634 228.18478,152.74134 230.10393,154.97397 219.97028,168.92165 213.66268,177.60324 211.22138,182.02623 212.19798,183.00285 213.32688,184.13178 223.79184,176.28801 230.15239,169.54549 233.66206,165.82505 238.64307,159.12389 241.22129,154.65402 L 245.90896,146.52697 254.39966,143.93715 C 262.32109,141.52097 263.78002,141.38812 276.15941,141.95581 288.11925,142.50425 289.77378,142.37235 292.92845,140.61905 294.85345,139.54917 297.29629,137.19557 298.35698,135.38884 L 300.2855,132.10387 297.60533,129.79849 C 292.09323,125.05718 281.35375,123.50152 270.62,125.88956 266.371,126.83487 261.71667,127.31268 260.27704,126.95136 257.77457,126.32328 257.68431,126.06601 258.22309,121.0972 259.00532,113.88331 266.39138,94.577772 269.71115,91.069945 273.64891,86.909122 275.95732,86.286314 290.68237,85.411922 304.14492,84.612499 308.92845,83.185703 308.92845,79.969616 308.92845,77.765569 299.29612,69.705831 294.45031,67.855196 290.05785,66.177701 289.96633,66.187815 280.7284,69.371762 275.61343,71.13469 269.05337,72.826496 266.1505,73.13133 L 260.87256,73.685574 256.31604,68.792787 C 249.08545,61.028597 247.253,58.347702 242.37049,48.390349 235.14328,33.651221 232.86106,31.494656 224.42845,31.436224 218.87298,31.397729 208.82378,35.549836 205.54048,39.240337 202.96578,42.134329 204.23068,43.417949 213.07828,46.889146 221.47428,50.18321 227.04893,55.396461 231.89214,64.483257 235.31502,70.905234 236.14716,77.643314 233.79765,79.912651 232.03004,81.61994 221.11058,86.010969 213.42848,88.103661 209.60368,89.145567 203.20668,89.767474 195.78358,89.819066 185.84528,89.888138 183.83298,90.176602 182.05308,91.787288 177.40388,95.994608 178.15218,105.82374 183.53128,111.20284 186.69178,114.36334 187.32068,114.59289 191.14448,113.98144 193.43698,113.61486 198.48868,111.93945 202.37058,110.25829 222.26808,101.64107 226.12231,100.28221 230.98052,100.17155 239.54709,99.97642 239.78563,100.83821 235.51238,116.54451 229.33699,139.24212 226.7402,141.61663 202.78208,146.473 187.74438,149.5212 176.72588,150.17609 172.54308,148.27028 168.86378,146.59388 168.15058,143.47599 167.49998,126.22465 166.43408,97.962188 163.35248,86.730048 154.42588,78.571686 145.78478,70.674168 128.09078,62.4 119.84338,62.4 112.06098,62.4 110.96158,67.590448 116.67848,77.342231 121.63998,85.805594 127.98378,92.509792 135.91828,97.675141 145.56848,103.95747 150.02788,113.59089 151.99248,132.4 152.53828,137.625 153.64708,143.89266 154.45658,146.32814 155.26608,148.76362 155.92848,152.01754 155.92848,153.55909 155.92848,156.94217 155.21368,157.14565 141.42848,157.68703 130.87118,158.10164 127.10968,159.3219 123.34028,163.55499 120.50628,166.73754 119.60378,169.36155 114.96688,187.9 108.44628,213.9698 104.99548,218.49063 90.51168,219.93867 82.03738,220.7859 78.92848,221.83497 78.92848,223.84731 78.92848,225.52388 86.16918,227.8556 94.72008,228.93262 106.48618,230.41461 108.74948,236.45795 114.07768,280.61931 115.84618,295.27698 116.29768,304.54837 116.35588,327.4 116.45038,364.49381 116.01738,366.72547 102.51278,398.76057 89.74368,429.05105 81.42728,444.30433 76.44348,446.57509 74.37528,447.51744 72.35658,447.23308 64.91998,444.95184 56.44068,442.35077 55.75668,442.28253 53.43198,443.8057 50.15308,445.95413 49.40348,449.47647 50.84988,455.93941 53.08688,465.93538 64.22598,479.4 70.25858,479.4 71.38768,479.4 74.21618,477.33016 76.63158,474.73642 Z M 176.66898,424.15 C 176.19188,422.75031 176.80138,420.12058 183.22248,395.87317 190.72378,367.54675 196.54808,355.24559 201.60018,357.05891 202.60568,357.41982 206.18468,360.23171 209.55338,363.30756 212.92198,366.3834 217.60948,370.49631 219.96998,372.44736 223.39357,375.2771 224.26178,376.64247 224.26178,379.19671 224.26178,383.89205 218.24398,392.058 204.92848,405.43137 189.71248,420.71345 178.11598,428.39481 176.66898,424.15 Z M 230.10652,357.66638 C 227.53358,356.16288 222.51168,352.46295 218.94678,349.4443 212.97528,344.38787 211.96238,343.90381 206.07798,343.29476 202.41888,342.91603 199.31518,342.04988 198.81118,341.26683 197.06778,338.55811 189.10698,312.78756 188.50368,307.9 187.79238,302.13626 188.82518,297.4985 191.14618,296.03447 192.40788,295.23858 193.64378,295.81356 196.79958,298.66464 199.02088,300.67145 202.56038,303.19189 204.66508,304.26564 212.10868,308.06309 230.16838,313.44462 240.72951,315.01234 252.93375,316.82396 254.66737,317.5116 255.51172,320.87576 256.29414,323.99317 254.91407,328.05077 248.23012,342.28458 242.30983,354.89214 238.68428,360.4 236.30563,360.4 235.46906,360.4 232.67946,359.16987 230.10652,357.66638 Z"
     id="path41"
     inkscape:connector-curvature="0" />
  <path
     style="opacity:1;fill:#000000"
     d="M 359.65202,250.17786 C 360.38354,248.27153 356.21029,238.02608 352.61427,232.9 348.86504,227.55554 344.46088,225.30443 328.17435,220.40798 314.31452,216.24109 306.52415,215.46583 305.63637,218.16509 305.40753,218.86088 308.29755,222.49373 312.05865,226.23808 324.05678,238.18277 344.10142,250.10116 353.89152,251.11159 357.89985,251.52528 359.21688,251.31181 359.65202,250.17786 Z"
     id="path43"
     inkscape:connector-curvature="0" />
</svg>
