<?xml version="1.0" encoding="UTF-8" standalone="no"?>
<!-- Created with Inkscape (http://www.inkscape.org/) -->

<svg
   xmlns:dc="http://purl.org/dc/elements/1.1/"
   xmlns:cc="http://creativecommons.org/ns#"
   xmlns:rdf="http://www.w3.org/1999/02/22-rdf-syntax-ns#"
   xmlns:svg="http://www.w3.org/2000/svg"
   xmlns="http://www.w3.org/2000/svg"
   xmlns:sodipodi="http://sodipodi.sourceforge.net/DTD/sodipodi-0.dtd"
   xmlns:inkscape="http://www.inkscape.org/namespaces/inkscape"
   width="512"
   height="512"
   viewBox="0 0 512 512"
   version="1.1"
   id="svg8"
   inkscape:version="0.92.4 (5da689c313, 2019-01-14)"
   sodipodi:docname="U+62F1-3.svg">
  <defs
     id="defs2">
    <inkscape:path-effect
       effect="bspline"
       id="path-effect51"
       is_visible="true"
       weight="33.333333"
       steps="2"
       helper_size="0"
       apply_no_weight="true"
       apply_with_weight="true"
       only_selected="false" />
    <inkscape:path-effect
       effect="bspline"
       id="path-effect47"
       is_visible="true"
       weight="33.333333"
       steps="2"
       helper_size="0"
       apply_no_weight="true"
       apply_with_weight="true"
       only_selected="false" />
    <inkscape:path-effect
       effect="bspline"
       id="path-effect43"
       is_visible="true"
       weight="33.333333"
       steps="2"
       helper_size="0"
       apply_no_weight="true"
       apply_with_weight="true"
       only_selected="false" />
    <inkscape:path-effect
       effect="bspline"
       id="path-effect39"
       is_visible="true"
       weight="33.333333"
       steps="2"
       helper_size="0"
       apply_no_weight="true"
       apply_with_weight="true"
       only_selected="false" />
    <inkscape:path-effect
       effect="bspline"
       id="path-effect31"
       is_visible="true"
       weight="33.333333"
       steps="2"
       helper_size="0"
       apply_no_weight="true"
       apply_with_weight="true"
       only_selected="false" />
    <inkscape:path-effect
       effect="bspline"
       id="path-effect27"
       is_visible="true"
       weight="33.333333"
       steps="2"
       helper_size="0"
       apply_no_weight="true"
       apply_with_weight="true"
       only_selected="false" />
    <inkscape:path-effect
       effect="bspline"
       id="path-effect23"
       is_visible="true"
       weight="33.333333"
       steps="2"
       helper_size="0"
       apply_no_weight="true"
       apply_with_weight="true"
       only_selected="false" />
  </defs>
  <sodipodi:namedview
     id="base"
     pagecolor="#ffffff"
     bordercolor="#666666"
     borderopacity="1.0"
     inkscape:pageopacity="0.0"
     inkscape:pageshadow="2"
     inkscape:zoom="1"
     inkscape:cx="400"
     inkscape:cy="200"
     inkscape:document-units="px"
     inkscape:current-layer="svg8"
     showgrid="false"
     units="px"
     inkscape:window-width="1600"
     inkscape:window-height="821"
     inkscape:window-x="-9"
     inkscape:window-y="-9"
     inkscape:window-maximized="1" />
  <metadata
     id="metadata5">
    <rdf:RDF>
      <cc:Work
         rdf:about="">
        <dc:format>image/svg+xml</dc:format>
        <dc:type
           rdf:resource="http://purl.org/dc/dcmitype/StillImage" />
        <dc:title />
      </cc:Work>
    </rdf:RDF>
  </metadata>
  <g
     inkscape:label="圖層 1"
     inkscape:groupmode="layer"
     id="layer1"
     transform="translate(0,-161.53331)" />
  <path
     style="fill:none;stroke:#000000;stroke-width:1px;stroke-linecap:butt;stroke-linejoin:miter;stroke-opacity:1"
     d="M 724,271 C 724,271 724,271 724,271 Z"
     id="path49"
     inkscape:connector-curvature="0"
     inkscape:path-effect="#path-effect51"
     inkscape:original-d="M 724,271 C 724.001,270.999 724.001,270.999 724,271 Z" />
  <path
     style="opacity:1;fill:#000000"
     d="M 106.6603,420.4603 C 105.59347,419.39347 103.78345,415.3738 102.63803,411.52769 101.49261,407.68159 98.95786,402.16076 97.00524,399.25919 92.14887,392.04265 81.390986,373.27568 81.848387,372.81828 82.052774,372.61389 86.093203,372.88677 90.82712,373.42467 97.28041,374.15795 100.38642,374.08955 103.23933,373.15134 109.03052,371.24686 109.78445,368.90923 108.9645,355.4 108.58061,349.075 108.22904,333.1 108.18325,319.9 108.09359,294.05276 107.55019,290.92757 102.94455,289.77163 99.28548,288.85326 92.31612,293.63191 80.126243,305.41739 63.525748,321.46715 60.553502,322.39131 47.099016,315.68663 42.699557,313.49428 35.839902,310.46949 31.855338,308.96488 21.574265,305.08265 20.801324,304.23414 19.590691,295.50118 18.724322,289.25158 18.809764,287.72881 20.140771,285.69743 22.5737,281.98431 24.174511,281.91174 31.398599,285.18708 40.455535,289.29342 45.094853,289.90124 52.635433,287.96943 64.456698,284.94097 88.5522,270.85198 98.95133,260.88786 106.26945,253.87587 108.31337,248.3911 110.15651,230.8193 111.01721,222.61369 112.85518,209.825 114.24088,202.4 115.73179,194.41125 116.74255,185.42995 116.71676,180.4 116.6928,175.725 117.33173,169.05958 118.1366,165.58795 121.37831,151.60557 119.56447,149.69443 107.02159,153.87667 94.80344,157.95063 69.975262,170.61734 62.1,176.79453 50.530966,185.86903 46.885418,187.79474 41.169981,187.85052 37.224575,187.88902 35.025401,187.23457 31.255329,184.9 28.590759,183.25 23.190759,180.0698 19.255329,177.83289 13.592495,174.61411 11.599369,172.83217 9.699871,169.28991 7.003543,164.26169 7.268004,159.26651 10.437791,155.35199 L 12.211729,153.16127 16.511884,155.35505 C 29.300371,161.87925 46.841854,160.92439 56.1,153.20011 60.098385,149.86416 62.326286,148.80102 67.1,147.95099 71.578355,147.15354 102.50999,135.43289 109.83201,131.75892 112.43462,130.45301 115.2299,128.36828 116.04375,127.12619 116.8576,125.8841 118.936,119.06062 120.6624,111.9629 124.88379,94.60767 124.62305,87.40371 119.45981,78.73615 117.4675,75.39165 114.80675,69.18336 113.54702,64.93996 112.05637,59.918694 109.62076,54.895324 106.57176,50.553708 100.53507,41.957764 97.6,36.152929 97.6,32.809786 97.6,30.233679 97.75941,30.157862 102.13804,30.651398 110.34222,31.576128 118.80266,36.65509 126.32463,45.171058 130.05108,49.389951 136.82906,56.772616 141.38681,61.57698 145.94455,66.38134 150.55277,72.29966 151.62729,74.72879 153.38717,78.70729 153.44806,79.58701 152.24109,83.59746 151.50416,86.0461 149.20236,90.94089 147.12599,94.47477 140.15463,106.33967 138.98816,112.29778 143.10815,114.9973 145.28943,116.42653 146.59798,116.49469 153.149,115.52035 166.86197,113.4808 171.6,114.09907 171.6,117.92804 171.6,122.08391 163.12292,129.27406 152.1,134.46769 140.86227,139.76254 137.81568,142.47595 134.21134,150.4 129.78085,160.14033 118.22877,222.10354 118.79786,233.07503 119.25698,241.92638 120.66192,241.54458 137.6652,227.94774 145.60434,221.59913 152.4375,216.40373 152.85,216.40241 154.02721,216.39863 153.79587,217.44063 150.61973,226.44805 147.0665,236.52489 146.68394,242.83937 149.53426,244.36482 150.5981,244.93417 154.3106,245.39972 157.78426,245.39938 164.94091,245.39869 193.48152,242.30342 213.50545,239.35634 227.08351,237.35795 237.20965,236.67632 238.22565,237.69232 238.53198,237.99865 238.48463,239.18813 238.12044,240.33561 237.2569,243.05638 232.0364,245.71658 228.78159,245.09438 224.61682,244.29824 214.41964,246.14239 198.81186,250.5144 181.78787,255.28311 176.73891,257.37892 166.90247,263.75991 162.94383,266.32792 158.39237,268.69153 156.78812,269.01238 155.11892,269.34622 150.60049,268.69841 146.22449,267.49787 142.01875,266.34404 136.73821,265.4 134.48997,265.4 125.55843,265.4 118.93892,271.44104 115.31423,282.9 113.35048,289.10815 113.11041,291.93619 113.19199,307.9 113.34085,337.02711 116.08729,366.44414 119.81281,378.81553 121.72127,385.15295 121.79232,386.40413 120.66282,393.78255 118.46121,408.16436 112.92195,422.4 109.52742,422.4 109.01734,422.4 107.72714,421.52714 106.6603,420.4603 Z"
     id="path53"
     inkscape:connector-curvature="0" />
  <path
     style="opacity:1;fill:#000000"
     d="M 250.33438,217.8332 C 249.87148,217.16363 247.01774,211.62738 243.99274,205.53042 240.34697,198.18229 237.86722,194.32918 236.63734,194.10141 235.61686,193.91241 232.46686,195.32374 229.63734,197.23768 223.02819,201.70822 221.28692,202.53857 216.83913,203.34064 204.76678,205.51764 191.90388,196.66642 181.93633,179.3233 177.38737,171.4083 177.73352,170.57392 185.24274,171.35349 202.19396,173.11327 210.452,173.06379 218.99274,171.15128 L 227.49274,169.2479 227.33311,164.62303 C 227.1561,159.49446 223.93862,148.89099 220.43411,141.88683 219.17974,139.37982 214.96728,133.82082 211.07309,129.53349 207.1789,125.24616 203.99274,121.35524 203.99274,120.887 203.99274,119.33771 210.41379,118.80262 215.4463,119.93254 224.02739,121.85921 231.88866,126.84083 241.58202,136.49456 248.31768,143.20267 251.55449,147.33937 254.08202,152.46974 257.4651,159.33672 257.4955,159.52172 257.83296,175.30078 258.41014,202.28884 254.58553,223.98232 250.33438,217.8332 Z"
     id="path55"
     inkscape:connector-curvature="0" />
  <path
     style="opacity:1;fill:#000000"
     d="M 271.0726,235.3562 C 270.31825,234.13563 271.91429,231.94051 276.09967,228.44217 283.2408,222.4733 285.77444,218.48465 294.64713,199.24338 302.21524,182.8312 303.85344,178.41534 303.96469,174.12739 L 304.09967,168.92471 296.62169,165.10715 C 283.09349,158.20092 279.87944,154.39563 284.84967,151.16962 286.08717,150.3664 290.80408,148.48038 295.3317,146.97847 302.23278,144.68923 304.20122,143.52351 307.5066,139.76839 313.65126,132.78769 314.76134,128.39801 315.15333,109.53008 315.54467,90.69389 315.66569,89.87181 319.76996,78.16779 323.34463,67.973988 323.13365,62.909859 318.87613,56.713228 317.43515,54.615953 314.50852,49.526843 312.37249,45.404094 L 308.48881,37.908189 310.65502,36.154095 C 311.84644,35.189343 313.50668,34.4 314.34443,34.4 318.42451,34.4 324.3696,37.244713 328.98744,41.406644 336.42849,48.113065 339.04137,49.67203 349.6704,53.74705 360.12922,57.756814 363.95857,60.84964 366.07049,66.9928 367.84181,72.145212 366.73394,74.772648 362.52558,75.4 360.12483,75.757887 358.51506,76.875756 356.86191,79.33302 352.62113,85.63658 344.98135,114.68399 343.915,128.55881 343.3503,135.90648 343.43575,136.32699 346.01846,138.9097 349.29117,142.18241 349.4903,142.15754 372.59967,135.58953 386.40658,131.66541 390.48702,130.9 397.59967,130.9 410.03265,130.9 417.8448,135.35384 412.7079,139.51345 408.14556,143.2078 369.1169,159.17775 355.3902,162.96701 338.86371,167.52914 337.60268,168.1685 330.09967,175.78972 318.77998,187.28775 299.89335,209.18944 295.16002,216.30714 288.83441,225.81923 284.57768,230.97102 280.65539,233.86165 277.13111,236.45896 272.22686,237.22383 271.0726,235.3562 Z"
     id="path57"
     inkscape:connector-curvature="0" />
  <path
     style="opacity:1;fill:#000000"
     d="M 497.49019,272.0731 C 495.50479,271.33553 488.21506,267.02114 481.2908,262.48557 472.25549,256.56722 465.51084,253.03338 457.40061,249.96838 429.17784,239.30252 420.70414,237.4033 401.28462,237.39106 376.03094,237.37514 339.41464,234.53953 337.25355,232.43241 334.85937,230.09802 347.31674,229.53111 379.66902,230.50216 434.80089,232.15693 444.23042,232.10811 451.24434,230.13153 461.2438,227.3136 466.93135,227.79091 475.61888,232.17708 484.19288,236.50593 498.24806,245.69497 504.56269,251.10006 511.75786,257.25886 514.806,267.09362 510.67762,270.82976 508.11698,273.14711 501.94708,273.72882 497.49019,272.0731 Z"
     id="path59"
     inkscape:connector-curvature="0" />
  <path
     style="opacity:1;fill:#000000"
     d="M 369.02144,335.16038 C 366.31465,333.37858 360.04026,327.86608 355.07835,322.91038 335.8781,303.73413 326.89054,290.90733 326.3431,281.90021 326.12526,278.31609 326.35981,277.86311 328.6,277.54137 329.975,277.34388 334.15374,277.72506 337.88608,278.38842 343.70705,279.423 346.33813,280.69743 356.38608,287.34939 362.82874,291.61456 370.0484,297.22468 372.42979,299.81634 380.2667,308.34523 386.50278,324.76539 384.52457,331.663 382.37491,339.15842 376.95311,340.38153 369.02144,335.16038 Z"
     id="path61"
     inkscape:connector-curvature="0" />
  <path
     style="opacity:1;fill:#000000"
     d="M 195.6,344.09544 C 195.6,343.92793 200.45406,338.86543 206.38679,332.84544 214.94853,324.15778 219.19292,318.74488 226.96304,306.60437 232.34724,298.19177 237.36216,289.41677 238.1073,287.10437 238.85245,284.79197 239.75928,278.9535 240.12249,274.12999 241.07014,261.54499 243.8683,259.64757 252.96883,265.41895 261.78604,271.01066 263.97796,281.98173 258.23004,291.75245 252.76638,301.03998 227.08469,329.36542 217.73187,336.41963 211.15651,341.37899 203.84533,344.4 198.4185,344.4 196.86832,344.4 195.6,344.26295 195.6,344.09544 Z"
     id="path63"
     inkscape:connector-curvature="0" />
</svg>
