<?xml version="1.0" encoding="UTF-8" standalone="no"?>
<!-- Created with Inkscape (http://www.inkscape.org/) -->

<svg
   xmlns:dc="http://purl.org/dc/elements/1.1/"
   xmlns:cc="http://creativecommons.org/ns#"
   xmlns:rdf="http://www.w3.org/1999/02/22-rdf-syntax-ns#"
   xmlns:svg="http://www.w3.org/2000/svg"
   xmlns="http://www.w3.org/2000/svg"
   xmlns:sodipodi="http://sodipodi.sourceforge.net/DTD/sodipodi-0.dtd"
   xmlns:inkscape="http://www.inkscape.org/namespaces/inkscape"
   width="512"
   height="512"
   viewBox="0 0 512 512"
   version="1.1"
   id="svg8"
   inkscape:version="0.92.4 (5da689c313, 2019-01-14)"
   sodipodi:docname="U+80B2-3.svg">
  <defs
     id="defs2">
    <inkscape:path-effect
       effect="bspline"
       id="path-effect47"
       is_visible="true"
       weight="33.333333"
       steps="2"
       helper_size="0"
       apply_no_weight="true"
       apply_with_weight="true"
       only_selected="false" />
    <inkscape:path-effect
       effect="bspline"
       id="path-effect43"
       is_visible="true"
       weight="33.333333"
       steps="2"
       helper_size="0"
       apply_no_weight="true"
       apply_with_weight="true"
       only_selected="false" />
    <inkscape:path-effect
       effect="bspline"
       id="path-effect39"
       is_visible="true"
       weight="33.333333"
       steps="2"
       helper_size="0"
       apply_no_weight="true"
       apply_with_weight="true"
       only_selected="false" />
    <inkscape:path-effect
       effect="bspline"
       id="path-effect35"
       is_visible="true"
       weight="33.333333"
       steps="2"
       helper_size="0"
       apply_no_weight="true"
       apply_with_weight="true"
       only_selected="false" />
    <inkscape:path-effect
       effect="bspline"
       id="path-effect31"
       is_visible="true"
       weight="33.333333"
       steps="2"
       helper_size="0"
       apply_no_weight="true"
       apply_with_weight="true"
       only_selected="false" />
    <inkscape:path-effect
       effect="bspline"
       id="path-effect27"
       is_visible="true"
       weight="33.333333"
       steps="2"
       helper_size="0"
       apply_no_weight="true"
       apply_with_weight="true"
       only_selected="false" />
    <inkscape:path-effect
       effect="bspline"
       id="path-effect23"
       is_visible="true"
       weight="33.333333"
       steps="2"
       helper_size="0"
       apply_no_weight="true"
       apply_with_weight="true"
       only_selected="false" />
  </defs>
  <sodipodi:namedview
     id="base"
     pagecolor="#ffffff"
     bordercolor="#666666"
     borderopacity="1.0"
     inkscape:pageopacity="0.0"
     inkscape:pageshadow="2"
     inkscape:zoom="1"
     inkscape:cx="429"
     inkscape:cy="240"
     inkscape:document-units="px"
     inkscape:current-layer="svg8"
     showgrid="false"
     units="px"
     inkscape:window-width="1600"
     inkscape:window-height="821"
     inkscape:window-x="-9"
     inkscape:window-y="-9"
     inkscape:window-maximized="1" />
  <metadata
     id="metadata5">
    <rdf:RDF>
      <cc:Work
         rdf:about="">
        <dc:format>image/svg+xml</dc:format>
        <dc:type
           rdf:resource="http://purl.org/dc/dcmitype/StillImage" />
        <dc:title />
      </cc:Work>
    </rdf:RDF>
  </metadata>
  <g
     inkscape:label="圖層 1"
     inkscape:groupmode="layer"
     id="layer1"
     transform="translate(0,-161.53331)" />
  <path
     style="fill:none;stroke:#000000;stroke-width:1px;stroke-linecap:butt;stroke-linejoin:miter;stroke-opacity:1"
     d="M 734.33333,349.33333 C 734.33333,349.33333 735.66667,350.66667 735.66667,350.66667 735.66667,350.66667 734.33333,349.33333 734.33333,349.33333 Z"
     id="path37"
     inkscape:connector-curvature="0"
     inkscape:path-effect="#path-effect39"
     inkscape:original-d="M 733,348 C 734.33433,349.33233 735.66767,350.66567 737,352 735.66767,350.66567 734.33433,349.33233 733,348 Z" />
  <path
     style="fill:none;stroke:#000000;stroke-width:1px;stroke-linecap:butt;stroke-linejoin:miter;stroke-opacity:1"
     d="M 801,316 C 801,316 801,316 801,316 Z"
     id="path45"
     inkscape:connector-curvature="0"
     inkscape:path-effect="#path-effect47"
     inkscape:original-d="M 801,316 C 801.001,315.999 801.001,315.999 801,316 Z" />
  <path
     style="opacity:1;fill:#000000"
     d="M 157.12082,60.011728 C 153.87244,56.763346 153.03541,51.408431 154.70193,44.536727 155.45379,41.436527 156.01187,38.675 155.94211,38.4 154.87417,34.189973 154.61547,29.4 155.45604,29.4 156.02355,29.4 157.94823,31.841556 159.73312,34.825681 163.1141,40.478303 165.82863,42.404649 170.39705,42.393265 177.48335,42.375607 229.55451,28.606136 239.9937,23.98943 247.23917,20.785138 249.69928,20.767419 256.3667,23.871502 268.66358,29.596436 263.53907,32.881412 234.6,37.824645 216.08475,40.98733 209.85909,42.944671 189.35258,52.050377 163.3292,63.605793 161.23272,64.12363 157.12082,60.011728 Z"
     id="path49"
     inkscape:connector-curvature="0" />
  <path
     style="opacity:1;fill:#000000"
     d="M 150.95819,174.43056 C 139.90333,171.84893 130.62968,159.2496 130.60977,146.78486 130.60229,142.10234 131.08555,140.05244 132.67258,138.03486 135.63602,134.26746 139.33662,134.62705 146.72129,139.4 154.10808,144.17431 161.51309,145.04767 167.6591,141.86944 175.1015,138.02082 185.57865,120.10011 185.76326,110.90307 185.84982,106.59065 185.47939,105.68143 182.58074,103.09149 179.43754,100.28303 178.98224,100.17913 171.70013,100.60837 162.9205,101.12589 145.8264,106.64331 115.22899,118.83541 95.01951,126.88825 86.63991,131.13905 78.87434,137.27738 69.36667,144.79276 64.63664,145.84774 53.6,142.91452 41.67774,139.74593 25.6,129.6664 25.6,125.36062 25.6,123.07115 27.68795,122.47043 48.1,118.88721 64.69884,115.97337 64.85723,115.93891 103.1,106.9208 164.13566,92.52785 176.54752,90.78668 292.1,80.40738 355.33643,74.72728 368.71242,72.81063 376.40716,68.32703 380.86975,65.72675 383.25684,65.88144 393.9525,69.46402 412.09248,75.54012 427.6,85.67735 427.6,91.45931 427.6,95.61553 423.59572,97.4 414.26931,97.4 408.25363,97.4 403.15221,96.34523 387.46965,91.85888 376.81634,88.81126 362.475,85.15995 355.6,83.74485 343.69324,81.29406 342.0559,81.19959 321.1,81.75444 278.93105,82.87094 218.32056,89.85104 210.73433,94.46451 206.72826,96.90074 206.79085,98.72518 211.1,105.1239 217.04791,113.95604 216.51051,116.0821 204.19053,132.45884 197.41892,141.46022 196.70407,145.40837 201.85,145.38566 206.31584,145.36595 255.21247,130.07984 258.38401,127.71194 259.79274,126.66017 261.40343,125.07341 261.96332,124.1858 263.54239,121.68244 259.94546,114.8509 254.67741,110.34791 249.41958,105.85365 249.9657,103.88319 256.2633,104.62583 264.60162,105.60912 291.3055,111.75057 294.69468,113.46441 301.29665,116.8029 307.90699,126.21398 309.1618,134.06113 310.68971,143.61611 299.436,147.55952 280.78871,144.00332 270.73797,142.08656 263.54572,143.13181 232.6,151.00657 199.12568,159.52478 192.75577,161.4821 176.1,168.36768 161.52201,174.3943 156.24849,175.66599 150.95819,174.43056 Z"
     id="path51"
     inkscape:connector-curvature="0" />
  <path
     style="opacity:1;fill:#000000"
     d="M 296.37268,424.20717 C 295.04371,422.38823 292.04114,416.58042 289.7003,411.30093 285.4529,401.7214 283.08942,398.36328 270.35,383.80731 266.6375,379.56543 263.6,375.81003 263.6,375.46198 263.6,375.11393 267.17542,374.35046 271.54537,373.76538 284.96214,371.96906 287.15536,369.20067 288.69466,352.11872 289.87454,339.02535 289.34613,328.22908 286.01652,297.4 281.98911,260.10997 280.37351,232.80319 281.13543,214.9 281.9082,196.74178 281.08595,191.7321 276.59583,187.24198 274.22723,184.87339 272.91679,184.4 268.72854,184.4 261.51956,184.4 249.56104,188.4795 230.15283,197.55963 208.85047,207.52593 204.91363,208.83416 198.50768,208.07547 189.83278,207.04806 182.84059,201.69645 183.75136,196.78144 184.25041,194.08829 196.94956,188.05674 209.8695,184.37644 215.79273,182.68919 229.51773,179.30972 240.3695,176.8665 251.22128,174.42329 262.575,171.74917 265.6,170.92402 273.71919,168.70928 280.21044,169.00539 286.36632,171.87133 294.3741,175.59943 298.67169,179.35878 301.24642,184.88782 304.42745,191.71885 304.28641,198.77722 300.6,217.23763 297.89482,230.78433 297.60266,234.11017 297.6271,251.08035 297.642,261.43116 298.12221,274.175 298.69424,279.4 299.26627,284.625 300.10846,303.075 300.56578,320.4 301.32142,349.02639 301.65084,353.13155 304.17686,365.4 306.66382,377.47878 306.964,381.05814 307.02822,399.4 307.09453,418.33772 306.94372,420.16673 305.04936,423.4 302.27762,428.13078 299.43275,428.39543 296.37268,424.20717 Z"
     id="path53"
     inkscape:connector-curvature="0" />
  <path
     style="opacity:1;fill:#000000"
     d="M 182.6,320.75628 C 176.5783,319.16414 169.98784,318.18141 164.6,318.07224 L 156.1,317.9 156.59271,311.9 C 157.97321,295.08905 155.57656,254.02484 152.75383,246.1247 149.17383,236.10511 144.39435,228.34735 136.88059,220.36017 129.56285,212.58137 128.29844,209.72509 131.13173,207.37366 133.56227,205.3565 139.21485,207.61499 147.56082,213.93792 151.61036,217.00586 156.3133,220.21753 158.01181,221.07497 166.46045,225.34001 169.64958,231.32147 170.71459,244.9 171.43632,254.10192 171.71879,255.08978 174.25391,257.2779 176.76309,259.44363 177.63754,259.60513 184.05445,259.08796 190.52964,258.56609 192.77918,257.66524 211.84245,247.96006 223.2508,242.15203 233.51788,237.4 234.65819,237.4 240.42349,237.4 242.49635,242.30079 238.35,246.12843 234.1601,249.99627 217.13208,260.42858 211.6,262.51696 204.65803,265.13758 192.87698,266.00183 184.34632,264.51628 171.6297,262.30177 169.56173,265.68644 168.83735,289.9 168.12365,313.75647 169.64935,316.11652 185.1,315.05602 189.5,314.75402 196.925,313.35139 201.6,311.93908 222.05492,305.75964 223.99445,305.41797 232.84222,306.43531 237.384,306.95754 243.4625,307.38824 246.35,307.39241 249.2375,307.39658 251.6,307.84362 251.6,308.38581 251.6,310.16393 244.24924,314.23521 236.1893,316.92115 215.01639,323.97694 199.09145,325.11661 182.6,320.75628 Z"
     id="path55"
     inkscape:connector-curvature="0" />
  <path
     style="opacity:1;fill:#000000"
     d="M 158.6,426.33426 C 158.6,421.57701 157.28986,420.07132 148.90377,415.1908 138.57271,409.17835 135.98863,406.44329 134.6289,400.08189 134.01971,397.23185 132.41399,391.38927 131.06064,387.09838 128.3765,378.58815 128.0835,373.07261 129.98762,366.9 L 131.22154,362.9 133.4301,367.82082 C 134.64481,370.52726 137.00862,374.96811 138.68302,377.68936 140.35743,380.41061 142.62878,386.29624 143.73048,390.76854 146.03017,400.10401 147.75448,402.34278 153.20845,403.07431 157.24595,403.61585 159.41101,402.6755 178.6,392.04602 186.33855,387.75935 188.43866,387.38083 183.6,391.14484 177.19367,396.12835 170.44245,402.80399 169.01268,405.56886 168.2357,407.07136 167.6,411.03748 167.6,414.38246 167.6,421.30002 165.7083,426.73649 162.7504,428.31951 159.52314,430.04669 158.6,429.60512 158.6,426.33426 Z"
     id="path57"
     inkscape:connector-curvature="0" />
</svg>
