<?xml version="1.0" encoding="UTF-8" standalone="no"?>
<!-- Created with Inkscape (http://www.inkscape.org/) -->

<svg
   xmlns:dc="http://purl.org/dc/elements/1.1/"
   xmlns:cc="http://creativecommons.org/ns#"
   xmlns:rdf="http://www.w3.org/1999/02/22-rdf-syntax-ns#"
   xmlns:svg="http://www.w3.org/2000/svg"
   xmlns="http://www.w3.org/2000/svg"
   xmlns:sodipodi="http://sodipodi.sourceforge.net/DTD/sodipodi-0.dtd"
   xmlns:inkscape="http://www.inkscape.org/namespaces/inkscape"
   width="512"
   height="512"
   viewBox="0 0 512 512"
   version="1.1"
   id="svg8"
   inkscape:version="0.92.4 (5da689c313, 2019-01-14)"
   sodipodi:docname="U+9053-3.svg">
  <defs
     id="defs2">
    <inkscape:path-effect
       effect="bspline"
       id="path-effect51"
       is_visible="true"
       weight="33.333333"
       steps="2"
       helper_size="0"
       apply_no_weight="true"
       apply_with_weight="true"
       only_selected="false" />
    <inkscape:path-effect
       effect="bspline"
       id="path-effect47"
       is_visible="true"
       weight="33.333333"
       steps="2"
       helper_size="0"
       apply_no_weight="true"
       apply_with_weight="true"
       only_selected="false" />
    <inkscape:path-effect
       effect="bspline"
       id="path-effect43"
       is_visible="true"
       weight="33.333333"
       steps="2"
       helper_size="0"
       apply_no_weight="true"
       apply_with_weight="true"
       only_selected="false" />
    <inkscape:path-effect
       effect="bspline"
       id="path-effect39"
       is_visible="true"
       weight="33.333333"
       steps="2"
       helper_size="0"
       apply_no_weight="true"
       apply_with_weight="true"
       only_selected="false" />
    <inkscape:path-effect
       effect="bspline"
       id="path-effect35"
       is_visible="true"
       weight="33.333333"
       steps="2"
       helper_size="0"
       apply_no_weight="true"
       apply_with_weight="true"
       only_selected="false" />
    <inkscape:path-effect
       effect="bspline"
       id="path-effect31"
       is_visible="true"
       weight="33.333333"
       steps="2"
       helper_size="0"
       apply_no_weight="true"
       apply_with_weight="true"
       only_selected="false" />
    <inkscape:path-effect
       effect="bspline"
       id="path-effect27"
       is_visible="true"
       weight="33.333333"
       steps="2"
       helper_size="0"
       apply_no_weight="true"
       apply_with_weight="true"
       only_selected="false" />
    <inkscape:path-effect
       effect="bspline"
       id="path-effect23"
       is_visible="true"
       weight="33.333333"
       steps="2"
       helper_size="0"
       apply_no_weight="true"
       apply_with_weight="true"
       only_selected="false" />
  </defs>
  <sodipodi:namedview
     id="base"
     pagecolor="#ffffff"
     bordercolor="#666666"
     borderopacity="1.0"
     inkscape:pageopacity="0.0"
     inkscape:pageshadow="2"
     inkscape:zoom="1"
     inkscape:cx="400"
     inkscape:cy="280"
     inkscape:document-units="px"
     inkscape:current-layer="svg8"
     showgrid="false"
     units="px"
     inkscape:window-width="1600"
     inkscape:window-height="821"
     inkscape:window-x="-9"
     inkscape:window-y="-9"
     inkscape:window-maximized="1" />
  <metadata
     id="metadata5">
    <rdf:RDF>
      <cc:Work
         rdf:about="">
        <dc:format>image/svg+xml</dc:format>
        <dc:type
           rdf:resource="http://purl.org/dc/dcmitype/StillImage" />
        <dc:title />
      </cc:Work>
    </rdf:RDF>
  </metadata>
  <g
     inkscape:label="圖層 1"
     inkscape:groupmode="layer"
     id="layer1"
     transform="translate(0,-161.53331)" />
  <path
     style="fill:none;stroke:#000000;stroke-width:1px;stroke-linecap:butt;stroke-linejoin:miter;stroke-opacity:1"
     d="M 847,238 C 847,238 847,238 847,238 Z"
     id="path49"
     inkscape:connector-curvature="0"
     inkscape:path-effect="#path-effect51"
     inkscape:original-d="M 847,238 C 847.001,237.999 847.001,237.999 847,238 Z" />
  <path
     style="opacity:1;fill:#000000"
     d="M 59.615621,162.38025 C 59.624212,161.01611 60.283183,157.2 61.079999,153.9 61.876816,150.6 62.544787,146.67833 62.564378,145.18518 62.630589,140.13907 56.314539,138.94419 48.6,142.54339 41.082952,146.05045 34.820985,145.35541 23.770403,139.78748 14.797618,135.26646 10.708824,131.65097 12.072821,129.44398 12.427688,128.86979 15.874634,128.4 19.7327,128.4 28.245449,128.4 37.390899,125.53046 51.59417,118.40293 63.318645,112.51931 67.607454,112.04225 74.17512,115.89115 80.25365,119.45341 82.6,123.73895 82.6,131.27893 82.6,140.0171 80.14768,144.39826 69.096434,155.40355 60.886059,163.57979 59.602115,164.52461 59.615621,162.38025 Z"
     id="path53"
     inkscape:connector-curvature="0" />
  <path
     style="opacity:1;fill:#000000"
     d=""
     id="path55"
     inkscape:connector-curvature="0" />
  <path
     style="opacity:1;fill:#000000"
     d="M 249.90891,174.76261 C 249.52282,173.7565 252.24288,167.29879 256.96419,158.01261 265.23186,141.75123 266.14015,137.81584 262.89394,132.32045 258.83136,125.44305 251.36355,124.95673 232.6,130.34767 205.33782,138.18034 202.32279,139.3443 189.39306,147.02772 173.80307,156.292 170.51395,157.01937 165.22205,152.37302 163.18788,150.58699 160.34231,147.11005 158.89856,144.64648 157.45481,142.18291 153.83061,137.1869 150.84479,133.54424 146.12353,127.78439 145.48517,126.49504 145.94668,123.65111 146.23854,121.85255 147.43483,119.03632 148.6051,117.39283 153.41981,110.6312 165.72378,104.95303 167.20374,108.80974 167.55528,109.72586 167.11326,112.38599 166.22146,114.72114 164.20723,119.99533 164.15299,123.29123 166.06832,124.02622 166.8759,124.33611 178.4634,123.42107 191.81832,121.99279 205.17324,120.56451 227.575,118.49993 241.6,117.40484 271.07329,115.10352 271.27111,115.07106 278.75885,111.30752 289.86755,105.724 302.76775,90.82878 311.58915,73.4 318.48396,59.77767 317.98664,54.439074 309.10884,46.77454 302.82072,41.345769 300.24058,36.747111 301.20562,32.688408 302.52664,27.132529 303.48293,26.775669 316.32483,27.046344 322.80117,27.18285 329.50687,27.586175 331.22638,27.942623 333.98871,28.515246 334.67644,28.166341 337.13251,24.946265 341.02892,19.837812 343.1691,20.483462 348.31981,28.32124 353.65536,36.440301 357.64008,40.601532 364.72464,45.452744 370.93479,49.705198 371.6,50.77005 371.6,56.458734 371.6,61.704401 369.38528,62.965304 357.73339,64.353396 347.56218,65.565094 344.43389,66.764046 340.6,70.919956 336.39255,75.480809 322.59175,85.858313 313.0551,91.63233 300.98552,98.93994 293.93774,104.07748 293.14359,106.14701 291.79424,109.66336 295.28651,110.62128 307.6,110.11236 316.42303,109.7477 326.71066,108.10034 351.79468,103.03547 386.54763,96.01829 392.08293,94.42409 398.7701,89.5063 401.09325,87.79783 403.54062,86.4 404.2087,86.4 406.0845,86.4 435.37885,99.98787 439.77469,102.89691 444.4567,105.99531 447.74183,110.97025 447.3706,114.4 447.13116,116.61213 446.57263,116.9343 442.51997,117.19785 440.00095,117.36167 431.10436,116.13068 422.74976,114.46233 404.94429,110.9067 379.95308,108.93691 364.6,109.87901 358.825,110.23337 346.45,111.60819 337.1,112.93415 327.75,114.26012 315.15,115.82127 309.1,116.40338 303.05,116.98548 296.525,117.733 294.6,118.06452 286.00182,119.54531 282.89266,123.94862 288.42515,126.80958 292.66174,129.00041 298.6,136.0329 298.6,138.85933 298.6,140.68691 295.26309,144.57699 285.52105,154.10645 271.6874,167.63822 265.3707,172.51116 258.53869,174.92163 253.11419,176.83551 250.68719,176.79079 249.90891,174.76261 Z"
     id="path57"
     inkscape:connector-curvature="0" />
  <path
     style="opacity:1;fill:#000000"
     d="M 249.21575,91.952472 C 239.76578,88.575521 229.65406,78.695109 223.92192,67.237235 217.32182,54.044397 218.41892,53.855787 241.19641,64.267477 254.37966,70.293595 258.50987,70.804951 264.10568,67.103836 L 267.83347,64.638241 V 76.735646 88.83305 L 263.37158,91.08305 C 258.35551,93.612507 254.52031,93.848057 249.21575,91.952472 Z"
     id="path59"
     inkscape:connector-curvature="0" />
  <path
     style="opacity:1;fill:#000000"
     d="M 344.34366,383.65 C 342.55109,381.77602 340.88802,377.87376 339.12292,371.4 334.07828,352.89804 332.17673,351.0864 317.92627,351.20555 307.24937,351.29483 279.33389,354.85237 257.1,358.95723 236.77445,362.70978 233.54933,362.93582 229.51357,360.89072 224.61998,358.41093 217.66721,353.0911 217.63092,351.79886 217.6118,351.11813 221.98221,350.29915 229.07801,349.65376 243.76844,348.31761 246.96192,346.71187 247.41568,340.43327 247.61229,337.7127 246.73034,332.85469 245.07727,327.55272 243.50839,322.52077 242.62477,317.78487 242.91619,315.97008 243.18733,314.28154 243.93118,309.75 244.5692,305.9 245.82083,298.34718 245.37215,288.5224 242.99364,271.4 242.19143,265.625 240.88135,253.88152 240.08237,245.30338 238.5033,228.34989 236.18839,219.06762 231.3778,210.4 227.10602,202.70318 224.45378,199.70434 216.34262,193.4 212.45066,190.375 209.0877,187.3639 208.86938,186.70866 208.28687,184.96038 213.91541,182.39772 218.30034,182.41478 223.88265,182.4365 234.17572,185.08345 240.00249,187.99567 246.31355,191.14995 250.15801,194.70504 252.8758,199.9 255.79728,205.48433 256.76055,225.55602 257.07504,287.4 257.21348,314.625 257.38824,337.43036 257.46338,338.07857 257.73127,340.38957 260.79479,342.4 264.04844,342.4 265.86651,342.4 271.79687,341.01865 277.22701,339.33034 296.31579,333.39535 315.92529,329.88111 323.9346,330.95981 328.10337,331.52127 329.13627,332.14548 331.4346,335.49228 334.2495,339.5913 338.62661,341.60098 342.1,340.38911 346.62225,338.8113 346.77618,337.17122 345.94693,299.4 345.51828,279.875 345.32266,244.76288 345.51222,221.37306 345.70179,197.98324 345.53834,177.39574 345.14899,175.62306 344.58569,173.05838 343.93894,172.4 341.98285,172.4 339.03725,172.4 324.50432,177.90512 315.64848,182.37553 308.087,186.19255 305.52214,185.98132 298.70969,180.98052 293.07359,176.84324 285.2421,167.78811 286.09978,166.40035 286.95119,165.02275 293.73668,165.20795 302.1,166.83705 308.59131,168.1015 309.55714,168.0513 315.39063,166.14626 324.07567,163.31 331.5179,158.39423 334.15143,153.7543 336.08932,150.34001 336.72498,149.93129 339.71953,150.17409 344.49191,150.56104 356.61519,156.51549 361.36206,160.804 367.43642,166.29182 368.18734,168.93619 366.29831,178.18702 363.54014,191.69418 363.39563,194.76998 362.60017,256.9 361.87054,313.88848 361.68169,318.45898 359.72851,326.4 356.5114,339.4797 356.08316,349.06828 358.06036,363.75088 359.0074,370.78363 359.48289,377.74421 359.117,379.21885 357.31254,386.49125 349.3469,388.88048 344.34366,383.65 Z"
     id="path61"
     inkscape:connector-curvature="0" />
  <path
     style="opacity:1;fill:#000000"
     d="M 275.9783,244.01523 C 272.77483,242.56748 269.6,238.92788 269.6,236.70317 269.6,234.98078 273.02689,233.35046 289.00858,227.46964 296.58606,224.68134 304.31901,222.4 306.19291,222.4 310.43163,222.4 313.6,225.3631 313.6,229.3272 313.6,232.94889 308.92541,237.0862 299.63884,241.68372 292.0919,245.42 281.41477,246.47213 275.9783,244.01523 Z"
     id="path63"
     inkscape:connector-curvature="0" />
  <path
     style="opacity:1;fill:#000000"
     d="M 274.35,301.4248 C 270.9158,298.71495 270.7019,294.56076 273.85,291.71401 275.0875,290.59496 279.18982,287.59152 282.96627,285.03969 291.30548,279.4047 297.00993,278.71902 301.14545,282.85455 306.47486,288.18395 303.13861,294.32117 292.07704,299.53637 283.47781,303.59066 277.85404,304.18974 274.35,301.4248 Z"
     id="path65"
     inkscape:connector-curvature="0" />
  <path
     style="opacity:1;fill:#000000"
     d="M 363.6,457.77998 C 342.3251,455.89995 292.71829,447.86498 258.6,440.77281 246.775,438.31474 229.675,435.46157 220.6,434.43243 210.49249,433.2862 201.93044,431.74909 198.50003,430.46492 195.42005,429.31193 186.64505,424.47843 179.00003,419.72381 137.86279,394.1396 108.10436,388.36958 84.97827,401.49346 82.16132,403.09206 78.87837,404.4 77.68282,404.4 74.45394,404.4 71.00936,400.36147 70.26434,395.70233 69.73314,392.38043 68.66137,390.80037 64.67585,387.4635 59.26895,382.93659 57.87123,379.44701 59.62126,374.84408 61.81288,369.07967 65.5654,368.97705 75.85849,374.4 87.61938,380.59626 87.97369,380.47799 98.0537,366.99046 102.74356,360.71522 107.03505,354.38592 107.59036,352.92536 109.54196,347.79225 108.81156,338.21724 106.04487,332.66521 102.0489,324.64635 94.08847,320.24288 76.6,316.37718 64.61608,313.72822 64.08839,312.97431 63.22749,297.272 62.57375,285.34843 62.65818,284.55567 65.55692,275.4 70.89385,258.54328 69.36135,250.40292 60.85,250.3977 57.48416,250.39564 56.36747,251.16396 49.94933,257.8977 42.18207,266.04691 39.54074,267.07357 37.30758,262.81142 36.56162,261.38771 32.15975,257.63544 27.52564,254.47306 17.46437,247.6071 13.1,241.61637 13.1,234.67181 13.1,230.69356 13.54144,229.89777 17.85867,226.09339 20.47594,223.78702 23.70324,220.39778 25.03045,218.56174 L 27.44357,215.22347 27.27178,223.56174 27.1,231.9 30.67848,232.20014 C 35.27938,232.58603 44.07527,229.28584 48.77263,225.41127 51.29351,223.33195 52.98143,220.73834 54.15495,217.14097 56.53422,209.84743 57.31033,209.09781 61.85178,209.70694 66.56349,210.33892 93.47002,226.26838 97.08754,230.56756 102.21641,236.66288 100.36406,240.84243 87.89393,251.31156 84.48059,254.17718 80.81377,257.95688 79.74544,259.71089 77.43293,263.50763 68.6,294.7924 68.6,299.18618 68.6,303.13494 71.92924,305.80992 78.86159,307.43117 101.99425,312.84113 120.5046,322.4496 126.74227,332.28538 130.05857,337.51465 130.31656,340.71275 127.76024,344.90453 125.37395,348.81749 116.11643,357.82173 106.98939,365.10708 95.15399,374.55429 94.87399,377.35524 105.76203,377.38469 117.40046,377.41616 128.23308,380.27814 182.03442,397.53587 216.57895,408.61663 227.82401,411.67358 242.23337,413.90082 261.75033,416.91753 334.30341,423.56785 353.64653,424.11311 370.91765,424.59996 374.35174,424.42291 383.14653,422.59218 388.62094,421.45262 398.92925,420.01272 406.05388,419.3924 413.17852,418.77208 424.87852,417.19909 432.05388,415.89686 451.18041,412.42568 458.27666,411.55428 476.6,410.42677 485.675,409.86834 495.35,409.18026 498.1,408.8977 500.85,408.61514 503.775,408.84999 504.6,409.41957 505.84611,410.2799 505.30185,411.19208 501.38436,414.80889 495.63656,420.11555 487.95501,423.279 455.1,433.86999 441.9,438.12508 422.96364,444.65643 413.0192,448.38411 403.07476,452.11178 392.59682,455.66388 389.73488,456.27765 383.69384,457.57323 370.10186,458.35454 363.6,457.77998 Z"
     id="path67"
     inkscape:connector-curvature="0" />
</svg>
