<?xml version="1.0" standalone="no"?>
<!DOCTYPE svg PUBLIC "-//W3C//DTD SVG 1.1//EN" "http://www.w3.org/Graphics/SVG/1.1/DTD/svg11.dtd" >
<svg xmlns="http://www.w3.org/2000/svg" xmlns:xlink="http://www.w3.org/1999/xlink" version="1.1" viewBox="0 0 256 256">
  <g transform="matrix(1 0 0 -1 0 204)">
   <path fill="currentColor"
d="M179 89q7 -2 15 -6q3 -7 -2 -7q-11 4 -21 3q-17 -1 -45 -7q-3 -4 -3 -10q14 -21 46 -45q9 -8 20 -5q13 0 25 -3q11 -2 31 -7q6 -2 0 -2h-24q-1 0 -1 1q-10 2 -24 2q-19 -2 -24 6q-38 30 -50 45q-4 -54 4 -83q-2 -6 -7 -2q-11 22 -15 32q-2 6 2 1q1 -2 4 -3q2 -3 3 -4
q5 -2 6 3q-1 10 -2 27q-1 18 -2 30q-40 -37 -73 -47q-8 -2 -1 2q37 17 70 53q-2 2 -6 5q-2 -1 -5 -2q-28 -6 -39 -9q-14 -5 -22 0q-2 0 -2 2q1 1 3 2q7 -3 20 1q31 9 54 12q0 4 -2 6q-3 2 1 4q9 -1 13 -7q18 3 35 5q5 1 8 5q1 3 10 2zM121 113v-7q-1 -2 -2 -3q-1 0 -2 2
q-5 5 -4 10q1 3 1 18v5q-2 -1 -8 -2q-8 -2 -15 -3q4 -19 4 -41q50 11 67 12q4 -2 2 -5q-37 -4 -69 -15q-9 -4 -18 -3q-4 2 0 5q1 0 2 1q3 2 9 4q2 26 -2 41q-16 -5 -28 -9q-18 -5 -32 0q-3 0 -3 1t3 2q6 0 17 2q24 3 42 7q-2 1 -3 4t-2 5q-3 3 2 1q1 -2 5 -5q1 -2 3 -3
q2 0 8 1l15 3q-1 5 -8 9q-4 1 0 2q9 -1 14 -9q2 0 12 2q9 1 12 2q0 9 -6 15q-1 2 1 1q16 -7 13 -15q4 1 18 2q5 -1 6 4q4 8 15 4q13 -6 26 -10q4 -5 -2 -8q-6 -1 -13 5q-4 2 -17 2q-13 -1 -34 -3q-4 -14 -8 -23q1 0 5 -3h2q-8 -3 -28 -5zM85 195q8 -1 16 -19q7 1 25 5l18 4
q9 14 11 25q0 2 2 3q2 0 3 -2q5 -13 0 -16q-2 -2 -3 -4q-2 -3 -3 -4q2 0 8 2q5 1 8 2q9 1 11 6q1 3 8 2h1l6 -3q6 -2 9 -2q3 -2 2 -5t-4 -2q-15 1 -26 0q-13 -3 -28 -6q-11 -14 -23 -25q-4 -3 -2 1q0 1 2 4q9 12 14 17q-26 -7 -36 -8v-3q2 -5 2 -6q-3 -7 -8 -5q-5 1 -6 8v2
h-2q-13 -4 -35 1q-3 0 -3 1q1 1 4 2q15 0 30 3q2 -1 4 1q-2 4 -3 10q-2 1 -3 4t-1 5q-2 2 2 2zM137 121q0 2 2 7q3 9 3 15q-2 -1 -7 -2q-10 -1 -15 -2v-8v-14q3 0 10 2q4 1 7 2z" />
  </g>

</svg>
