<?xml version="1.0" standalone="no"?>
<!DOCTYPE svg PUBLIC "-//W3C//DTD SVG 1.1//EN" "http://www.w3.org/Graphics/SVG/1.1/DTD/svg11.dtd" >
<svg xmlns="http://www.w3.org/2000/svg" xmlns:xlink="http://www.w3.org/1999/xlink" version="1.1" viewBox="0 0 256 256">
  <g transform="matrix(1 0 0 -1 0 204)">
   <path fill="currentColor"
d="M94 192q6 -5 11 -10q4 -4 -1 -9q-4 -2 -6 -36q3 1 5 2q4 1 6 3q2 3 8 3q10 0 15 -1q2 -3 -1 -5q-13 2 -33 -6v-8q7 -5 5 -9l-2 -2q-3 -2 -3 -4q-2 -4 -1 -10q10 -9 17 -12q7 -4 9 -7q2 -6 -3 -6q-10 2 -23 18q-3 -54 -1 -74q1 -19 8 -36q0 -3 -3 -5q-2 -1 -4 1q-3 4 -5 8
q-12 16 -15 24q-3 6 2 2q7 -10 11 -12q2 -1 3 -1q1 1 2 4q-3 15 -4 38q-1 22 0 60q-27 -39 -64 -48q-3 0 -3 1t4 2q41 20 63 59q1 5 1 15q-21 -7 -41 -15q-11 -6 -26 -2q-3 1 0 2q38 8 67 19v17q1 12 2 17q3 15 -2 21q-3 4 2 2zM148 150q16 6 23 7q7 2 19 2q7 2 23 -17
q5 -8 0 -9q-7 1 -8 -14q-3 -16 0 -39q2 -32 4 -67q-3 -10 -11 -4q-2 5 -6 11q-2 1 -5 4q-11 10 -17 20l-4 -2q-2 -6 -8 -2q-5 6 -9 9q-5 2 0 10q3 2 2 10v49v7v12q-1 3 1 1q3 -3 6 -4q1 -1 1 -2t-1 -1q-3 -1 -3 -5v-20q10 4 20 11q1 3 14 2l2 -2q0 -1 -1 -1q-11 -4 -19 -12
l-3 -3q-1 0 0 3v3t-2 1q-1 0 -3 -2q-5 -2 -8 -2q0 -21 3 -44q0 -10 6 -14q0 -1 2 0q1 1 2 1q-4 3 -5 7q-4 5 2 1q2 -3 7 -7q4 1 9 4t13 0q3 -3 0 -4q-8 0 -17 -3h-2q14 -16 19 -18q9 -5 10 7q-1 15 -2 31t-2 29q-2 8 -3 19q-1 9 0 36q-2 6 -8 8q-15 -2 -27 -7q-6 -4 -14 -3
q-2 0 -2 1zM187 91q2 0 2 -1q1 -2 -1 -3q-6 -4 -10 -11q-2 -7 -8 -12q-4 -5 -1 2q10 15 4 16q-5 -2 -10 -3q-3 -1 0 1q6 3 9 6t15 5z" />
  </g>

</svg>
