<?xml version="1.0" standalone="no"?>
<!DOCTYPE svg PUBLIC "-//W3C//DTD SVG 1.1//EN" "http://www.w3.org/Graphics/SVG/1.1/DTD/svg11.dtd" >
<svg xmlns="http://www.w3.org/2000/svg" xmlns:xlink="http://www.w3.org/1999/xlink" version="1.1" viewBox="0 0 256 256">
  <g transform="matrix(1 0 0 -1 0 204)">
   <path fill="currentColor"
d="M88 181q8 -4 16 -19q0 -1 -1 -3q2 1 0 -1q-3 -3 -7 -10q-2 -3 -2 -4q0 -7 -2 -11l-2 -4q-4 -10 -4 -19q-5 -54 -3 -93q0 -12 12 -17q10 -8 14 -13q3 -2 -1 -5q-5 -4 -6 -2q-5 3 -7 6q-13 14 -20 14h-2q-5 0 -4 3q-3 4 11 8q-1 22 -1 31q-1 13 -1 25q0 25 2 58
q-30 -42 -61 -69q-5 -4 -2 2q43 44 69 92q10 19 1 28q-1 1 -1 2t2 1zM163 187q3 -5 8 -7q4 -3 2 -6q-4 -2 -11 -47q20 4 40 7q7 1 8 4q3 3 9 1q0 -1 1 -1q10 -3 15 -2q6 -4 2 -7q-5 -1 -14 2q-2 0 -2 1q-4 1 -11 0h-2q-11 -2 -36 -7q-6 -1 -11 -2q-21 -71 -65 -110
q-8 -6 -2 2q45 45 60 106q-6 -1 -23 -6q-5 -1 -7 -1q-9 -4 -21 1q-3 1 0 2q25 2 52 8q3 15 6 35q0 3 1 7q1 10 -1 18q-3 4 2 2zM190 55q7 3 15 -1q3 -3 7 -5q2 -1 4 -1q3 -1 3 -4q0 -2 -4 -2q-8 -1 -10 -7l-16 -18q19 2 26 -1q2 -5 -3 -6q-5 -2 -15 1q-3 3 -27 -2
q-6 -2 -5 5q-1 2 0 3t4 1q2 -2 11 -1q13 8 17 26q1 5 -1 6q-2 2 -7 0q-25 -9 -34 -7q-5 0 0 2q10 3 24 7q7 1 11 4zM164 8q3 -3 0 -8h-5q-5 4 -14 12q-7 3 -3 8v3v3q-2 5 -2 13q0 4 2 1q7 -28 22 -32z" />
  </g>

</svg>
